<svg width="624" height="382" viewBox="0 0 624 382" fill="none" xmlns="http://www.w3.org/2000/svg">
<g clip-path="url(#clip0_776_4866)">
<path d="M624 382H0C6.8377 364.591 19.4621 349.823 37.2643 345.441C63.3024 339.041 90.8579 356.641 116.839 350.022C131.599 346.267 143.219 335.322 155.43 326.234C201.496 291.942 264.625 281.807 319.135 299.958C347.629 309.44 373.592 326.024 402.78 333.074C440.523 342.194 479.993 334.63 518.808 333.384C556.61 332.172 610.773 347.55 624 382Z" fill="#F3F5FD"/>
<path d="M260.003 337.021C257.316 336.143 254.559 337.131 251.921 339.132C255.396 330.371 256.83 322.457 250.889 322.101C246.732 321.852 243.548 325.035 241.129 329.562C240.278 321.603 238.083 315.667 233.166 317.635C227.768 319.796 226.947 327.2 227.766 334.949C225.387 330.991 222.827 328.784 220.502 331.106C213.563 338.034 230.595 357.555 230.595 357.555C230.595 357.555 245.244 363.112 250.948 357.153C258.677 349.076 266.419 339.118 260.003 337.021Z" fill="#E3A924"/>
<path d="M252.419 382H228.48L224.473 354.099H256.426L252.419 382Z" fill="#065366"/>
<path d="M405.417 382H318.854C312.504 376.94 312.066 365.541 318.648 360.45C323.721 356.527 331.39 357.577 336.158 361.657C335.266 358.62 335.247 355.393 336.104 352.345C337.655 346.857 341.102 341.281 346.364 339.062C359.792 333.404 369.334 345.258 371.247 351.884C374.686 346.836 382.376 344.168 387.206 347.566C393.321 351.87 393.045 358.656 388.167 363.526C394.668 362.316 399.561 363.25 404.072 368.081C407.501 371.76 408.027 378.026 405.417 382Z" fill="#E3A924"/>
<path d="M154.256 96.6486L152.734 95.2376C153.445 94.474 154.161 93.7159 154.884 92.9634L156.384 94.3958C155.669 95.1416 154.959 95.8925 154.256 96.6486Z" fill="#065366"/>
<path d="M160.709 90.006L159.25 88.5311C160.726 87.0756 162.239 85.6271 163.747 84.2252L165.161 85.7424C163.669 87.1303 162.173 88.5649 160.709 90.006ZM443.574 90.0913C442.12 88.6518 440.626 87.2151 439.134 85.8202L440.553 84.3067C442.057 85.7145 443.568 87.1657 445.036 88.6197L443.574 90.0913ZM169.737 81.6097L168.367 80.0539C169.921 78.6906 171.515 77.3328 173.106 76.0173L174.431 77.6144C172.855 78.9149 171.276 80.2604 169.737 81.6097ZM434.571 81.6806C433.033 80.3259 431.457 78.9782 429.888 77.6761L431.215 76.0822C432.8 77.3971 434.391 78.7577 435.944 80.1258L434.571 81.6806ZM179.239 73.7554L177.962 72.1207C179.589 70.8545 181.261 69.5921 182.931 68.3694L184.159 70.0423C182.505 71.2521 180.849 72.5016 179.239 73.7554ZM425.088 73.8117C423.476 72.5509 421.822 71.2987 420.176 70.0911L421.406 68.421C423.068 69.641 424.738 70.9055 426.368 72.1791L425.088 73.8117ZM189.187 66.4761L188.01 64.7679C189.716 63.5957 191.461 62.4358 193.193 61.3198L194.322 63.0624C192.603 64.1654 190.877 65.3152 189.187 66.4761ZM415.154 66.5185C413.471 65.3581 411.746 64.2073 410.027 63.0973L411.156 61.3563C412.892 62.4776 414.635 63.6402 416.334 64.8125L415.154 66.5185ZM199.55 59.8037L198.476 58.0284C200.252 56.9592 202.062 55.906 203.857 54.8979L204.875 56.7043C203.101 57.7028 201.308 58.7468 199.55 59.8037ZM404.8 59.8321C403.043 58.7715 401.254 57.7269 399.476 56.7269L400.497 54.921C402.291 55.9312 404.101 56.9865 405.876 58.0579L404.8 59.8321ZM210.296 53.7697L209.333 51.9332C211.166 50.9761 213.036 50.0346 214.894 49.1354L215.8 51.0003C213.961 51.8892 212.109 52.8211 210.296 53.7686V53.7697ZM394.058 53.7863C392.241 52.8356 390.389 51.9021 388.552 51.0115L389.459 49.1434C391.316 50.0431 393.187 50.9863 395.022 51.9466L394.058 53.7863ZM221.388 48.3993L220.54 46.5071C222.43 45.6626 224.355 44.838 226.262 44.0553L227.052 45.9727C225.162 46.7474 223.257 47.564 221.388 48.3993ZM382.965 48.4063C381.093 47.5688 379.187 46.7512 377.297 45.9754L378.087 44.0579C379.996 44.8418 381.923 45.6674 383.814 46.514L382.965 48.4063ZM232.786 43.7248L232.055 41.7837C233.993 41.0584 235.965 40.3539 237.918 39.6914L238.586 41.6539C236.654 42.3068 234.702 43.0037 232.786 43.7248ZM371.556 43.7248C369.636 43.0048 367.682 42.3073 365.747 41.6501L366.416 39.6871C368.37 40.3513 370.346 41.0562 372.285 41.7837L371.556 43.7248ZM244.449 39.7606L243.841 37.7787C245.817 37.1746 247.829 36.5947 249.822 36.0539L250.366 38.055C248.395 38.5899 246.404 39.1645 244.449 39.7606ZM359.876 39.7547C357.917 39.157 355.922 38.5819 353.948 38.0465L354.492 36.0458C356.487 36.5872 358.503 37.1677 360.483 37.7718L359.876 39.7547ZM256.333 36.5357L255.849 34.5195C257.859 34.0404 259.903 33.5871 261.924 33.1724L262.342 35.203C260.346 35.6118 258.322 36.0603 256.333 36.5357ZM347.967 36.526C345.976 36.0528 343.949 35.6038 341.942 35.1928L342.359 33.1622C344.387 33.5774 346.436 34.0308 348.449 34.5093L347.967 36.526ZM268.393 34.0581L268.038 32.0157C270.071 31.6637 272.138 31.3391 274.183 31.05L274.473 33.1031C272.45 33.388 270.404 33.7094 268.393 34.057V34.0581ZM335.877 34.0485C333.857 33.7003 331.805 33.3794 329.778 33.0951L330.067 31.0419C332.115 31.3295 334.189 31.6535 336.23 32.0076L335.877 34.0485ZM280.58 32.3397L280.354 30.279C282.408 30.0547 284.492 29.86 286.546 29.7007L286.707 31.7673C284.674 31.925 282.612 32.1181 280.58 32.3397ZM323.649 32.3317C321.617 32.1112 319.548 31.9191 317.501 31.7608L317.662 29.6937C319.731 29.8546 321.821 30.0472 323.876 30.271L323.649 32.3317ZM292.848 31.3853L292.75 29.3144C294.815 29.2183 296.91 29.1534 298.977 29.1212L299.009 31.1943C296.963 31.2243 294.89 31.2903 292.848 31.3853ZM311.336 31.3815C309.379 31.2914 307.39 31.2291 305.425 31.197L305.174 31.1927L305.208 29.1196L305.459 29.1239C307.447 29.1566 309.455 29.2194 311.432 29.3106L311.336 31.3815Z" fill="#065366"/>
<path d="M450.044 96.7913C449.343 96.0331 448.637 95.2802 447.926 94.5327L449.43 93.1045C450.149 93.8595 450.862 94.6196 451.57 95.3846L450.044 96.7913Z" fill="#065366"/>
<path d="M497.741 105.634H385.734C377.157 105.634 370.203 112.576 370.203 121.14V362.996C370.203 371.56 377.157 378.503 385.734 378.503H497.741C506.319 378.503 513.272 371.56 513.272 362.996V121.14C513.272 112.576 506.319 105.634 497.741 105.634Z" fill="white"/>
<path d="M497.743 382H385.733C380.687 381.994 375.849 379.99 372.28 376.427C368.712 372.865 366.705 368.034 366.699 362.996V121.142C366.705 116.103 368.712 111.273 372.28 107.71C375.849 104.147 380.687 102.143 385.733 102.137H497.743C502.789 102.144 507.626 104.148 511.194 107.711C514.762 111.274 516.769 116.104 516.775 121.142V362.996C516.769 368.034 514.762 372.864 511.194 376.427C507.626 379.989 502.789 381.993 497.743 382ZM385.733 109.131C382.544 109.135 379.487 110.401 377.232 112.653C374.977 114.905 373.709 117.958 373.706 121.142V362.996C373.709 366.18 374.977 369.232 377.232 371.483C379.487 373.735 382.544 375.001 385.733 375.004H497.743C500.931 375 503.988 373.734 506.242 371.482C508.496 369.231 509.764 366.179 509.768 362.996V121.142C509.765 117.958 508.497 114.906 506.243 112.654C503.988 110.402 500.932 109.135 497.743 109.131H385.733Z" fill="#DEE8F5"/>
<path d="M417.211 105.633H466.26V115.133C466.26 117.019 465.51 118.828 464.174 120.162C462.838 121.495 461.026 122.245 459.137 122.245H424.334C422.445 122.245 420.633 121.495 419.297 120.162C417.961 118.828 417.211 117.019 417.211 115.133V105.631V105.633Z" fill="#DEE8F5"/>
<path d="M487.172 300.225L487.13 263.38C487.143 263.156 487.11 262.932 487.031 262.723C486.951 262.513 486.829 262.322 486.671 262.164C486.512 262.005 486.322 261.881 486.113 261.801C485.903 261.721 485.679 261.686 485.455 261.698L441.737 261.74L398.02 261.698C397.796 261.686 397.572 261.721 397.362 261.801C397.153 261.881 396.963 262.005 396.804 262.164C396.646 262.323 396.524 262.513 396.444 262.723C396.365 262.932 396.332 263.156 396.345 263.38L396.303 300.225L396.3 305.726C396.286 305.95 396.321 306.175 396.4 306.384C396.48 306.594 396.603 306.785 396.762 306.944C396.921 307.103 397.111 307.227 397.321 307.307C397.531 307.387 397.755 307.423 397.98 307.41L405.656 307.418L431.348 307.443L431.352 307.46L441.737 307.452L452.123 307.46L452.127 307.443L477.819 307.415L485.495 307.407C485.719 307.419 485.944 307.384 486.154 307.303C486.364 307.223 486.554 307.099 486.713 306.94C486.872 306.781 486.995 306.591 487.075 306.381C487.154 306.171 487.189 305.947 487.176 305.722L487.172 300.225Z" fill="#E3A924"/>
<path opacity="0.47" d="M482.109 273.417C480.333 273.413 478.631 272.708 477.374 271.456C476.116 270.205 475.405 268.507 475.396 266.734L441.738 266.763L408.08 266.734C408.071 268.507 407.36 270.205 406.103 271.456C404.845 272.708 403.143 273.413 401.367 273.417L401.344 295.691C402.104 295.691 402.859 295.822 403.575 296.079C404.428 296.383 405.211 296.855 405.878 297.467C406.545 298.079 407.082 298.818 407.458 299.641C407.854 300.505 408.056 301.446 408.049 302.397L429.972 302.416L429.977 302.435L441.737 302.426L453.496 302.435L453.502 302.416L475.425 302.397C475.419 301.446 475.62 300.506 476.016 299.641C476.392 298.818 476.929 298.079 477.596 297.467C478.263 296.855 479.046 296.383 479.899 296.079C480.615 295.822 481.37 295.691 482.13 295.691L482.109 273.417Z" fill="white"/>
<path d="M415.106 288.67C417.421 288.67 419.298 286.796 419.298 284.485C419.298 282.173 417.421 280.299 415.106 280.299C412.791 280.299 410.914 282.173 410.914 284.485C410.914 286.796 412.791 288.67 415.106 288.67Z" fill="#E3A924"/>
<path d="M468.371 288.67C470.687 288.67 472.563 286.796 472.563 284.485C472.563 282.173 470.687 280.299 468.371 280.299C466.056 280.299 464.18 282.173 464.18 284.485C464.18 286.796 466.056 288.67 468.371 288.67Z" fill="#E3A924"/>
<path d="M449.128 272.159C451.173 273.332 452.888 275.002 454.114 277.014C455.339 279.026 456.035 281.315 456.138 283.667C456.2 285.977 456.138 288.67 453.697 292.584C452.429 294.526 450.679 296.105 448.616 297.169C447.748 297.647 446.829 298.027 445.876 298.3C444.534 298.705 443.14 298.909 441.738 298.905C439.203 298.905 436.713 298.237 434.52 296.968C432.327 295.699 430.508 293.874 429.248 291.678C427.991 289.524 427.328 287.076 427.325 284.582C427.319 284.555 427.325 284.529 427.32 284.503C427.329 280.685 428.854 277.026 431.56 274.328C434.266 271.63 437.933 270.114 441.758 270.111C442.018 270.117 442.277 270.122 442.534 270.14C444.866 270.252 447.133 270.947 449.128 272.159Z" fill="#E3A924"/>
<path d="M440.865 293.417V291.299C440.19 291.214 439.53 291.039 438.903 290.778C438.252 290.524 437.652 290.154 437.133 289.686L438.492 287.59C438.964 287.962 439.48 288.271 440.03 288.513C440.502 288.715 441.011 288.82 441.525 288.821C441.989 288.861 442.451 288.733 442.83 288.462C442.975 288.32 443.088 288.148 443.16 287.958C443.231 287.768 443.26 287.564 443.244 287.361C443.247 287.185 443.211 287.011 443.14 286.85C443.069 286.689 442.963 286.545 442.831 286.429C442.515 286.146 442.166 285.9 441.792 285.698C441.375 285.464 440.927 285.232 440.449 285C439.972 284.769 439.522 284.488 439.105 284.162C438.695 283.844 438.343 283.457 438.067 283.018C437.779 282.531 437.636 281.973 437.655 281.408C437.62 280.469 437.925 279.548 438.514 278.814C439.123 278.11 439.96 277.643 440.879 277.493V275.312H442.937V277.451C443.566 277.533 444.172 277.743 444.718 278.066C445.226 278.377 445.689 278.755 446.096 279.19L444.525 280.968C444.196 280.653 443.825 280.385 443.422 280.173C443.046 279.99 442.632 279.898 442.213 279.905C441.8 279.876 441.389 279.988 441.046 280.222C440.903 280.351 440.792 280.512 440.721 280.692C440.651 280.872 440.624 281.066 440.642 281.259C440.641 281.424 440.678 281.587 440.749 281.736C440.821 281.884 440.926 282.015 441.055 282.117C441.375 282.379 441.723 282.603 442.094 282.785C442.511 282.997 442.96 283.217 443.441 283.443C443.918 283.668 444.368 283.945 444.784 284.27C445.2 284.594 445.552 284.993 445.823 285.446C446.113 285.966 446.256 286.556 446.235 287.152C446.259 288.091 445.967 289.012 445.405 289.766C444.782 290.536 443.899 291.051 442.922 291.215V293.418L440.865 293.417Z" fill="white"/>
<path d="M96.6729 378.502H208.68C217.258 378.502 224.211 371.56 224.211 362.996L224.211 121.14C224.211 112.576 217.258 105.634 208.68 105.634H96.6729C88.0954 105.634 81.142 112.576 81.142 121.14L81.142 362.996C81.142 371.56 88.0954 378.502 96.6729 378.502Z" fill="white"/>
<path d="M77.6367 362.996V121.142C77.642 116.103 79.6488 111.273 83.2169 107.709C86.785 104.146 91.623 102.142 96.6694 102.136H208.678C213.725 102.142 218.563 104.146 222.132 107.709C225.7 111.272 227.707 116.103 227.712 121.142V362.996C227.706 368.035 225.699 372.865 222.131 376.428C218.563 379.99 213.725 381.994 208.678 382H96.6694C91.6233 381.994 86.7856 379.99 83.2175 376.427C79.6494 372.865 77.6424 368.034 77.6367 362.996ZM96.6694 109.131C93.4805 109.135 90.4234 110.402 88.1688 112.654C85.9142 114.905 84.6463 117.958 84.6431 121.142V362.996C84.6467 366.18 85.9149 369.232 88.1694 371.483C90.424 373.734 93.4809 375.001 96.6694 375.005H208.678C211.867 375.001 214.924 373.735 217.179 371.484C219.434 369.232 220.702 366.18 220.706 362.996V121.142C220.702 117.958 219.434 114.906 217.179 112.654C214.924 110.403 211.867 109.136 208.678 109.133L96.6694 109.131Z" fill="#DEE8F5"/>
<path d="M170.076 122.247H135.273C133.384 122.247 131.573 121.498 130.237 120.164C128.901 118.83 128.15 117.021 128.15 115.135V105.634H177.199V115.135C177.199 117.021 176.449 118.83 175.113 120.164C173.777 121.498 171.965 122.247 170.076 122.247Z" fill="#DEE8F5"/>
<path d="M181.999 152.216H123.346C119.218 152.216 115.871 155.557 115.871 159.679V177.656C115.871 181.778 119.218 185.119 123.346 185.119H181.999C186.127 185.119 189.473 181.778 189.473 177.656V159.679C189.473 155.557 186.127 152.216 181.999 152.216Z" fill="#262626"/>
<path d="M204.243 224.78H101.101C97.6668 224.78 94.8828 227.56 94.8828 230.989V289.32C94.8828 292.749 97.6668 295.529 101.101 295.529H204.243C207.677 295.529 210.461 292.749 210.461 289.32V230.989C210.461 227.56 207.677 224.78 204.243 224.78Z" fill="#A0B73E"/>
<path d="M118.607 234.341H107.83C105.967 234.341 104.457 235.849 104.457 237.709V243.976C104.457 245.836 105.967 247.344 107.83 247.344H118.607C120.47 247.344 121.98 245.836 121.98 243.976V237.709C121.98 235.849 120.47 234.341 118.607 234.341Z" fill="white"/>
<path d="M121.981 235.783V238.834H116.044L115.086 237.878V234.343H120.536C120.919 234.343 121.286 234.495 121.557 234.765C121.828 235.035 121.98 235.401 121.981 235.783Z" fill="#262626"/>
<path d="M121.981 242.85V245.901C121.981 246.091 121.943 246.278 121.871 246.453C121.798 246.628 121.692 246.787 121.558 246.921C121.424 247.055 121.264 247.161 121.089 247.234C120.914 247.306 120.726 247.343 120.536 247.343H115.086V243.711L116.044 242.852L121.981 242.85Z" fill="#262626"/>
<path d="M111.256 234.344V237.881L110.396 238.837H104.457V235.786C104.457 235.596 104.494 235.409 104.567 235.234C104.639 235.059 104.746 234.9 104.88 234.766C105.014 234.632 105.173 234.526 105.349 234.453C105.524 234.381 105.712 234.344 105.901 234.344H111.256Z" fill="#262626"/>
<path d="M111.256 243.711V247.343H105.901C105.712 247.343 105.524 247.306 105.349 247.234C105.173 247.161 105.014 247.055 104.88 246.921C104.746 246.787 104.639 246.628 104.567 246.453C104.494 246.278 104.457 246.091 104.457 245.901V242.85H110.394L111.256 243.711Z" fill="#262626"/>
<path d="M124.076 259.49H105.943C105.549 259.49 105.171 259.334 104.892 259.055C104.614 258.777 104.457 258.399 104.457 258.006C104.457 257.612 104.614 257.235 104.892 256.957C105.171 256.678 105.549 256.522 105.943 256.522H124.076C124.47 256.522 124.848 256.678 125.127 256.957C125.406 257.235 125.562 257.612 125.562 258.006C125.562 258.399 125.406 258.777 125.127 259.055C124.848 259.334 124.47 259.49 124.076 259.49Z" fill="white"/>
<path d="M149.592 259.49H131.459C131.065 259.49 130.687 259.334 130.408 259.055C130.129 258.777 129.973 258.399 129.973 258.006C129.973 257.612 130.129 257.235 130.408 256.957C130.687 256.678 131.065 256.522 131.459 256.522H149.592C149.986 256.522 150.364 256.678 150.643 256.957C150.921 257.235 151.078 257.612 151.078 258.006C151.078 258.399 150.921 258.777 150.643 259.055C150.364 259.334 149.986 259.49 149.592 259.49Z" fill="white"/>
<path d="M175.108 259.49H156.975C156.58 259.49 156.202 259.334 155.924 259.055C155.645 258.777 155.488 258.399 155.488 258.006C155.488 257.612 155.645 257.235 155.924 256.957C156.202 256.678 156.58 256.522 156.975 256.522H175.108C175.502 256.522 175.88 256.678 176.159 256.957C176.437 257.235 176.594 257.612 176.594 258.006C176.594 258.399 176.437 258.777 176.159 259.055C175.88 259.334 175.502 259.49 175.108 259.49Z" fill="white"/>
<path d="M200.62 259.49H182.486C182.092 259.49 181.714 259.334 181.435 259.055C181.157 258.777 181 258.399 181 258.006C181 257.612 181.157 257.235 181.435 256.957C181.714 256.678 182.092 256.522 182.486 256.522H200.62C201.014 256.522 201.392 256.678 201.67 256.957C201.949 257.235 202.106 257.612 202.106 258.006C202.106 258.399 201.949 258.777 201.67 259.055C201.392 259.334 201.014 259.49 200.62 259.49Z" fill="white"/>
<path d="M200.884 275.546C200.867 277.564 200.052 279.493 198.617 280.914C197.183 282.334 195.244 283.131 193.223 283.131C191.202 283.131 189.264 282.334 187.829 280.914C186.394 279.493 185.579 277.564 185.562 275.546C185.564 274.406 185.823 273.281 186.32 272.255C186.817 271.229 187.54 270.328 188.435 269.619C189.554 268.705 190.911 268.127 192.347 267.953C193.782 267.78 195.238 268.017 196.543 268.639C197.849 269.26 198.95 270.24 199.719 271.463C200.487 272.686 200.891 274.103 200.884 275.546Z" fill="white"/>
<path d="M184.607 281.475C183.484 282.389 182.124 282.967 180.686 283.14C179.247 283.314 177.789 283.077 176.48 282.456C175.171 281.835 174.065 280.857 173.291 279.634C172.516 278.411 172.105 276.994 172.105 275.547C172.105 274.1 172.516 272.683 173.291 271.46C174.065 270.237 175.171 269.258 176.48 268.638C177.789 268.017 179.247 267.78 180.686 267.953C182.124 268.127 183.484 268.704 184.607 269.619C183.72 270.334 183.003 271.237 182.506 272.262C182.009 273.286 181.746 274.408 181.735 275.547C181.736 276.687 181.994 277.813 182.492 278.839C182.989 279.866 183.712 280.767 184.607 281.475Z" fill="#262626"/>
<path d="M58.7734 159.404C58.7734 159.404 63.0948 157.551 63.0948 146.217L71.7809 145.333C71.7809 145.333 69.9905 155.348 74.056 158.906L58.7734 159.404Z" fill="#E98862"/>
<path d="M58.6004 141.453C58.9121 144.918 60.5134 148.305 63.4408 149.656C66.6233 151.229 70.143 152 73.6928 151.903C83.1221 151.903 83.0158 130.487 78.9078 125.993C74.7998 121.499 61.5343 123.045 59.3796 129.824C58.2651 133.329 58.3033 138.156 58.6004 141.453Z" fill="#E98862"/>
<path d="M78.4129 134.691C80.2436 134.677 82.0705 134.524 83.8777 134.232C83.8777 134.232 83.3243 120.325 68.5317 121.118C66.6108 121.03 64.6859 121.144 62.7886 121.456C58.3426 122.137 52.0417 126.676 51.0208 138.034C50.5543 143.245 48.7548 148.157 47.3824 151.267C47.2201 151.632 47.1517 152.032 47.1833 152.43C47.2149 152.828 47.3457 153.212 47.5636 153.547C47.7815 153.882 48.0798 154.157 48.4312 154.348C48.7827 154.539 49.1764 154.639 49.5764 154.639L81.2684 154.389C81.6432 154.389 82.0129 154.302 82.3479 154.134C82.6829 153.966 82.9738 153.722 83.1974 153.422C83.421 153.121 83.5711 152.773 83.6356 152.404C83.7001 152.036 83.6772 151.657 83.5688 151.299C81.8455 145.597 78.6929 142.104 78.4129 134.691Z" fill="#0F1011"/>
<path d="M88.6931 234.049C99.4137 281.201 109.12 328.669 116.781 376.418L106.013 378.63C94.1746 331.74 84.3261 284.299 75.5352 236.751L88.6931 234.049Z" fill="#E98862"/>
<path d="M66.5316 236.972C67.516 283.816 67.4451 330.764 65.3119 377.575H54.3178C52.1856 330.764 52.1147 283.815 53.098 236.972H66.5316Z" fill="#E98862"/>
<path d="M79.5368 381.9C79.8403 381.899 80.1402 381.835 80.4178 381.712C80.6955 381.59 80.9448 381.412 81.1504 381.189C81.3559 380.966 81.5132 380.703 81.6124 380.417C81.7116 380.13 81.7506 379.826 81.727 379.524C81.6943 379.106 81.5425 378.705 81.2895 378.37C81.0365 378.034 80.6927 377.778 80.2987 377.631L67.1666 373.239C66.9122 373.155 66.6426 373.127 66.3762 373.156C66.1098 373.186 65.853 373.273 65.6233 373.41C63.8178 374.662 61.6578 375.301 59.4611 375.235C57.7503 375.113 56.108 374.514 54.7217 373.506C54.5998 373.406 54.452 373.343 54.2956 373.324C54.1391 373.305 53.9805 373.33 53.8381 373.398C53.6957 373.465 53.5755 373.572 53.4914 373.705C53.4073 373.838 53.3629 373.992 53.3633 374.15V380.562C53.3631 380.751 53.4004 380.939 53.473 381.113C53.5456 381.288 53.6521 381.447 53.7863 381.581C53.9205 381.714 54.0798 381.82 54.2551 381.892C54.4304 381.964 54.6182 382 54.8077 382L79.5368 381.9Z" fill="#065366"/>
<path d="M129.902 381.9C130.206 381.899 130.506 381.835 130.783 381.712C131.061 381.59 131.31 381.412 131.516 381.189C131.721 380.966 131.878 380.703 131.978 380.417C132.077 380.13 132.116 379.827 132.092 379.524C132.06 379.106 131.908 378.705 131.655 378.37C131.401 378.034 131.058 377.778 130.664 377.631L117.53 373.239C117.275 373.155 117.006 373.127 116.739 373.156C116.473 373.186 116.216 373.273 115.986 373.41C114.181 374.661 112.021 375.301 109.824 375.235C108.113 375.113 106.471 374.514 105.084 373.506C104.963 373.406 104.815 373.343 104.658 373.324C104.502 373.305 104.343 373.33 104.201 373.398C104.059 373.465 103.938 373.572 103.854 373.705C103.77 373.838 103.726 373.992 103.727 374.15V380.562C103.726 380.751 103.764 380.939 103.837 381.113C103.909 381.288 104.016 381.447 104.15 381.58C104.284 381.714 104.444 381.819 104.619 381.891C104.794 381.963 104.982 382 105.171 381.999L129.902 381.9Z" fill="#065366"/>
<path d="M46.2891 216.746C46.2891 216.746 40.1849 244.039 40.1849 266.991C40.1849 289.944 33.1758 325.495 33.1758 325.495C33.1758 325.495 53.0398 322.286 66.5153 325.495C89.7339 331.021 110.552 318.984 110.552 318.984L87.1687 219.268L46.2891 216.746Z" fill="#262626"/>
<path d="M33.7421 235.321C33.7421 236.92 34.5873 242.265 33.2278 242.647C32.4121 242.876 31.4492 238.891 31.4492 238.891" fill="#E98862"/>
<path d="M27.3204 234.482C27.3204 234.482 22.8798 245.273 27.9448 251.472C28.0739 251.63 28.2478 251.745 28.4435 251.802C28.6392 251.86 28.8478 251.857 29.042 251.795C29.2361 251.732 29.4069 251.612 29.5319 251.451C29.6569 251.29 29.7304 251.095 29.7427 250.892C29.9888 246.712 30.8335 238.123 33.5933 239.129V232.389" fill="#E98862"/>
<path d="M87.6619 188.383C87.4598 190.402 87.3131 192.385 87.2911 194.281C87.0848 211.7 91.7951 214.981 89.4743 220.306C87.2175 225.47 42.9812 227.618 42.3901 218.527C42.014 212.745 47.1187 207.695 47.1187 196.426C47.0758 194.284 46.7923 192.154 46.2735 190.075L41.2923 203.599L36.4025 236.486L24.8125 234.769L29.791 201.284C29.8507 200.889 29.951 200.501 30.0903 200.126L42.424 166.64L42.4981 166.667C43.0341 165.019 43.9593 163.523 45.1956 162.306C47.6507 159.855 51.9016 158.269 57.0795 158.269C64.7871 158.269 75.3143 158.285 77.4717 158.376C83.7801 158.644 86.8725 161.359 88.2309 165.41C88.2309 165.413 88.9295 173.346 87.6619 188.383Z" fill="#E3A924"/>
<path d="M132.709 183.567C132.709 183.567 140.36 181.524 141.468 180.079C142.575 178.635 139.957 173.708 139.957 173.708C139.957 173.708 147.617 170.659 146.893 169.421C146.039 167.96 136.465 173.075 136.465 173.075C136.465 173.075 138.56 170.648 137.551 169.993C137.137 169.724 136.591 170.008 135.026 171.689C133.243 173.605 130.168 176.317 130.168 176.317L132.709 183.567Z" fill="#E98862"/>
<path d="M100.935 206.098C99.8929 206.098 98.8695 205.82 97.9705 205.293C97.0715 204.767 96.3293 204.01 95.8202 203.102L76.4141 168.42L86.6424 162.714L102.03 191.824L129.33 174.971L135.098 184.406C135.098 184.406 113.542 199.209 106.686 203.296C105.242 204.158 102.598 206.098 100.935 206.098Z" fill="#E3A924"/>
<path d="M302.15 60.5011C318.883 60.5011 332.448 46.9575 332.448 30.2506C332.448 13.5436 318.883 0 302.15 0C285.416 0 271.852 13.5436 271.852 30.2506C271.852 46.9575 285.416 60.5011 302.15 60.5011Z" fill="#F3F5FD"/>
<path d="M313.876 24.8936H312.206V21.1686C312.216 19.844 311.963 18.5306 311.462 17.304C310.961 16.0774 310.222 14.9619 309.287 14.0218C308.352 13.0817 307.241 12.3356 306.016 11.8265C304.791 11.3173 303.477 11.0552 302.151 11.0552C300.824 11.0552 299.51 11.3173 298.285 11.8265C297.061 12.3356 295.949 13.0817 295.014 14.0218C294.079 14.9619 293.34 16.0774 292.839 17.304C292.338 18.5306 292.085 19.844 292.095 21.1686V24.8936H290.425C290.047 24.8935 289.673 24.9678 289.323 25.1121C288.974 25.2565 288.657 25.4682 288.39 25.735C288.122 26.0019 287.91 26.3187 287.766 26.6673C287.621 27.016 287.547 27.3897 287.547 27.7671V46.499C287.547 46.8763 287.621 47.25 287.766 47.5987C287.91 47.9473 288.122 48.2641 288.39 48.531C288.657 48.7978 288.974 49.0095 289.323 49.1539C289.673 49.2982 290.047 49.3725 290.425 49.3725H313.876C314.64 49.3725 315.372 49.0697 315.911 48.5308C316.451 47.9919 316.754 47.2611 316.754 46.499V27.7671C316.754 27.3897 316.68 27.016 316.535 26.6674C316.391 26.3188 316.179 26.002 315.911 25.7352C315.644 25.4684 315.327 25.2567 314.978 25.1123C314.628 24.9679 314.254 24.8936 313.876 24.8936ZM295.364 21.1686C295.364 19.3715 296.079 17.648 297.351 16.3773C298.624 15.1065 300.35 14.3926 302.15 14.3926C303.95 14.3926 305.676 15.1065 306.949 16.3773C308.222 17.648 308.937 19.3715 308.937 21.1686V24.8936H295.364V21.1686Z" fill="#A0B73E"/>
<path d="M302.149 41.4837C304.449 41.4837 306.313 39.6222 306.313 37.3258C306.313 35.0295 304.449 33.168 302.149 33.168C299.849 33.168 297.984 35.0295 297.984 37.3258C297.984 39.6222 299.849 41.4837 302.149 41.4837Z" fill="white"/>
<path d="M441.737 238.459C466.365 238.459 486.33 218.525 486.33 193.936C486.33 169.347 466.365 149.414 441.737 149.414C417.109 149.414 397.145 169.347 397.145 193.936C397.145 218.525 417.109 238.459 441.737 238.459Z" fill="#065366"/>
<path d="M434.092 218.245C433.163 218.244 432.269 217.89 431.593 217.253L414.654 201.295C414.295 200.97 414.004 200.577 413.799 200.139C413.594 199.7 413.479 199.226 413.46 198.742C413.441 198.259 413.519 197.777 413.689 197.324C413.859 196.871 414.117 196.456 414.45 196.104C414.782 195.752 415.182 195.47 415.625 195.274C416.068 195.078 416.545 194.973 417.03 194.964C417.514 194.954 417.996 195.042 418.446 195.221C418.896 195.399 419.306 195.666 419.651 196.005L433.891 209.418L463.627 176.702C464.276 175.988 465.183 175.56 466.148 175.514C467.112 175.467 468.056 175.805 468.771 176.453C469.487 177.101 469.915 178.006 469.962 178.969C470.008 179.932 469.67 180.875 469.021 181.589L436.789 217.052C436.464 217.41 436.07 217.699 435.632 217.903C435.193 218.108 434.718 218.223 434.234 218.241C434.186 218.244 434.139 218.245 434.092 218.245Z" fill="white"/>
<path d="M524.792 377.543C524.792 377.543 524.754 365.875 524.754 364.842H536.038C536.038 365.872 536.076 377.506 536.076 377.506L524.792 377.543Z" fill="#E98862"/>
<path d="M511.072 381.9C510.768 381.899 510.469 381.835 510.191 381.712C509.913 381.59 509.664 381.412 509.458 381.189C509.253 380.966 509.096 380.703 508.996 380.417C508.897 380.13 508.858 379.827 508.882 379.524C508.914 379.106 509.066 378.705 509.319 378.37C509.572 378.034 509.916 377.778 510.31 377.631L523.444 373.239C523.699 373.155 523.968 373.127 524.235 373.156C524.501 373.186 524.758 373.273 524.988 373.41C526.793 374.661 528.953 375.301 531.15 375.235C532.861 375.113 534.503 374.514 535.89 373.506C536.011 373.406 536.159 373.343 536.316 373.324C536.472 373.305 536.631 373.33 536.773 373.398C536.916 373.465 537.036 373.572 537.12 373.705C537.204 373.838 537.248 373.992 537.248 374.15V380.562C537.248 380.751 537.21 380.939 537.138 381.113C537.065 381.288 536.958 381.447 536.824 381.58C536.69 381.714 536.53 381.819 536.355 381.891C536.18 381.963 535.992 382 535.803 381.999L511.072 381.9Z" fill="#065366"/>
<path d="M479.826 376.194C478.637 366.205 478.637 365.178 478.637 364.84H489.921C489.921 364.806 489.921 364.762 489.921 364.708C489.961 365.543 490.53 370.629 491.034 374.863L479.826 376.194Z" fill="#E98862"/>
<path d="M519.171 373.672L538.982 372.001C536.568 335.136 529.101 215.992 529.101 215.992L488.222 218.513L487.802 221.373L487.658 221.33C482.865 246.699 480.825 274.719 476.94 300.268C476.666 323.928 476.591 348.71 475.664 372.305L495.546 372.643C495.482 349.612 496.055 325.514 496.734 302.415C500.126 283.994 502.781 264.715 506.683 246.114C510.088 284.421 515.578 337.079 519.171 373.672Z" fill="#262626"/>
<path d="M466.08 381.9C465.776 381.899 465.476 381.835 465.199 381.712C464.921 381.59 464.672 381.412 464.466 381.189C464.261 380.966 464.103 380.703 464.004 380.417C463.905 380.13 463.866 379.826 463.89 379.524C463.922 379.106 464.074 378.705 464.327 378.37C464.58 378.034 464.924 377.778 465.318 377.631L478.452 373.239C478.706 373.155 478.976 373.127 479.242 373.156C479.509 373.186 479.766 373.273 479.995 373.41C481.801 374.662 483.961 375.301 486.158 375.235C487.868 375.113 489.511 374.514 490.897 373.506C491.019 373.406 491.167 373.343 491.323 373.324C491.48 373.305 491.638 373.33 491.781 373.398C491.923 373.465 492.043 373.572 492.127 373.705C492.211 373.838 492.256 373.992 492.255 374.15V380.562C492.255 380.751 492.218 380.938 492.145 381.113C492.073 381.288 491.966 381.446 491.832 381.58C491.698 381.713 491.538 381.819 491.363 381.891C491.188 381.963 491 382 490.81 381.999L466.08 381.9Z" fill="#065366"/>
<path d="M512.501 150.932C512.494 150.878 512.492 150.825 512.491 150.771C512.463 149.795 512.471 148.738 512.535 147.577L503.913 146.225C504.101 148.029 504.133 149.845 504.007 151.654C503.983 151.965 503.954 152.283 503.921 152.606C503.624 155.239 502.859 158.025 501.047 159.546L514.475 159.171C513.585 157.717 512.648 155.194 512.501 150.932Z" fill="#E98862"/>
<path d="M517.281 143.058C516.784 146.501 515.003 149.798 512.008 150.99C508.452 152.405 505.792 152.568 501.649 152.685C495.996 152.846 496.017 146.952 495.691 141.024C495.363 135.073 495.657 128.671 497.833 126.533C502.176 122.265 515.34 124.519 517.128 131.404C518.051 134.964 517.755 139.781 517.281 143.058Z" fill="#E98862"/>
<path d="M492.352 130.133C492.352 130.133 490.022 129.682 490.591 127.359C490.967 125.819 492.94 126.103 492.94 126.103C492.94 126.103 491.073 125.815 491.027 124.197C490.998 123.177 491.734 121.426 494.131 122.347C496.942 123.428 500.108 123.19 502.506 122.718C503.861 122.381 505.239 122.147 506.629 122.017H506.636C508.237 121.945 509.839 122.113 511.389 122.516C515.733 123.682 522.462 127.369 521.222 136.137C519.882 145.613 514.245 149.92 513.471 150.515C512.014 151.637 502.872 152.114 501.941 151.234C500.543 149.918 499.652 144.492 499.661 134.996C495.895 134.509 493.312 134.329 493.312 134.329C493.312 134.329 490.196 134.533 490.134 132.26C490.072 129.986 492.352 130.133 492.352 130.133Z" fill="#0F1011"/>
<path d="M497.123 142.11C497.097 142.544 497.156 142.979 497.299 143.39C497.441 143.801 497.664 144.18 497.954 144.505C498.244 144.829 498.595 145.094 498.988 145.282C499.38 145.471 499.806 145.58 500.241 145.603C500.676 145.626 501.112 145.563 501.522 145.418C501.933 145.272 502.31 145.047 502.633 144.755C502.956 144.463 503.218 144.111 503.404 143.717C503.59 143.324 503.696 142.898 503.716 142.463C503.746 142.029 503.689 141.594 503.548 141.183C503.407 140.772 503.184 140.393 502.893 140.07C502.603 139.746 502.25 139.485 501.855 139.3C501.461 139.116 501.034 139.012 500.599 138.996C498.243 138.985 497.221 140.295 497.123 142.11Z" fill="#E98862"/>
<path d="M544.601 240.03L538.182 240.869C538.182 242.468 537.336 247.813 538.696 248.195C539.213 248.34 539.788 246.794 540.141 245.642C541.493 247.916 541.998 253.367 542.179 256.441C542.191 256.644 542.265 256.839 542.39 257C542.515 257.161 542.686 257.281 542.88 257.343C543.074 257.406 543.283 257.409 543.478 257.351C543.674 257.294 543.848 257.178 543.977 257.021C549.042 250.823 544.601 240.03 544.601 240.03Z" fill="#E98862"/>
<path d="M487.586 194.281C487.412 179.403 479.58 159.14 497.406 158.378C499.563 158.285 510.091 158.271 517.798 158.271C522.976 158.271 527.227 159.857 529.682 162.309C538.146 170.759 527.757 185.159 527.757 196.43C527.757 207.701 532.862 212.749 532.486 218.531C531.895 227.623 487.656 225.475 485.402 220.311C483.081 214.981 487.792 211.7 487.586 194.281Z" fill="#E3A924"/>
<path d="M536.337 242.691L531.91 201.417L520.234 168.894L531.263 164.947L543.175 198.127C543.332 198.563 543.436 199.016 543.485 199.478L547.987 241.445L536.337 242.691Z" fill="#E3A924"/>
<path d="M441.022 180.29C441.532 179.228 442.119 177.608 441.398 176.886C440.659 176.147 439.423 177.902 438.666 179.184C436.929 178.451 434.986 177.838 434.376 178.447C433.194 179.628 431.783 183.604 432.484 185.493C433.184 187.382 440.168 187.724 440.168 187.724L442.478 180.664C441.98 180.595 441.492 180.47 441.022 180.29Z" fill="#E98862"/>
<path d="M469.957 198.69C469.397 198.69 468.839 198.609 468.301 198.451L438.957 189.813L442.269 178.592L467.946 186.149L488.741 161.54L497.697 169.083L474.435 196.61C473.885 197.261 473.2 197.785 472.426 198.144C471.653 198.503 470.81 198.69 469.957 198.69Z" fill="#E3A924"/>
<path d="M146.152 176.302L148.102 173.283C149.647 174.464 150.999 175.069 152.437 175.069C154.159 175.069 154.917 174.355 154.917 172.976C154.917 169.853 146.893 169.91 146.893 164.433C146.893 160.912 149.336 158.669 153.188 158.669C154.282 158.653 155.366 158.875 156.365 159.32C157.365 159.765 158.255 160.421 158.975 161.244L156.739 163.802C155.634 162.798 154.697 162.27 153.427 162.27C151.965 162.27 151.171 162.86 151.171 164.222C151.171 167.117 159.195 166.864 159.195 172.666C159.195 176.153 156.885 178.675 152.436 178.675C150.132 178.621 147.915 177.784 146.152 176.302ZM151.499 155.691H154.465V160.063H151.499V155.691ZM151.499 176.847H154.465V181.644H151.499V176.847Z" fill="white"/>
</g>
<defs>
<clipPath id="clip0_776_4866">
<rect width="624" height="382" fill="white"/>
</clipPath>
</defs>
</svg>
