<svg width="260" height="250" viewBox="0 0 260 250" fill="none" xmlns="http://www.w3.org/2000/svg">
<g clip-path="url(#clip0_776_4516)">
<path d="M221.645 3.72998H177.125V61.7696H221.645V3.72998Z" fill="#EFF0F1"/>
<path d="M221.646 61.77H223.09V3.73039H221.646V61.77Z" fill="#EFF0F1"/>
<path opacity="0.05" d="M221.646 61.77H223.09V3.73039H221.646V61.77Z" fill="#292A2E"/>
<path opacity="0.05" d="M213.535 14.3027H185.234V51.1972H213.535V14.3027Z" fill="#292A2E"/>
<path opacity="0.03" d="M213.533 14.3027H212.059V51.1972H213.533V14.3027Z" fill="#292A2E"/>
<path d="M258.055 76.043H221.645V112.845H258.055V76.043Z" fill="#EFF0F1"/>
<path opacity="0.05" d="M251.422 82.7471H228.277V106.141H251.422V82.7471Z" fill="#292A2E"/>
<path d="M258.056 112.845H259.5V76.0427H258.056V112.845Z" fill="#EFF0F1"/>
<path opacity="0.05" d="M258.056 112.845H259.5V76.0427H258.056V112.845Z" fill="#292A2E"/>
<path opacity="0.03" d="M251.424 82.7471H249.949V106.141H251.424V82.7471Z" fill="#292A2E"/>
<path d="M126.621 0H5.33203V121.48H126.621V0Z" fill="#EFF0F1"/>
<path d="M128.011 0H126.621V121.48H128.011V0Z" fill="#EFF0F1"/>
<path opacity="0.05" d="M128.011 0H126.621V121.48H128.011V0Z" fill="#292A2E"/>
<path opacity="0.05" d="M97.2396 83.7099V51.9268H71.2454V70.392H30.9804V103.087H13.8672V121.48H30.9804H34.2773H120.788V83.7099H97.2396Z" fill="#292A2E"/>
<path opacity="0.34" d="M93.5114 55.3774H74.582V58.8283H93.5114V55.3774Z" fill="#FFFFFA"/>
<path opacity="0.34" d="M93.5114 62.5283H74.582V65.9792H93.5114V62.5283Z" fill="#FFFFFA"/>
<path opacity="0.34" d="M93.5114 69.6797H74.582V73.1306H93.5114V69.6797Z" fill="#FFFFFA"/>
<path opacity="0.34" d="M117.43 87.0596H113.941V90.5105H117.43V87.0596Z" fill="#FFFFFA"/>
<path opacity="0.34" d="M117.43 94.2104H113.941V97.6613H117.43V94.2104Z" fill="#FFFFFA"/>
<path opacity="0.34" d="M117.43 101.362H113.941V104.813H117.43V101.362Z" fill="#FFFFFA"/>
<path opacity="0.34" d="M110.977 87.0596H107.488V90.5105H110.977V87.0596Z" fill="#FFFFFA"/>
<path opacity="0.34" d="M110.977 94.2104H107.488V97.6613H110.977V94.2104Z" fill="#FFFFFA"/>
<path opacity="0.34" d="M110.977 101.362H107.488V104.813H110.977V101.362Z" fill="#FFFFFA"/>
<path opacity="0.34" d="M104.696 87.0596H101.207V90.5105H104.696V87.0596Z" fill="#FFFFFA"/>
<path opacity="0.34" d="M104.696 94.2104H101.207V97.6613H104.696V94.2104Z" fill="#FFFFFA"/>
<path opacity="0.34" d="M104.696 101.362H101.207V104.813H104.696V101.362Z" fill="#FFFFFA"/>
<path d="M126.621 60.0587H102.216V0H100.197V60.0587H34.2759V0H32.2574V60.0587H5.33203V62.0804H32.2574V121.48H34.2759V62.0804H100.197V121.48H102.216V62.0804H126.621V60.0587Z" fill="white"/>
<path d="M131.453 121.334H0.5V125.374H131.453V121.334Z" fill="#EFF0F1"/>
<path opacity="0.1" d="M131.453 121.334H0.5V125.374H131.453V121.334Z" fill="#292A2E"/>
<path opacity="0.1" d="M133.344 121.334H131.453V125.374H133.344V121.334Z" fill="#292A2E"/>
<path opacity="0.1" d="M133.344 121.334H131.453V125.374H133.344V121.334Z" fill="#292A2E"/>
<path opacity="0.05" d="M195.48 244.863H188.742V249.369H195.48V244.863Z" fill="#292A2E"/>
<path opacity="0.05" d="M237.777 244.863H231.039V249.369H237.777V244.863Z" fill="#292A2E"/>
<path d="M243.947 176.2H182.562V244.863H243.947V176.2Z" fill="#EFF0F1"/>
<path opacity="0.03" d="M243.947 176.2H182.562V244.863H243.947V176.2Z" fill="#292A2E"/>
<path d="M227.646 176.2H166.262V244.863H227.646V176.2Z" fill="#EFF0F1"/>
<path opacity="0.05" d="M179.175 244.863H172.438V249.369H179.175V244.863Z" fill="#292A2E"/>
<path opacity="0.05" d="M221.472 244.863H214.734V249.369H221.472V244.863Z" fill="#292A2E"/>
<path opacity="0.7" d="M224.342 180.446H169.562V197.86H224.342V180.446Z" fill="white"/>
<path opacity="0.7" d="M224.342 202.123H169.562V219.538H224.342V202.123Z" fill="white"/>
<path opacity="0.7" d="M224.342 223.8H169.562V241.214H224.342V223.8Z" fill="white"/>
<path opacity="0.05" d="M196.953 191.59C198.296 191.59 199.386 190.499 199.386 189.153C199.386 187.807 198.296 186.716 196.953 186.716C195.609 186.716 194.52 187.807 194.52 189.153C194.52 190.499 195.609 191.59 196.953 191.59Z" fill="#292A2E"/>
<path opacity="0.05" d="M196.953 213.267C198.296 213.267 199.386 212.176 199.386 210.83C199.386 209.485 198.296 208.394 196.953 208.394C195.609 208.394 194.52 209.485 194.52 210.83C194.52 212.176 195.609 213.267 196.953 213.267Z" fill="#292A2E"/>
<path opacity="0.05" d="M196.953 234.944C198.296 234.944 199.386 233.853 199.386 232.507C199.386 231.161 198.296 230.07 196.953 230.07C195.609 230.07 194.52 231.161 194.52 232.507C194.52 233.853 195.609 234.944 196.953 234.944Z" fill="#292A2E"/>
<path d="M29.3503 216.014C29.3163 216.014 29.2827 216.007 29.2513 215.994C29.2199 215.981 29.1914 215.962 29.1674 215.938C28.8028 215.573 28.2085 208.874 26.6079 188.928C25.953 180.767 25.3343 173.058 24.8828 168.373C24.8507 168.039 24.7211 168 24.6787 167.987C24.0605 167.8 22.1813 169.284 21.132 170.584C21.0889 170.638 21.0263 170.672 20.958 170.679C20.8897 170.686 20.8214 170.666 20.768 170.623C20.7146 170.58 20.6805 170.517 20.6733 170.449C20.6661 170.38 20.6863 170.312 20.7294 170.258C21.4234 169.399 23.6848 167.146 24.8275 167.491C25.0577 167.56 25.345 167.761 25.3967 168.324C25.8487 173.012 26.4674 180.723 27.1225 188.887C28.0952 201.007 29.1969 214.739 29.5591 215.604C29.5869 215.642 29.6034 215.688 29.607 215.735C29.6105 215.783 29.6009 215.831 29.5792 215.873C29.5574 215.915 29.5245 215.951 29.4839 215.976C29.4433 216.001 29.3966 216.014 29.349 216.014H29.3503Z" fill="#494949"/>
<path d="M24.2195 176.97C28.5131 173.523 29.9362 168.158 27.398 164.986C24.8599 161.815 19.3217 162.038 15.0281 165.486C10.7345 168.933 9.31148 174.298 11.8496 177.469C14.3878 180.641 19.926 180.417 24.2195 176.97Z" fill="#E3A924"/>
<path opacity="0.2" d="M24.2195 176.97C28.5131 173.523 29.9362 168.158 27.398 164.986C24.8599 161.815 19.3217 162.038 15.0281 165.486C10.7345 168.933 9.31148 174.298 11.8496 177.469C14.3878 180.641 19.926 180.417 24.2195 176.97Z" fill="white"/>
<path d="M13.0512 178.276C13.0267 178.276 13.0026 178.269 12.9819 178.256C12.9612 178.242 12.9446 178.224 12.9342 178.201C12.9237 178.179 12.9198 178.154 12.9229 178.13C12.926 178.105 12.936 178.082 12.9516 178.063L25.188 163.284C25.1988 163.271 25.2122 163.26 25.2272 163.252C25.2422 163.244 25.2587 163.239 25.2756 163.238C25.2926 163.236 25.3096 163.238 25.3259 163.243C25.3421 163.248 25.3572 163.256 25.3703 163.267C25.3834 163.278 25.3942 163.291 25.4021 163.306C25.41 163.322 25.4149 163.338 25.4165 163.355C25.4181 163.372 25.4163 163.389 25.4113 163.405C25.4063 163.422 25.3981 163.437 25.3872 163.45L13.1509 178.229C13.1387 178.243 13.1235 178.255 13.1063 178.263C13.0891 178.272 13.0703 178.276 13.0512 178.276Z" fill="white"/>
<path d="M32.0203 212.846C31.9914 212.846 31.9627 212.841 31.9355 212.831C31.8707 212.809 31.8174 212.761 31.7876 212.699C31.7577 212.637 31.7535 212.566 31.7761 212.501L36.3724 199.262C36.5078 198.873 36.7384 198.524 37.0432 198.248C37.3479 197.971 37.7171 197.776 38.1169 197.679C38.5167 197.582 38.9343 197.588 39.3314 197.695C39.7286 197.802 40.0927 198.007 40.3903 198.291L42.8204 200.616C42.8701 200.663 42.8988 200.729 42.9004 200.797C42.902 200.866 42.8762 200.933 42.8288 200.982C42.7814 201.032 42.7162 201.061 42.6476 201.062C42.5789 201.064 42.5125 201.038 42.4628 200.991L40.0329 198.666C39.798 198.441 39.5106 198.279 39.197 198.195C38.8835 198.111 38.5538 198.106 38.2381 198.183C37.9225 198.259 37.6311 198.413 37.3905 198.632C37.1499 198.85 36.9678 199.125 36.861 199.432L32.2649 212.672C32.2472 212.723 32.2142 212.767 32.1704 212.798C32.1265 212.829 32.0741 212.846 32.0203 212.846Z" fill="#494949"/>
<path d="M49.6095 207.945C52.7914 205.422 52.6023 199.874 49.1871 195.553C45.7719 191.231 40.4238 189.773 37.2419 192.296C34.0599 194.818 34.249 200.367 37.6643 204.688C41.0795 209.009 46.4275 210.468 49.6095 207.945Z" fill="#E3A924"/>
<path d="M27.2626 215.169C27.2045 215.169 27.1481 215.15 27.1024 215.114C27.0568 215.078 27.0246 215.027 27.0111 214.971L19.2976 182.668C19.2449 182.448 19.1325 182.247 18.973 182.087C18.8134 181.926 18.6128 181.813 18.3932 181.76C18.1736 181.706 17.9435 181.714 17.7282 181.783C17.5129 181.852 17.3207 181.979 17.1728 182.15L14.7949 184.902C14.773 184.929 14.746 184.951 14.7154 184.967C14.6848 184.983 14.6513 184.993 14.6169 184.996C14.5824 184.999 14.5477 184.995 14.5149 184.984C14.482 184.974 14.4515 184.957 14.4254 184.934C14.3993 184.911 14.3779 184.884 14.3626 184.852C14.3473 184.821 14.3384 184.788 14.3364 184.753C14.3344 184.718 14.3393 184.684 14.3508 184.651C14.3624 184.619 14.3804 184.589 14.4037 184.563L16.7813 181.811C16.9915 181.568 17.2646 181.387 17.5706 181.289C17.8767 181.191 18.2037 181.18 18.5159 181.256C18.828 181.332 19.1132 181.493 19.3399 181.721C19.5667 181.949 19.7263 182.235 19.8011 182.548L27.5141 214.85C27.5301 214.917 27.5188 214.987 27.4829 215.046C27.447 215.104 27.3894 215.146 27.3226 215.162C27.303 215.167 27.2828 215.169 27.2626 215.169Z" fill="#494949"/>
<path d="M24.4169 192.079C25.3545 186.648 22.873 181.684 18.8742 180.991C14.8755 180.299 10.8737 184.14 9.93606 189.571C8.9984 195.001 11.4799 199.965 15.4787 200.658C19.4775 201.35 23.4792 197.509 24.4169 192.079Z" fill="#E3A924"/>
<path d="M29.3529 216.014C29.3423 216.014 29.3316 216.013 29.3211 216.012C29.2873 216.008 29.2547 215.997 29.2251 215.98C29.1955 215.963 29.1695 215.941 29.1486 215.914C29.1277 215.887 29.1122 215.857 29.1031 215.824C29.0941 215.791 29.0915 215.757 29.0957 215.723L34.0212 175.669C34.0749 175.232 34.2533 174.821 34.5349 174.484C34.8165 174.146 35.1893 173.898 35.6086 173.768C36.0279 173.638 36.4757 173.632 36.8983 173.75C37.3209 173.869 37.7003 174.108 37.9909 174.437L43.6207 180.823C43.6432 180.849 43.6604 180.879 43.6714 180.911C43.6825 180.943 43.6871 180.977 43.685 181.011C43.6828 181.045 43.6741 181.078 43.6591 181.109C43.6442 181.139 43.6234 181.167 43.5979 181.189C43.5724 181.212 43.5428 181.229 43.5106 181.24C43.4784 181.251 43.4444 181.256 43.4105 181.254C43.3766 181.252 43.3434 181.243 43.3129 181.228C43.2823 181.213 43.255 181.192 43.2326 181.167L37.6028 174.78C37.3782 174.525 37.085 174.341 36.7584 174.249C36.4317 174.158 36.0856 174.162 35.7615 174.263C35.4375 174.363 35.1493 174.555 34.9317 174.816C34.7141 175.077 34.5762 175.395 34.5348 175.732L29.6093 215.786C29.6016 215.849 29.5713 215.907 29.5241 215.949C29.4769 215.99 29.416 216.014 29.3529 216.014Z" fill="#494949"/>
<path d="M49.3922 184.372C51.3565 180.816 49.0454 175.77 44.2302 173.102C39.4151 170.435 33.9193 171.155 31.955 174.712C29.9908 178.269 32.3019 183.314 37.117 185.982C41.9322 188.65 47.428 187.929 49.3922 184.372Z" fill="#E3A924"/>
<path opacity="0.2" d="M49.6095 207.945C52.7914 205.422 52.6023 199.874 49.1871 195.553C45.7719 191.231 40.4238 189.773 37.2419 192.296C34.0599 194.818 34.249 200.367 37.6643 204.688C41.0795 209.009 46.4275 210.468 49.6095 207.945Z" fill="white"/>
<path opacity="0.5" d="M24.4169 192.079C25.3545 186.648 22.873 181.684 18.8742 180.991C14.8755 180.299 10.8737 184.14 9.93606 189.571C8.9984 195.001 11.4799 199.965 15.4787 200.658C19.4775 201.35 23.4792 197.509 24.4169 192.079Z" fill="white"/>
<path opacity="0.5" d="M49.3922 184.372C51.3565 180.816 49.0454 175.77 44.2302 173.102C39.4151 170.435 33.9193 171.155 31.955 174.712C29.9908 178.269 32.3019 183.314 37.117 185.982C41.9322 188.65 47.428 187.929 49.3922 184.372Z" fill="white"/>
<path d="M35.6528 250H23.0529L20.9648 209.623H37.7406L35.6528 250Z" fill="#292A2E"/>
<path opacity="0.3" d="M35.6528 250H23.0529L20.9648 209.623H37.7406L35.6528 250Z" fill="white"/>
<path d="M49.6107 208.075C49.5912 208.075 49.572 208.07 49.5544 208.062C49.5368 208.053 49.5214 208.041 49.5093 208.025L37.1412 192.376C37.1307 192.363 37.1229 192.347 37.1182 192.331C37.1136 192.315 37.1122 192.298 37.1141 192.281C37.1161 192.264 37.1214 192.247 37.1296 192.233C37.1379 192.218 37.149 192.205 37.1623 192.194C37.1757 192.183 37.1909 192.176 37.2073 192.171C37.2236 192.166 37.2407 192.165 37.2576 192.167C37.2745 192.169 37.2908 192.174 37.3056 192.182C37.3205 192.191 37.3335 192.202 37.3441 192.215L49.7122 207.864C49.7273 207.884 49.7368 207.906 49.7394 207.931C49.7421 207.955 49.7379 207.979 49.7273 208.001C49.7168 208.023 49.7002 208.042 49.6796 208.055C49.6589 208.068 49.6351 208.075 49.6107 208.075Z" fill="white"/>
<path d="M48.5692 185.627C48.5416 185.626 48.5149 185.617 48.4929 185.601L32.6664 174.026C32.6387 174.006 32.6201 173.976 32.6148 173.942C32.6095 173.908 32.6179 173.873 32.6382 173.845C32.6584 173.817 32.6889 173.799 32.7228 173.794C32.7567 173.788 32.7913 173.797 32.819 173.817L48.6455 185.392C48.6672 185.408 48.6833 185.431 48.6914 185.457C48.6995 185.483 48.6992 185.51 48.6906 185.536C48.682 185.562 48.6656 185.584 48.6435 185.6C48.6215 185.616 48.595 185.625 48.5679 185.625L48.5692 185.627Z" fill="white"/>
<path d="M14.8355 200.488C14.8243 200.488 14.813 200.487 14.8022 200.484C14.7693 200.475 14.7413 200.453 14.7243 200.424C14.7073 200.394 14.7026 200.359 14.7113 200.326L19.7494 181.42C19.7535 181.403 19.761 181.387 19.7712 181.373C19.7815 181.36 19.7944 181.348 19.8092 181.339C19.824 181.331 19.8404 181.325 19.8574 181.322C19.8744 181.32 19.8917 181.321 19.9083 181.326C19.9249 181.33 19.9404 181.338 19.954 181.348C19.9676 181.359 19.979 181.372 19.9874 181.387C19.9959 181.402 20.0013 181.418 20.0034 181.435C20.0054 181.453 20.004 181.47 19.9993 181.486L14.9613 200.392C14.9539 200.42 14.9375 200.444 14.9148 200.462C14.892 200.479 14.8642 200.489 14.8355 200.488Z" fill="white"/>
<path d="M192.531 14.2632H43.8327C39.5457 14.2632 36.0703 17.744 36.0703 22.0378V186.335C36.0703 190.629 39.5457 194.11 43.8327 194.11H192.531C196.818 194.11 200.293 190.629 200.293 186.335V22.0378C200.293 17.744 196.818 14.2632 192.531 14.2632Z" fill="white"/>
<path d="M192.385 194.149H43.6852C41.5586 194.146 39.5198 193.299 38.0161 191.793C36.5124 190.287 35.6665 188.245 35.6641 186.115V21.818C35.6665 19.688 36.5124 17.646 38.0161 16.1399C39.5198 14.6339 41.5586 13.7866 43.6852 13.7842H192.385C194.511 13.7866 196.55 14.6338 198.054 16.1399C199.557 17.646 200.403 19.688 200.406 21.818V186.115C200.403 188.245 199.557 190.287 198.054 191.793C196.55 193.299 194.511 194.147 192.385 194.149ZM43.6852 14.3025C41.6958 14.3048 39.7886 15.0974 38.3819 16.5063C36.9752 17.9152 36.1839 19.8254 36.1816 21.818V186.115C36.1838 188.108 36.9751 190.018 38.3818 191.427C39.7885 192.836 41.6958 193.628 43.6852 193.631H192.385C194.374 193.628 196.281 192.836 197.688 191.427C199.095 190.018 199.886 188.108 199.888 186.115V21.818C199.886 19.8254 199.095 17.9152 197.688 16.5063C196.281 15.0974 194.374 14.3048 192.385 14.3025H43.6852Z" fill="#292A2E"/>
<path d="M200.148 21.8171V27.8264H35.9258V21.8171C35.9258 19.7551 36.7436 17.7776 38.1993 16.3196C39.6551 14.8616 41.6295 14.0425 43.6882 14.0425H192.385C194.444 14.0425 196.419 14.8616 197.874 16.3196C199.33 17.7776 200.148 19.7551 200.148 21.8171Z" fill="#292A2E"/>
<path opacity="0.1" d="M63.3059 75.5534C73.787 75.5534 82.2836 67.0434 82.2836 56.5457C82.2836 46.0481 73.787 37.5381 63.3059 37.5381C52.8247 37.5381 44.3281 46.0481 44.3281 56.5457C44.3281 67.0434 52.8247 75.5534 63.3059 75.5534Z" fill="#A0B73E"/>
<path opacity="0.2" d="M63.3064 55.7278C66.9468 55.7278 69.898 52.772 69.898 49.1259C69.898 45.4797 66.9468 42.5239 63.3064 42.5239C59.666 42.5239 56.7148 45.4797 56.7148 49.1259C56.7148 52.772 59.666 55.7278 63.3064 55.7278Z" fill="#A0B73E"/>
<path opacity="0.2" d="M77.5736 69.0796C75.7924 71.1137 73.5982 72.7434 71.1377 73.8598C68.6772 74.9762 66.007 75.5536 63.3057 75.5534C60.6045 75.5531 57.9344 74.9752 55.4741 73.8584C53.0137 72.7415 50.8198 71.1114 49.0391 69.0771C49.9513 65.996 51.8334 63.2928 54.4047 61.3706C56.976 59.4483 60.0987 58.4099 63.3073 58.4102C66.5159 58.4104 69.6384 59.4494 72.2094 61.3722C74.7803 63.2949 76.6619 65.9984 77.5736 69.0796Z" fill="#A0B73E"/>
<path opacity="0.2" d="M72.271 88.5205H46.548C45.6197 88.5205 44.8672 89.2742 44.8672 90.204C44.8672 91.1337 45.6197 91.8874 46.548 91.8874H72.271C73.1993 91.8874 73.9518 91.1337 73.9518 90.204C73.9518 89.2742 73.1993 88.5205 72.271 88.5205Z" fill="#A0B73E"/>
<path opacity="0.1" d="M133.392 38.8149H92.9602C91.4505 38.8149 90.2266 40.0408 90.2266 41.5529V47.2318C90.2266 48.7439 91.4505 49.9697 92.9602 49.9697H133.392C134.902 49.9697 136.126 48.7439 136.126 47.2318V41.5529C136.126 40.0408 134.902 38.8149 133.392 38.8149Z" fill="#A0B73E"/>
<path opacity="0.2" d="M152.123 56.1362H91.5203C90.8058 56.1362 90.2266 56.7164 90.2266 57.432C90.2266 58.1476 90.8058 58.7278 91.5203 58.7278H152.123C152.837 58.7278 153.416 58.1476 153.416 57.432C153.416 56.7164 152.837 56.1362 152.123 56.1362Z" fill="#A0B73E"/>
<path opacity="0.2" d="M152.123 63.9111H91.5203C90.8058 63.9111 90.2266 64.4913 90.2266 65.2069C90.2266 65.9225 90.8058 66.5027 91.5203 66.5027H152.123C152.837 66.5027 153.416 65.9225 153.416 65.2069C153.416 64.4913 152.837 63.9111 152.123 63.9111Z" fill="#A0B73E"/>
<path opacity="0.2" d="M141.773 71.6855H91.5203C90.8058 71.6855 90.2266 72.2657 90.2266 72.9813C90.2266 73.697 90.8058 74.2771 91.5203 74.2771H141.773C142.487 74.2771 143.066 73.697 143.066 72.9813C143.066 72.2657 142.487 71.6855 141.773 71.6855Z" fill="#A0B73E"/>
<path opacity="0.1" d="M110.471 96.7437H47.2971C45.9551 96.7437 44.8672 97.8333 44.8672 99.1774V105.19C44.8672 106.534 45.9551 107.624 47.2971 107.624H110.471C111.813 107.624 112.901 106.534 112.901 105.19V99.1774C112.901 97.8333 111.813 96.7437 110.471 96.7437Z" fill="#A0B73E"/>
<path opacity="0.2" d="M149.728 88.5205H124.005C123.077 88.5205 122.324 89.2742 122.324 90.204C122.324 91.1337 123.077 91.8874 124.005 91.8874H149.728C150.656 91.8874 151.409 91.1337 151.409 90.204C151.409 89.2742 150.656 88.5205 149.728 88.5205Z" fill="#A0B73E"/>
<path opacity="0.1" d="M187.929 96.7437H124.754C123.412 96.7437 122.324 97.8333 122.324 99.1774V105.19C122.324 106.534 123.412 107.624 124.754 107.624H187.929C189.271 107.624 190.358 106.534 190.358 105.19V99.1774C190.358 97.8333 189.271 96.7437 187.929 96.7437Z" fill="#A0B73E"/>
<path opacity="0.2" d="M72.271 116.619H46.548C45.6197 116.619 44.8672 117.373 44.8672 118.303C44.8672 119.232 45.6197 119.986 46.548 119.986H72.271C73.1993 119.986 73.9518 119.232 73.9518 118.303C73.9518 117.373 73.1993 116.619 72.271 116.619Z" fill="#A0B73E"/>
<path opacity="0.1" d="M110.471 124.843H47.2971C45.9551 124.843 44.8672 125.932 44.8672 127.276V133.289C44.8672 134.633 45.9551 135.723 47.2971 135.723H110.471C111.813 135.723 112.901 134.633 112.901 133.289V127.276C112.901 125.932 111.813 124.843 110.471 124.843Z" fill="#A0B73E"/>
<path opacity="0.2" d="M149.728 116.619H124.005C123.077 116.619 122.324 117.373 122.324 118.303C122.324 119.232 123.077 119.986 124.005 119.986H149.728C150.656 119.986 151.409 119.232 151.409 118.303C151.409 117.373 150.656 116.619 149.728 116.619Z" fill="#A0B73E"/>
<path opacity="0.1" d="M187.929 124.843H124.754C123.412 124.843 122.324 125.932 122.324 127.276V133.289C122.324 134.633 123.412 135.723 124.754 135.723H187.929C189.271 135.723 190.358 134.633 190.358 133.289V127.276C190.358 125.932 189.271 124.843 187.929 124.843Z" fill="#A0B73E"/>
<path opacity="0.2" d="M72.271 144.718H46.548C45.6197 144.718 44.8672 145.472 44.8672 146.402C44.8672 147.331 45.6197 148.085 46.548 148.085H72.271C73.1993 148.085 73.9518 147.331 73.9518 146.402C73.9518 145.472 73.1993 144.718 72.271 144.718Z" fill="#A0B73E"/>
<path opacity="0.1" d="M110.471 152.942H47.2971C45.9551 152.942 44.8672 154.032 44.8672 155.376V161.388C44.8672 162.733 45.9551 163.822 47.2971 163.822H110.471C111.813 163.822 112.901 162.733 112.901 161.388V155.376C112.901 154.032 111.813 152.942 110.471 152.942Z" fill="#A0B73E"/>
<path opacity="0.2" d="M149.728 144.718H124.005C123.077 144.718 122.324 145.472 122.324 146.402C122.324 147.331 123.077 148.085 124.005 148.085H149.728C150.656 148.085 151.409 147.331 151.409 146.402C151.409 145.472 150.656 144.718 149.728 144.718Z" fill="#A0B73E"/>
<path opacity="0.1" d="M187.929 152.942H124.754C123.412 152.942 122.324 154.032 122.324 155.376V161.388C122.324 162.733 123.412 163.822 124.754 163.822H187.929C189.271 163.822 190.358 162.733 190.358 161.388V155.376C190.358 154.032 189.271 152.942 187.929 152.942Z" fill="#A0B73E"/>
<path opacity="0.2" d="M137.779 172.299H98.2913C96.6979 172.299 95.4062 173.593 95.4062 175.189V180.523C95.4062 182.119 96.6979 183.413 98.2913 183.413H137.779C139.373 183.413 140.664 182.119 140.664 180.523V175.189C140.664 173.593 139.373 172.299 137.779 172.299Z" fill="#A0B73E"/>
<path d="M124.924 46.4633L129.106 51.4095L128.847 50.5603C128.769 50.2845 128.798 49.9893 128.929 49.7343C129.06 49.4793 129.283 49.2836 129.552 49.1868C129.693 49.1416 129.841 49.1257 129.988 49.1399C130.136 49.1541 130.278 49.1982 130.408 49.2695C130.537 49.3408 130.651 49.4377 130.742 49.5545C130.833 49.6712 130.899 49.8052 130.937 49.9484L132.848 57.1578C133.089 58.0679 132.966 59.0364 132.505 59.8567C132.043 60.677 131.28 61.2841 130.377 61.5487C129.33 61.8558 128.215 61.8426 127.175 61.5107C126.135 61.1789 125.217 60.5436 124.54 59.6862L121.479 55.796C121.316 55.597 121.227 55.3477 121.227 55.0903C121.226 54.8329 121.314 54.5833 121.477 54.3836C121.627 54.2062 121.83 54.0816 122.056 54.0279C122.282 53.9743 122.519 53.9945 122.733 54.0856C122.737 54.0685 122.746 54.0529 122.759 54.0405C122.771 54.0295 122.786 54.0219 122.802 54.0182C122.819 54.0144 122.835 54.0148 122.852 54.0192L122.285 53.3014C122.111 53.091 122.019 52.8247 122.026 52.5518C122.033 52.2788 122.138 52.0176 122.323 51.8164C122.511 51.6233 122.765 51.5073 123.034 51.4909C123.304 51.4746 123.569 51.559 123.78 51.7278C123.782 51.7164 123.785 51.7053 123.791 51.6951L123.558 51.4007C123.406 51.1991 123.323 50.9538 123.321 50.7012C123.319 50.4486 123.398 50.202 123.547 49.9979C123.728 49.7783 123.989 49.6388 124.272 49.6092C124.555 49.5796 124.839 49.6623 125.062 49.8396L125.077 49.8248L123.32 47.7467C123.23 47.6401 123.163 47.5162 123.122 47.3827C123.081 47.2491 123.068 47.1087 123.083 46.9699C123.098 46.8311 123.142 46.6968 123.211 46.5753C123.279 46.4538 123.372 46.3477 123.483 46.2633C123.704 46.1074 123.976 46.0413 124.243 46.0785C124.511 46.1156 124.754 46.2532 124.924 46.4633Z" fill="#E98862"/>
<path opacity="0.2" d="M125.018 49.9563C125.022 49.9675 125.029 49.9778 125.037 49.9869L126.768 51.9865C126.777 51.9967 126.787 52.0051 126.799 52.0112C126.811 52.0172 126.824 52.0209 126.838 52.0219C126.851 52.0229 126.865 52.0212 126.878 52.017C126.89 52.0128 126.902 52.0061 126.912 51.9973C126.923 51.9885 126.931 51.9777 126.937 51.9657C126.943 51.9537 126.947 51.9406 126.948 51.9271C126.949 51.9137 126.947 51.9002 126.943 51.8874C126.939 51.8746 126.932 51.8627 126.923 51.8525L125.193 49.8537C125.177 49.8369 125.156 49.8262 125.133 49.8231C125.109 49.8201 125.086 49.825 125.066 49.837C125.046 49.849 125.031 49.8674 125.022 49.8892C125.014 49.9111 125.013 49.9351 125.02 49.9573L125.018 49.9563Z" fill="#0C0C0C"/>
<path opacity="0.2" d="M123.781 51.7758C123.785 51.7867 123.791 51.7968 123.798 51.8056L125.146 53.3865C125.164 53.4054 125.189 53.4167 125.215 53.418C125.241 53.4193 125.266 53.4106 125.286 53.3936C125.306 53.3767 125.319 53.3527 125.321 53.3267C125.324 53.3007 125.317 53.2746 125.301 53.2538L123.954 51.673C123.938 51.6544 123.916 51.6421 123.892 51.6381C123.869 51.6341 123.844 51.6388 123.823 51.6512C123.802 51.6637 123.787 51.6831 123.779 51.7061C123.771 51.729 123.772 51.754 123.781 51.7766L123.781 51.7758Z" fill="#0C0C0C"/>
<path opacity="0.2" d="M122.731 54.1545C122.736 54.1662 122.742 54.177 122.751 54.1863L123.406 54.9182C123.415 54.9282 123.426 54.9363 123.438 54.9422C123.45 54.948 123.463 54.9514 123.476 54.9521C123.49 54.9528 123.503 54.9509 123.516 54.9465C123.528 54.9421 123.54 54.9352 123.55 54.9262C123.56 54.9173 123.568 54.9064 123.574 54.8943C123.58 54.8822 123.583 54.8691 123.584 54.8557C123.585 54.8423 123.583 54.8289 123.578 54.8162C123.574 54.8035 123.567 54.7919 123.558 54.7819L122.904 54.0498C122.888 54.0324 122.867 54.021 122.843 54.0176C122.82 54.0143 122.796 54.0191 122.776 54.0313C122.756 54.0435 122.74 54.0624 122.732 54.0846C122.725 54.1069 122.725 54.1312 122.733 54.1534L122.731 54.1545Z" fill="#0C0C0C"/>
<path d="M175.574 96.0733L139.068 93.5144C137.751 93.4221 136.487 92.958 135.423 92.1757C134.358 91.3934 133.537 90.325 133.054 89.0943L121.512 59.6863L134.515 54.5664L144.443 79.8627L176.548 82.1132L175.574 96.0733Z" fill="#A0B73E"/>
<path d="M196.77 238.216C196.77 238.216 195.602 244.281 189.932 244.62C184.262 244.959 185.491 249.482 185.491 249.482H207.159V238.639L196.77 238.216Z" fill="#A0B73E"/>
<path d="M203.454 127.576C203.454 127.576 203.386 125.752 203.4 129.888C203.454 145.315 203.721 162.937 204.374 173.248C205.424 189.825 208.116 242.087 208.116 242.087L193.878 241.968L180.078 126.949L203.454 127.576Z" fill="#262626"/>
<path d="M171.422 238.216C171.422 238.216 170.254 244.281 164.584 244.62C158.914 244.959 160.144 249.482 160.144 249.482H181.811V238.639L171.422 238.216Z" fill="#A0B73E"/>
<path d="M164.528 128.773C164.528 128.773 163.267 181.5 163.452 184.077L168.747 241.687L182.749 241.946L181.385 181.992C181.385 181.992 182.348 165.454 186.337 150.097C188.378 142.216 189.607 134.145 190.003 126.012L164.528 128.773Z" fill="#262626"/>
<path d="M203.605 127.574L203.652 127.577C203.652 127.577 203.618 126.677 203.605 127.574Z" fill="#333333"/>
<path d="M162.524 99.5069C162.818 102.962 164.246 124.518 164.528 128.773H203.436C203.656 124.935 204.643 108.151 205.476 100.645C206.272 93.4829 207.833 89.8967 206.689 87.7794C204.819 84.3186 199.71 82.3188 196.226 81.8463C194.099 81.5579 190.899 81.3511 190.899 81.3511C190.899 81.3511 190.628 86.8402 184.168 87.1458C175.375 87.5604 175.962 81.3511 175.919 81.3511C174.494 81.3511 166.199 82.022 164.365 83.4362C161.157 85.9096 161.901 92.185 162.524 99.5069Z" fill="#A0B73E"/>
<path d="M161.989 95.1777C161.956 95.1778 161.924 95.1651 161.9 95.1425C161.876 95.1198 161.862 95.0887 161.86 95.0556L161.547 89.5691C161.545 89.5348 161.557 89.5011 161.58 89.4755C161.602 89.4498 161.634 89.4343 161.669 89.4323C161.703 89.4307 161.736 89.4426 161.762 89.4654C161.787 89.4882 161.803 89.5201 161.805 89.5543L162.119 95.0406C162.121 95.0749 162.109 95.1086 162.087 95.1342C162.064 95.1599 162.032 95.1754 161.998 95.1774L161.989 95.1777Z" fill="#0C0C0C"/>
<path d="M211.849 128.548C212.993 128.548 214.12 128.271 215.135 127.74C216.149 127.21 217.021 126.442 217.675 125.502C218.33 124.561 218.748 123.477 218.893 122.34C219.039 121.203 218.909 120.048 218.513 118.972C218.111 117.88 208.687 92.8867 206.893 88.2559L193.609 93.6463C194.618 96.2502 198.273 106.12 201.209 114.07L196.331 113.539L194.796 127.686L211.08 128.506C211.335 128.534 211.592 128.548 211.849 128.548Z" fill="#A0B73E"/>
<path d="M171.281 80.878C171.325 80.8723 172.518 85.3707 181.832 84.6707C188.28 84.1869 189.854 79.7908 190 79.7908C189.305 79.6429 188.176 79.4892 187.867 79.3243C186.852 78.778 186.113 78.1128 185.74 76.6854C185.449 75.5689 185.3 71.2714 185.3 69.1152L175.378 71.3484C175.516 73.7808 176.484 79.4192 173.092 80.4172C172.528 80.582 171.92 80.7339 171.281 80.878Z" fill="#E98862"/>
<path d="M175.722 76.1299C179.634 76.439 184.658 74.7849 185.613 69.558L186.474 64.8414C187.428 59.6145 185.461 54.8751 180.549 53.975C175.635 53.075 171.189 56.6394 170.234 61.8663L169.853 63.9543C169.486 65.9601 168.743 75.5784 175.722 76.1299Z" fill="#E98862"/>
<path d="M172.096 71.3311C172.798 67.7978 173.12 65.4402 173.082 62.9531C172.093 61.2168 172.354 59.2213 172.578 58.3599C171.897 58.7932 171.097 58.999 170.292 58.9474C170.292 58.9474 171.927 52.3732 177.485 50.6042C178.507 50.2056 181.117 49.7023 184.582 50.1784C187.53 50.5832 194.795 52.7907 195.833 60.9833V60.988C195.868 61.2596 196.565 68.8079 197.955 72.4296C199.825 77.2984 202.449 78.811 202.383 84.4285C202.297 91.6539 189.035 92.6156 181.036 92.0753C173.038 91.535 168.571 88.9002 168.513 83.693C168.452 77.8586 170.691 78.4005 172.096 71.3311Z" fill="#0A0A0A"/>
<path d="M204.269 100.791L203.312 128.771L203.571 128.779L204.527 100.8L204.269 100.791Z" fill="#0C0C0C"/>
<path d="M16.1508 250H245.171C245.196 250.001 245.222 249.997 245.246 249.988C245.27 249.978 245.292 249.964 245.31 249.947C245.329 249.929 245.343 249.908 245.353 249.884C245.363 249.86 245.368 249.835 245.368 249.809C245.368 249.783 245.363 249.758 245.353 249.734C245.343 249.711 245.329 249.689 245.31 249.672C245.292 249.654 245.27 249.64 245.246 249.631C245.222 249.622 245.196 249.617 245.171 249.618H16.1508C16.1252 249.617 16.0997 249.622 16.0757 249.631C16.0518 249.64 16.0299 249.654 16.0115 249.672C15.993 249.689 15.9783 249.711 15.9683 249.734C15.9583 249.758 15.9531 249.783 15.9531 249.809C15.9531 249.835 15.9583 249.86 15.9683 249.884C15.9783 249.908 15.993 249.929 16.0115 249.947C16.0299 249.964 16.0518 249.978 16.0757 249.988C16.0997 249.997 16.1252 250.001 16.1508 250Z" fill="#292A2E"/>
<path d="M187.374 145.768C187.374 145.768 186.783 156.963 186.675 159.591C186.422 165.67 186.334 171.963 186.334 179.099L184.09 160.393C184.09 160.393 185.731 154.531 187.374 145.768Z" fill="#0A0A0A"/>
</g>
<defs>
<clipPath id="clip0_776_4516">
<rect width="259" height="250" fill="white" transform="translate(0.5)"/>
</clipPath>
</defs>
</svg>
