<svg width="254" height="250" viewBox="0 0 254 250" fill="none" xmlns="http://www.w3.org/2000/svg">
<g clip-path="url(#clip0_776_4643)">
<path d="M213.621 0H88.2188V125.64H213.621V0Z" fill="#EFF0F1"/>
<path d="M215.058 0H213.621V125.64H215.058V0Z" fill="#EFF0F1"/>
<path opacity="0.05" d="M215.058 0H213.621V125.64H215.058V0Z" fill="#292A2E"/>
<path opacity="0.05" d="M183.243 86.5764V53.7046H156.367V72.8025H114.736V106.617H97.043V125.64H114.736H118.145H207.59V86.5764H183.243Z" fill="#292A2E"/>
<path opacity="0.34" d="M179.388 57.2739H159.816V60.843H179.388V57.2739Z" fill="#FFFFFA"/>
<path opacity="0.34" d="M179.388 64.6699H159.816V68.239H179.388V64.6699Z" fill="#FFFFFA"/>
<path opacity="0.34" d="M179.388 72.0659H159.816V75.635H179.388V72.0659Z" fill="#FFFFFA"/>
<path opacity="0.34" d="M204.119 90.041H200.512V93.6101H204.119V90.041Z" fill="#FFFFFA"/>
<path opacity="0.34" d="M204.119 97.437H200.512V101.006H204.119V97.437Z" fill="#FFFFFA"/>
<path opacity="0.34" d="M204.119 104.833H200.512V108.402H204.119V104.833Z" fill="#FFFFFA"/>
<path opacity="0.34" d="M197.443 90.041H193.836V93.6101H197.443V90.041Z" fill="#FFFFFA"/>
<path opacity="0.34" d="M197.443 97.437H193.836V101.006H197.443V97.437Z" fill="#FFFFFA"/>
<path opacity="0.34" d="M197.443 104.833H193.836V108.402H197.443V104.833Z" fill="#FFFFFA"/>
<path opacity="0.34" d="M190.951 90.041H187.344V93.6101H190.951V90.041Z" fill="#FFFFFA"/>
<path opacity="0.34" d="M190.951 97.437H187.344V101.006H190.951V97.437Z" fill="#FFFFFA"/>
<path opacity="0.34" d="M190.951 104.833H187.344V108.402H190.951V104.833Z" fill="#FFFFFA"/>
<path d="M213.621 62.1153H188.388V0H186.301V62.1153H118.144V0H116.057V62.1153H88.2188V64.2061H116.057V125.64H118.144V64.2061H186.301V125.64H188.388V64.2061H213.621V62.1153Z" fill="white"/>
<path d="M218.616 125.489H83.2227V129.667H218.616V125.489Z" fill="#EFF0F1"/>
<path opacity="0.1" d="M218.616 125.489H83.2227V129.667H218.616V125.489Z" fill="#292A2E"/>
<path opacity="0.1" d="M220.572 125.489H218.617V129.667H220.572V125.489Z" fill="#292A2E"/>
<path opacity="0.1" d="M220.572 125.489H218.617V129.667H220.572V125.489Z" fill="#292A2E"/>
<path d="M215.058 2.24268H88.2188V5.34936H215.058V2.24268Z" fill="white"/>
<path d="M215.058 8.04541H88.2188V11.1521H215.058V8.04541Z" fill="white"/>
<path d="M215.058 13.8477H88.2188V16.9543H215.058V13.8477Z" fill="white"/>
<path d="M215.058 19.6499H88.2188V22.7566H215.058V19.6499Z" fill="white"/>
<path d="M215.058 25.4526H88.2188V28.5593H215.058V25.4526Z" fill="white"/>
<path d="M201.584 0H199.684V32.063H201.584V0Z" fill="white"/>
<path d="M200.795 36.6679C202.237 36.6679 203.406 35.4965 203.406 34.0515C203.406 32.6065 202.237 31.4351 200.795 31.4351C199.353 31.4351 198.184 32.6065 198.184 34.0515C198.184 35.4965 199.353 36.6679 200.795 36.6679Z" fill="white"/>
<path d="M249.838 250H0.702685C0.676068 250 0.649712 249.995 0.625121 249.984C0.60053 249.974 0.578186 249.959 0.559365 249.94C0.540544 249.922 0.525614 249.899 0.515428 249.875C0.505243 249.85 0.5 249.823 0.5 249.797C0.5 249.77 0.505243 249.744 0.515428 249.719C0.525614 249.694 0.540544 249.672 0.559365 249.653C0.578186 249.634 0.60053 249.619 0.625121 249.609C0.649712 249.599 0.676068 249.594 0.702685 249.594H249.837C249.891 249.594 249.942 249.615 249.98 249.653C250.019 249.691 250.04 249.743 250.04 249.797C250.04 249.851 250.019 249.902 249.98 249.94C249.942 249.978 249.891 250 249.837 250H249.838Z" fill="#292A2E"/>
<g opacity="0.65">
<path d="M249.838 250H0.702685C0.676068 250 0.649712 249.995 0.625121 249.984C0.60053 249.974 0.578186 249.959 0.559365 249.94C0.540544 249.922 0.525614 249.899 0.515428 249.875C0.505243 249.85 0.5 249.823 0.5 249.797C0.5 249.77 0.505243 249.744 0.515428 249.719C0.525614 249.694 0.540544 249.672 0.559365 249.653C0.578186 249.634 0.60053 249.619 0.625121 249.609C0.649712 249.599 0.676068 249.594 0.702685 249.594H249.837C249.891 249.594 249.942 249.615 249.98 249.653C250.019 249.691 250.04 249.743 250.04 249.797C250.04 249.851 250.019 249.902 249.98 249.94C249.942 249.978 249.891 250 249.837 250H249.838Z" fill="#292A2E"/>
</g>
<path d="M18.0452 249.643L17.4766 249.533L26.3646 161.043L26.9333 161.153L18.0452 249.643Z" fill="#494949"/>
<path d="M51.1429 249.643L50.5742 249.533L59.4622 161.043L60.0306 161.153L51.1429 249.643Z" fill="#494949"/>
<path d="M124.294 249.643L124.863 249.533L115.975 161.043L115.406 161.153L124.294 249.643Z" fill="#494949"/>
<path d="M91.2005 249.643L91.7689 249.533L82.8812 161.043L82.3125 161.153L91.2005 249.643Z" fill="#494949"/>
<path d="M79.4138 122.099L78.8398 122.176L84.032 161.138L84.606 161.061L79.4138 122.099Z" fill="#494949"/>
<path d="M19.8162 122.099L19.2422 122.176L24.4344 161.137L25.0084 161.061L19.8162 122.099Z" fill="#494949"/>
<path d="M84.554 158.245H26.2618C24.689 158.245 23.4141 159.523 23.4141 161.098V161.099C23.4141 162.674 24.689 163.952 26.2618 163.952H84.554C86.1267 163.952 87.4017 162.674 87.4017 161.099V161.098C87.4017 159.523 86.1267 158.245 84.554 158.245Z" fill="#292A2E"/>
<path opacity="0.8" d="M84.554 158.245H26.2618C24.689 158.245 23.4141 159.523 23.4141 161.098V161.099C23.4141 162.674 24.689 163.952 26.2618 163.952H84.554C86.1267 163.952 87.4017 162.674 87.4017 161.099V161.098C87.4017 159.523 86.1267 158.245 84.554 158.245Z" fill="white"/>
<path d="M84.5547 164.242H26.2637C25.4368 164.234 24.6465 163.899 24.0646 163.311C23.4827 162.722 23.1562 161.927 23.1562 161.098C23.1562 160.27 23.4827 159.475 24.0646 158.886C24.6465 158.298 25.4368 157.963 26.2637 157.955H84.5547C85.3816 157.963 86.1719 158.298 86.7538 158.886C87.3357 159.475 87.6621 160.27 87.6621 161.098C87.6621 161.927 87.3357 162.722 86.7538 163.311C86.1719 163.899 85.3816 164.234 84.5547 164.242ZM26.2637 158.535C25.5899 158.542 24.9461 158.816 24.4722 159.296C23.9983 159.775 23.7324 160.423 23.7324 161.098C23.7324 161.774 23.9983 162.421 24.4722 162.901C24.9461 163.381 25.5899 163.654 26.2637 163.662H84.5547C85.2285 163.654 85.8723 163.381 86.3462 162.901C86.8201 162.421 87.0859 161.774 87.0859 161.098C87.0859 160.423 86.8201 159.775 86.3462 159.296C85.8723 158.816 85.2285 158.542 84.5547 158.535H26.2637Z" fill="#292A2E"/>
<path d="M116.55 158.245H58.2579C56.6851 158.245 55.4102 159.523 55.4102 161.098V161.099C55.4102 162.674 56.6851 163.952 58.2579 163.952H116.55C118.123 163.952 119.398 162.674 119.398 161.099V161.098C119.398 159.523 118.123 158.245 116.55 158.245Z" fill="white"/>
<path d="M116.55 164.242H58.2575C57.843 164.246 57.4318 164.168 57.0476 164.011C56.6635 163.855 56.314 163.624 56.0195 163.332C55.725 163.04 55.4911 162.692 55.3316 162.309C55.172 161.925 55.0898 161.514 55.0898 161.099C55.0898 160.683 55.172 160.272 55.3316 159.889C55.4911 159.505 55.725 159.157 56.0195 158.865C56.314 158.573 56.6635 158.342 57.0476 158.186C57.4318 158.03 57.843 157.951 58.2575 157.955H116.55C116.964 157.951 117.376 158.03 117.76 158.186C118.144 158.342 118.493 158.573 118.788 158.865C119.082 159.157 119.316 159.505 119.476 159.889C119.635 160.272 119.717 160.683 119.717 161.099C119.717 161.514 119.635 161.925 119.476 162.309C119.316 162.692 119.082 163.04 118.788 163.332C118.493 163.624 118.144 163.855 117.76 164.011C117.376 164.168 116.964 164.246 116.55 164.242ZM58.2575 158.535C57.9193 158.532 57.5837 158.595 57.2701 158.723C56.9566 158.85 56.6713 159.038 56.4309 159.276C56.1904 159.515 55.9995 159.799 55.8692 160.111C55.739 160.424 55.6719 160.76 55.6719 161.099C55.6719 161.438 55.739 161.773 55.8692 162.086C55.9995 162.399 56.1904 162.682 56.4309 162.921C56.6713 163.159 56.9566 163.347 57.2701 163.475C57.5837 163.602 57.9193 163.665 58.2575 163.662H116.55C116.888 163.665 117.224 163.602 117.537 163.475C117.851 163.347 118.136 163.159 118.376 162.921C118.617 162.682 118.808 162.399 118.938 162.086C119.068 161.773 119.135 161.438 119.135 161.099C119.135 160.76 119.068 160.424 118.938 160.111C118.808 159.799 118.617 159.515 118.376 159.276C118.136 159.038 117.851 158.85 117.537 158.723C117.224 158.595 116.888 158.532 116.55 158.535H58.2575Z" fill="#292A2E"/>
<path d="M76.2198 122.137H19.686C18.7618 122.137 17.8691 121.8 17.1746 121.189C16.4802 120.578 16.0314 119.734 15.9121 118.816L12.1725 90.0439C12.1026 89.5061 12.148 88.9595 12.3057 88.4407C12.4633 87.9218 12.7297 87.4427 13.0869 87.0352C13.4441 86.6276 13.884 86.3012 14.3772 86.0775C14.8703 85.8539 15.4055 85.7382 15.9468 85.7383H72.4803C73.4045 85.7383 74.2972 86.0753 74.9917 86.6863C75.6861 87.2974 76.1349 88.1408 76.2542 89.0591L79.9938 117.831C80.0637 118.369 80.0182 118.915 79.8606 119.434C79.7029 119.953 79.4366 120.432 79.0794 120.84C78.7222 121.247 78.2824 121.574 77.7893 121.797C77.2961 122.021 76.7611 122.137 76.2198 122.137Z" fill="#292A2E"/>
<path opacity="0.8" d="M76.2198 122.137H19.686C18.7618 122.137 17.8691 121.8 17.1746 121.189C16.4802 120.578 16.0314 119.734 15.9121 118.816L12.1725 90.0439C12.1026 89.5061 12.148 88.9595 12.3057 88.4407C12.4633 87.9218 12.7297 87.4427 13.0869 87.0352C13.4441 86.6276 13.884 86.3012 14.3772 86.0775C14.8703 85.8539 15.4055 85.7382 15.9468 85.7383H72.4803C73.4045 85.7383 74.2972 86.0753 74.9917 86.6863C75.6861 87.2974 76.1349 88.1408 76.2542 89.0591L79.9938 117.831C80.0637 118.369 80.0182 118.915 79.8606 119.434C79.7029 119.953 79.4366 120.432 79.0794 120.84C78.7222 121.247 78.2824 121.574 77.7893 121.797C77.2961 122.021 76.7611 122.137 76.2198 122.137Z" fill="white"/>
<path d="M76.2204 122.427H19.6866C18.6928 122.425 17.7334 122.061 16.9866 121.404C16.2397 120.747 15.7561 119.841 15.6254 118.854L11.8859 90.0819C11.8106 89.5032 11.8595 88.9151 12.0291 88.3568C12.1988 87.7985 12.4854 87.2828 12.8698 86.8443C13.2541 86.4058 13.7275 86.0545 14.2581 85.8138C14.7888 85.5732 15.3646 85.4487 15.9471 85.4487H72.4808C73.4749 85.451 74.4344 85.8144 75.1813 86.4716C75.9282 87.1288 76.4118 88.0352 76.5424 89.0225L80.2819 117.794C80.357 118.373 80.3081 118.961 80.1384 119.519C79.9687 120.078 79.6821 120.593 79.2977 121.032C78.9133 121.47 78.44 121.822 77.9093 122.062C77.3787 122.303 76.8029 122.427 76.2204 122.427V122.427ZM15.9471 86.0283C15.447 86.0284 14.9526 86.1353 14.497 86.3419C14.0414 86.5486 13.635 86.8502 13.305 87.2267C12.975 87.6032 12.729 88.0459 12.5833 88.5253C12.4376 89.0046 12.3957 89.5096 12.4603 90.0065L16.1996 118.779C16.3118 119.626 16.727 120.404 17.3683 120.968C18.0095 121.533 18.8332 121.845 19.6866 121.847H76.2204C76.7206 121.847 77.2151 121.74 77.6708 121.533C78.1264 121.326 78.5329 121.025 78.8629 120.648C79.193 120.271 79.439 119.829 79.5846 119.349C79.7303 118.87 79.7721 118.365 79.7074 117.868L75.9679 89.0959C75.8557 88.2483 75.4404 87.4703 74.7992 86.9062C74.1579 86.3421 73.3342 86.0302 72.4808 86.0283H15.9471Z" fill="#292A2E"/>
<path d="M79.4153 122.137H22.8816C21.9573 122.137 21.0645 121.8 20.37 121.189C19.6755 120.578 19.2267 119.734 19.1073 118.816L15.3677 90.0439C15.2979 89.5061 15.3434 88.9596 15.5011 88.4408C15.6588 87.922 15.9251 87.4428 16.2823 87.0354C16.6396 86.6279 17.0794 86.3014 17.5725 86.0777C18.0656 85.8541 18.6007 85.7383 19.142 85.7383H75.6758C76.6001 85.7383 77.4928 86.0753 78.1873 86.6863C78.8818 87.2974 79.3307 88.1408 79.4501 89.0591L83.1896 117.831C83.2594 118.369 83.214 118.916 83.0563 119.434C82.8985 119.953 82.6322 120.432 82.275 120.84C81.9178 121.247 81.4779 121.574 80.9848 121.797C80.4917 122.021 79.9566 122.137 79.4153 122.137Z" fill="white"/>
<path d="M79.4157 122.427H22.8819C21.888 122.425 20.9287 122.061 20.1818 121.404C19.435 120.747 18.9514 119.841 18.8207 118.854L15.0812 90.0819C15.0059 89.5032 15.0548 88.9151 15.2245 88.3568C15.3941 87.7985 15.6807 87.2828 16.0651 86.8443C16.4495 86.4058 16.9228 86.0545 17.4534 85.8138C17.9841 85.5732 18.5599 85.4487 19.1424 85.4487H75.6762C76.6702 85.4509 77.6297 85.8144 78.3765 86.4716C79.1234 87.1288 79.6069 88.0352 79.7374 89.0225L83.4769 117.794C83.5522 118.373 83.5033 118.961 83.3337 119.519C83.164 120.078 82.8774 120.593 82.493 121.032C82.1087 121.47 81.6353 121.822 81.1047 122.062C80.574 122.303 79.9982 122.427 79.4157 122.427V122.427ZM19.1424 86.0283C18.6423 86.0284 18.1479 86.1353 17.6923 86.3419C17.2366 86.5486 16.8303 86.8502 16.5002 87.2267C16.1702 87.6032 15.9241 88.0459 15.7784 88.5253C15.6328 89.0046 15.5908 89.5096 15.6554 90.0065L19.3949 118.779C19.507 119.626 19.9222 120.404 20.5635 120.969C21.2047 121.533 22.0285 121.845 22.8819 121.847H79.4157C79.9159 121.847 80.4104 121.74 80.8662 121.533C81.3219 121.326 81.7284 121.025 82.0584 120.648C82.3885 120.272 82.6346 119.829 82.7802 119.349C82.9259 118.87 82.9677 118.365 82.903 117.868L79.1635 89.0959C79.0514 88.2482 78.6362 87.47 77.995 86.9057C77.3537 86.3415 76.5299 86.0294 75.6764 86.0275L19.1424 86.0283Z" fill="#292A2E"/>
<path d="M159.149 234.843C159.149 234.843 160.702 242.906 168.237 243.355C175.771 243.804 174.138 249.819 174.138 249.819H145.344V235.405L159.149 234.843Z" fill="#A0B73E"/>
<path d="M104.373 229.753C104.373 229.753 102.213 237.674 108.777 241.41C115.34 245.146 111.224 249.819 111.224 249.819L85.3867 237.084L91.7368 224.15L104.373 229.753Z" fill="#A0B73E"/>
<path d="M81.1868 41.8759C81.1868 41.8759 84.9434 39.0349 85.8743 32.4955C86.595 27.4321 81.9333 30.7123 81.9333 30.7123C81.9333 30.7123 82.4168 27.0616 79.7617 27.4237C77.1065 27.7857 75.6211 31.6214 75.6211 31.6214" fill="#0C0C0C"/>
<path d="M66.0386 27.8511C66.0386 27.8511 52.8655 29.2662 57.6275 47.1503L58.7932 47.2283L61.1594 47.3873" fill="#0C0C0C"/>
<path d="M78.979 65.8275C78.9211 65.82 78.2783 76.5032 65.8896 75.5726C57.3131 74.9291 54.2552 65.8124 54.0586 65.8124C54.9834 65.6155 56.126 65.3167 56.5803 65.214C57.57 64.9838 58.4664 64.4571 59.15 63.704C59.8337 62.951 60.2723 62.0072 60.4076 60.9982C60.6586 59.4839 60.2338 51.7359 60.3638 50.2036L73.5288 53.1478C73.3449 56.3839 72.0573 63.8862 76.5691 65.214C77.321 65.4336 78.1297 65.6355 78.979 65.8275Z" fill="#E98862"/>
<path opacity="0.52" d="M73.714 62.1479C73.5078 61.4821 73.3749 60.7957 73.3178 60.1009C73.1733 58.5154 73.2025 56.9187 73.4047 55.3395C70.7289 54.9776 68.2081 53.8711 66.1286 52.1455C65.8842 53.05 64.5399 57.0024 64.9125 57.8622C65.6147 59.4871 68.9205 62.1479 73.714 62.1479Z" fill="#0C0C0C"/>
<path d="M70.9965 60.0335C65.8026 59.5668 59.5862 56.2791 59.4968 49.2154L59.4157 42.8422C59.3262 35.7786 62.9563 30.0053 69.5945 29.9209C76.2324 29.8362 81.2668 35.4992 81.3563 42.5625L81.3922 45.3841C81.3876 46.3531 81.3171 47.3207 81.1811 48.2801C80.8406 50.8185 80.3125 54.6777 78.5934 57.2886C76.9696 59.753 74.3145 60.3317 70.9965 60.0335Z" fill="#E98862"/>
<path d="M73.4052 53.5771C74.477 53.6258 75.5452 53.4213 76.5236 52.9803C76.5438 52.9717 76.5622 52.9591 76.5776 52.9434C76.5929 52.9276 76.6051 52.909 76.6133 52.8886C76.6215 52.8681 76.6256 52.8463 76.6254 52.8242C76.6251 52.8022 76.6206 52.7804 76.6119 52.7602C76.6033 52.7399 76.5908 52.7215 76.575 52.7061C76.5593 52.6907 76.5407 52.6785 76.5203 52.6703C76.4999 52.6621 76.4781 52.658 76.4561 52.6582C76.4341 52.6585 76.4124 52.663 76.3922 52.6717C74.2842 53.5724 72.37 53.4404 70.8568 52.2902C70.8263 52.266 70.7945 52.2434 70.7616 52.2226C70.7235 52.2049 70.6803 52.2022 70.6403 52.2149C70.6004 52.2276 70.5666 52.2549 70.5458 52.2913C70.5249 52.3277 70.5183 52.3706 70.5275 52.4116C70.5366 52.4526 70.5607 52.4886 70.5951 52.5127C70.6072 52.5202 70.6266 52.5356 70.653 52.5568C71.4485 53.1639 72.4068 53.5191 73.4052 53.5771Z" fill="#0C0C0C"/>
<path d="M73.3575 55.1682C73.5511 55.1803 73.7454 55.1757 73.9383 55.1543C73.9825 55.1496 74.0229 55.1275 74.0508 55.0929C74.0788 55.0583 74.0918 55.014 74.0871 54.9698C74.0824 54.9256 74.0604 54.885 74.0259 54.857C73.9913 54.8291 73.9471 54.816 73.903 54.8207C72.7427 54.9443 72.1891 54.4116 72.1657 54.3887C72.134 54.3587 72.0918 54.3422 72.0482 54.3428C72.0045 54.3434 71.9629 54.361 71.932 54.3919C71.9011 54.4228 71.8835 54.4645 71.8828 54.5083C71.8822 54.552 71.8986 54.5942 71.9285 54.626C72.3281 54.9665 72.833 55.1581 73.3575 55.1682Z" fill="#0C0C0C"/>
<path d="M79.1653 46.742C79.6169 46.742 79.983 46.3752 79.983 45.9228C79.983 45.4703 79.6169 45.1035 79.1653 45.1035C78.7137 45.1035 78.3477 45.4703 78.3477 45.9228C78.3477 46.3752 78.7137 46.742 79.1653 46.742Z" fill="#0C0C0C"/>
<path d="M71.1771 46.24C71.6287 46.24 71.9948 45.8733 71.9948 45.4208C71.9948 44.9684 71.6287 44.6016 71.1771 44.6016C70.7255 44.6016 70.3594 44.9684 70.3594 45.4208C70.3594 45.8733 70.7255 46.24 71.1771 46.24Z" fill="#0C0C0C"/>
<path d="M59.937 51.3619C57.9197 51.3877 56.2571 49.2462 56.2308 47.2251C56.2044 45.2039 57.8262 44.0688 59.8435 44.043L60.9001 45.3838L61.6708 51.3399L59.937 51.3619Z" fill="#E98862"/>
<path d="M61.9439 48.1145C61.9439 48.1145 62.6252 38.1197 65.6502 37.5026C67.6648 37.0916 72.5504 39.9546 77.0755 39.0898C79.0554 38.7126 80.9349 39.2026 81.126 40.1394C81.2016 40.5104 82.4351 35.1787 79.3349 31.1335C76.8664 27.9134 68.7886 27.0025 65.1136 28.0584C54.938 30.9832 59.4283 44.4833 59.4283 44.4833L59.882 47.9288L61.9439 48.1145Z" fill="#0C0C0C"/>
<path d="M74.6274 51.2184C74.6317 51.2187 74.6361 51.2187 74.6404 51.2184C75.2904 51.2117 76.38 51.1282 76.3757 50.6408C76.3713 50.237 75.2247 45.8904 75.0935 45.3961C75.0791 45.3576 75.0508 45.3258 75.0143 45.307C74.9778 45.2881 74.9356 45.2836 74.8959 45.2942C74.8562 45.3048 74.8218 45.3298 74.7995 45.3643C74.7772 45.3988 74.7684 45.4405 74.775 45.4811C75.2843 47.4062 76.043 50.3699 76.0462 50.6449C75.9833 50.7609 75.3119 50.8801 74.6387 50.8871C74.5962 50.888 74.5557 50.9052 74.5256 50.9352C74.4954 50.9651 74.4779 51.0056 74.4766 51.0481C74.4754 51.0906 74.4905 51.132 74.5188 51.1637C74.5471 51.1954 74.5865 51.215 74.6288 51.2184H74.6274Z" fill="#0C0C0C"/>
<path d="M76.847 41.4811C77.5302 41.2927 78.2515 41.2927 78.9346 41.4811C79.2703 41.5715 79.5904 41.7119 79.8844 41.8977C80.1749 42.0796 80.4414 42.2976 80.6774 42.5464C80.7227 42.5903 80.749 42.6502 80.7506 42.7133C80.7523 42.7763 80.7293 42.8376 80.6865 42.8838C80.6437 42.9301 80.5845 42.9577 80.5216 42.9608C80.4587 42.9639 80.3971 42.9422 80.35 42.9003L80.3352 42.8876C80.1166 42.6849 79.8734 42.5105 79.6113 42.3686C79.3542 42.2274 79.0773 42.1262 78.7899 42.0683C78.2242 41.9492 77.6371 41.982 77.0882 42.1635L77.065 42.1716C76.9744 42.2037 76.8749 42.1984 76.7882 42.1569C76.7015 42.1154 76.6348 42.0411 76.6027 41.9504C76.5707 41.8596 76.576 41.7599 76.6174 41.673C76.6588 41.5861 76.733 41.5193 76.8235 41.4872L76.847 41.4811Z" fill="#0C0C0C"/>
<path d="M72.0086 41.892C71.4888 41.6389 70.9114 41.5279 70.335 41.5703C70.0425 41.5894 69.7545 41.6528 69.4808 41.7583C69.2027 41.8641 68.9389 42.0045 68.6956 42.1761L68.68 42.1865C68.6277 42.22 68.5646 42.2321 68.5037 42.2203C68.4428 42.2084 68.3888 42.1735 68.353 42.1227C68.3171 42.072 68.3021 42.0094 68.3112 41.9479C68.3202 41.8864 68.3525 41.8308 68.4014 41.7925C68.6686 41.5775 68.9617 41.397 69.2738 41.2553C69.5899 41.1106 69.9259 41.0142 70.2705 40.9692C70.6156 40.9207 70.9657 40.9198 71.3111 40.9666C71.6656 41.0108 72.012 41.1052 72.3399 41.2472C72.4282 41.2856 72.4976 41.3577 72.5329 41.4474C72.5682 41.5372 72.5665 41.6373 72.5281 41.7258C72.4897 41.8143 72.4178 41.8839 72.3282 41.9192C72.2386 41.9546 72.1386 41.9529 72.0503 41.9144C72.0437 41.9115 72.0367 41.9083 72.0303 41.9048L72.0086 41.892Z" fill="#0C0C0C"/>
<path d="M75.8704 34.6003C77.3635 34.2877 78.2018 32.2493 77.7426 30.0474C77.2834 27.8455 75.7007 26.3139 74.2075 26.6264C72.7144 26.939 71.8761 28.9774 72.3353 31.1793C72.7945 33.3812 74.3772 34.9128 75.8704 34.6003Z" fill="#0C0C0C"/>
<path d="M88.369 227.515L110.157 158.648H70.6628C62.7291 158.648 59.4219 151.907 59.4219 143.959C59.4219 136.011 67.2212 129.043 75.1543 129.043H128.458C133.296 129.043 138.722 132.008 141.378 136.061C144.033 140.114 143.315 146.393 141.391 150.842L106.5 235.745" fill="#262626"/>
<path opacity="0.8" d="M88.369 227.515L110.157 158.648H70.6628C62.7291 158.648 59.4219 151.907 59.4219 143.959C59.4219 136.011 67.2212 129.043 75.1543 129.043H128.458C133.296 129.043 138.722 132.008 141.378 136.061C144.033 140.114 143.315 146.393 141.391 150.842L106.5 235.745" fill="#0A0A0A"/>
<path d="M143.693 242.331L107.261 158.648L59.4248 158.645C48.2161 157.764 43.0827 151.61 43.246 143.664C43.407 135.818 47.372 128.068 55.1676 128.068H119.642C125.41 128.187 129.948 134.573 132.088 139.941L162.375 237.208" fill="#262626"/>
<path d="M39.9815 128.165C39.9815 128.165 37.857 142.045 41.2245 149.762C45.4285 159.396 61.1881 158.645 61.1881 158.645L60.3 128.069L39.9815 128.165Z" fill="#262626"/>
<path d="M133.454 127.891L99.6632 120.876C98.2552 120.584 96.9434 119.94 95.8494 119.005C94.7554 118.071 93.9144 116.874 93.4043 115.527L80.114 80.4388C79.7093 79.3857 79.5162 78.2629 79.5459 77.1349C79.5756 76.0068 79.8275 74.8958 80.287 73.8656C80.7466 72.8354 81.4048 71.9063 82.2238 71.1316C83.0428 70.357 84.0064 69.7521 85.0594 69.3518C86.1125 68.9514 87.234 68.7634 88.3598 68.7986C89.4855 68.8338 90.5932 69.0915 91.6193 69.5569C92.6453 70.0222 93.5695 70.6861 94.3387 71.5104C95.1079 72.3347 95.7069 73.3031 96.1015 74.36L107.727 105.053L136.924 111.114C136.924 111.114 134.04 128.013 133.454 127.891Z" fill="#A0B73E"/>
<path d="M94.3729 89.3508C93.9829 93.9439 91.2168 122.599 90.8404 128.257H40.0024C39.7102 123.154 38.3986 100.842 37.291 90.8628C36.2336 81.3414 34.7514 77.0085 35.9692 74.0494C38.1171 68.8308 44.954 66.5002 49.5839 65.8724C52.4108 65.4889 56.6628 65.2139 56.6628 65.2139C56.6628 65.2139 57.023 72.5107 65.6076 72.9169C77.2935 73.4681 76.5132 65.2139 76.5711 65.2139C78.4642 65.2139 88.7692 66.5933 91.3459 68.2759C94.9856 70.6527 96.061 73.8913 96.1035 76.8672C96.1525 80.2933 94.8153 84.1403 94.3729 89.3508Z" fill="#A0B73E"/>
<path d="M92.3755 112.764H92.3633C92.3443 112.762 92.3259 112.757 92.309 112.748C92.2921 112.74 92.277 112.728 92.2647 112.713C92.2524 112.699 92.2431 112.682 92.2373 112.664C92.2316 112.645 92.2294 112.626 92.231 112.607L93.5507 96.7233C93.5518 96.7041 93.5568 96.6854 93.5653 96.6682C93.5738 96.651 93.5857 96.6358 93.6003 96.6234C93.6149 96.611 93.6319 96.6017 93.6502 96.596C93.6685 96.5904 93.6878 96.5886 93.7068 96.5907C93.7258 96.5922 93.7442 96.5975 93.7611 96.6063C93.7781 96.615 93.7931 96.627 93.8054 96.6415C93.8177 96.6561 93.827 96.6729 93.8328 96.6911C93.8386 96.7092 93.8407 96.7283 93.8391 96.7473L92.5194 112.631C92.5163 112.668 92.4998 112.701 92.4731 112.726C92.4465 112.75 92.4116 112.764 92.3755 112.764Z" fill="#0C0C0C"/>
<path d="M100.546 125.107L111.7 90.7521C111.896 90.1484 112.278 89.6224 112.791 89.2493C113.303 88.8763 113.921 88.6753 114.554 88.6753H160C160.474 88.6753 160.941 88.7876 161.363 89.0031C161.785 89.2186 162.15 89.5312 162.428 89.9152C162.707 90.2992 162.89 90.7439 162.964 91.2127C163.038 91.6815 163.001 92.1612 162.854 92.6125L151.699 126.967C151.503 127.571 151.122 128.097 150.609 128.47C150.096 128.843 149.479 129.044 148.845 129.044H103.4C102.926 129.044 102.459 128.932 102.037 128.716C101.615 128.501 101.25 128.188 100.971 127.804C100.693 127.42 100.509 126.975 100.435 126.506C100.361 126.038 100.399 125.558 100.546 125.107Z" fill="#292A2E"/>
<path opacity="0.2" d="M100.546 125.107L111.7 90.7521C111.896 90.1484 112.278 89.6224 112.791 89.2493C113.303 88.8763 113.921 88.6753 114.554 88.6753H160C160.474 88.6753 160.941 88.7876 161.363 89.0031C161.785 89.2186 162.15 89.5312 162.428 89.9152C162.707 90.2992 162.89 90.7439 162.964 91.2127C163.038 91.6815 163.001 92.1612 162.854 92.6125L151.699 126.967C151.503 127.571 151.122 128.097 150.609 128.47C150.096 128.843 149.479 129.044 148.845 129.044H103.4C102.926 129.044 102.459 128.932 102.037 128.716C101.615 128.501 101.25 128.188 100.971 127.804C100.693 127.42 100.509 126.975 100.435 126.506C100.361 126.038 100.399 125.558 100.546 125.107Z" fill="white"/>
<path d="M109.645 126.258H79.224C78.466 126.258 77.8516 126.874 77.8516 127.633V127.669C77.8516 128.428 78.466 129.044 79.224 129.044H109.645C110.403 129.044 111.018 128.428 111.018 127.669V127.633C111.018 126.874 110.403 126.258 109.645 126.258Z" fill="#292A2E"/>
<path opacity="0.2" d="M109.645 126.258H79.224C78.466 126.258 77.8516 126.874 77.8516 127.633V127.669C77.8516 128.428 78.466 129.044 79.224 129.044H109.645C110.403 129.044 111.018 128.428 111.018 127.669V127.633C111.018 126.874 110.403 126.258 109.645 126.258Z" fill="white"/>
<path d="M131.7 115.311C134.332 115.311 136.466 113.173 136.466 110.536C136.466 107.898 134.332 105.76 131.7 105.76C129.068 105.76 126.934 107.898 126.934 110.536C126.934 113.173 129.068 115.311 131.7 115.311Z" fill="white"/>
<path d="M94.8344 82.9473H82.75V97.7957H94.8344V82.9473Z" fill="white"/>
<path d="M82.7495 95.3293C81.7707 95.3293 80.8139 95.0385 80.0001 94.4937C79.1863 93.9489 78.552 93.1745 78.1775 92.2686C77.8029 91.3626 77.7049 90.3657 77.8959 89.4039C78.0868 88.4421 78.5581 87.5587 79.2502 86.8653C79.9423 86.1719 80.8241 85.6997 81.784 85.5084C82.744 85.317 83.739 85.4152 84.6433 85.7905C85.5475 86.1658 86.3204 86.8013 86.8642 87.6166C87.4079 88.432 87.6982 89.3906 87.6982 90.3712C87.6967 91.6857 87.1749 92.946 86.2471 93.8755C85.3194 94.805 84.0615 95.3278 82.7495 95.3293ZM82.7495 87.4441C82.1716 87.4441 81.6067 87.6158 81.1262 87.9375C80.6457 88.2591 80.2712 88.7164 80.05 89.2513C79.8289 89.7862 79.771 90.3748 79.8838 90.9427C79.9966 91.5106 80.2749 92.0322 80.6835 92.4416C81.0922 92.851 81.6128 93.1297 82.1796 93.2427C82.7464 93.3556 83.3339 93.2976 83.8678 93.076C84.4017 92.8543 84.858 92.4791 85.179 91.9976C85.5001 91.5162 85.6714 90.9502 85.6713 90.3712C85.6706 89.5951 85.3625 88.8509 84.8147 88.3022C84.2669 87.7534 83.5241 87.4448 82.7495 87.4441Z" fill="white"/>
<path d="M83.4468 92.5708C83.3367 92.284 83.1293 92.0452 82.8611 91.8962C82.5928 91.7472 82.2808 91.6975 81.9797 91.7559C81.9854 91.742 81.9884 91.7271 81.9886 91.7121L82.394 91.5305C82.678 91.4095 82.9115 91.1939 83.0551 90.9203C83.1987 90.6466 83.2435 90.3316 83.1819 90.0286C83.1393 89.8395 83.0553 89.6621 82.9361 89.5094C82.8168 89.3567 82.6653 89.2324 82.4923 89.1454C82.3193 89.0585 82.1292 89.0111 81.9357 89.0067C81.7422 89.0022 81.5501 89.0408 81.3733 89.1198L80.4172 89.5482C80.4172 89.5445 80.4172 89.5407 80.4152 89.5369C80.4115 89.5292 80.4068 89.522 80.4013 89.5155C80.6369 89.3376 80.8053 89.085 80.8792 88.7988C80.9531 88.5127 80.928 88.2099 80.8081 87.9399C80.5426 87.2202 79.6016 87.1627 78.9793 87.4409L76.4794 88.4514L77.2339 87.6846C77.4703 87.4346 77.6032 87.104 77.6057 86.7597C77.6081 86.4153 77.48 86.0828 77.2472 85.8294C77.1224 85.7029 76.9732 85.6032 76.8086 85.5363C76.6441 85.4695 76.4676 85.437 76.2901 85.4407C76.1126 85.4445 75.9376 85.4844 75.776 85.5581C75.6144 85.6318 75.4695 85.7378 75.3501 85.8695L66.4609 95.596L69.5012 98.5294C70.4452 99.4406 71.6394 100.049 72.9305 100.275C74.2217 100.502 75.551 100.337 76.7481 99.8021L82.1661 97.3685C82.4501 97.2475 82.6837 97.032 82.8273 96.7583C82.9709 96.4846 83.0156 96.1696 82.954 95.8666C82.8925 95.5947 82.7459 95.3495 82.5355 95.1669C82.3252 94.9842 82.0622 94.8737 81.7848 94.8513C81.7879 94.8362 81.7879 94.8207 81.785 94.8056C81.782 94.7905 81.7761 94.7762 81.7675 94.7634C81.759 94.7507 81.748 94.7397 81.7352 94.7312C81.7224 94.7228 81.7081 94.7169 81.693 94.714L82.6934 94.2667C83.0101 94.1324 83.2641 93.8825 83.404 93.5677C83.5439 93.2528 83.5592 92.8965 83.4468 92.5708Z" fill="#E98862"/>
<path opacity="0.2" d="M78.6077 90.3714C78.579 90.3715 78.5512 90.3616 78.5291 90.3433C78.507 90.3251 78.4919 90.2996 78.4865 90.2714C78.4812 90.2432 78.4858 90.214 78.4997 90.1889C78.5136 90.1637 78.5358 90.1442 78.5625 90.1338L80.2535 89.4666C80.2685 89.4606 80.2845 89.4577 80.3006 89.458C80.3168 89.4583 80.3327 89.4618 80.3475 89.4682C80.3622 89.4746 80.3756 89.4839 80.3868 89.4955C80.398 89.5072 80.4068 89.5209 80.4127 89.5359C80.4187 89.5509 80.4216 89.567 80.4213 89.5831C80.421 89.5993 80.4176 89.6152 80.4111 89.63C80.4047 89.6449 80.3954 89.6583 80.3838 89.6695C80.3722 89.6807 80.3585 89.6895 80.3435 89.6955L78.6526 90.3627C78.6383 90.3684 78.6231 90.3713 78.6077 90.3714Z" fill="#0C0C0C"/>
<path opacity="0.2" d="M79.5521 92.7669C79.5237 92.7668 79.4961 92.7568 79.4742 92.7386C79.4523 92.7204 79.4373 92.6952 79.4319 92.6672C79.4265 92.6392 79.431 92.6102 79.4446 92.5852C79.4581 92.5601 79.48 92.5405 79.5064 92.5298L81.8193 91.5978C81.8491 91.5873 81.8818 91.5887 81.9106 91.6018C81.9394 91.6149 81.9621 91.6386 81.9738 91.6679C81.9856 91.6973 81.9857 91.7301 81.9739 91.7595C81.9622 91.7889 81.9396 91.8127 81.9108 91.8258L79.5982 92.7581C79.5835 92.7639 79.5679 92.7668 79.5521 92.7669Z" fill="#0C0C0C"/>
<path opacity="0.2" d="M80.5603 95.3677C80.5315 95.3677 80.5037 95.3576 80.4816 95.3391C80.4595 95.3207 80.4446 95.295 80.4395 95.2667C80.4343 95.2383 80.4393 95.209 80.4535 95.184C80.4677 95.1589 80.4902 95.1396 80.5172 95.1295L81.6198 94.715C81.6503 94.7034 81.6841 94.7045 81.7138 94.7179C81.7435 94.7314 81.7666 94.7561 81.7781 94.7866C81.7897 94.8172 81.7886 94.8511 81.7752 94.8808C81.7618 94.9106 81.7371 94.9338 81.7066 94.9453L80.604 95.3599C80.59 95.3651 80.5752 95.3677 80.5603 95.3677Z" fill="#0C0C0C"/>
<path d="M86.0154 73.5026C85.9621 73.5027 85.9098 73.488 85.8642 73.4601C85.8187 73.4323 85.7817 73.3924 85.7574 73.3448C85.0981 72.057 84.2778 70.454 84.3705 68.7734C84.444 67.4369 85.0695 66.2495 85.6735 65.1028C86.0638 64.4096 86.3965 63.6854 86.6681 62.9375C86.9995 61.9054 87.0831 60.8096 86.912 59.7391C86.7409 58.6686 86.32 57.6537 85.6836 56.7769C85.6598 56.7464 85.6423 56.7114 85.6322 56.6739C85.6221 56.6365 85.6196 56.5974 85.6248 56.559C85.63 56.5206 85.6429 56.4837 85.6626 56.4503C85.6823 56.417 85.7085 56.3879 85.7396 56.3649C85.7707 56.3418 85.8062 56.3253 85.8438 56.3162C85.8814 56.3071 85.9204 56.3057 85.9586 56.3119C85.9968 56.3182 86.0333 56.3321 86.0661 56.3528C86.0988 56.3734 86.1271 56.4005 86.1492 56.4323C86.8405 57.3837 87.2979 58.4853 87.4841 59.6473C87.6702 60.8093 87.5799 61.9989 87.2205 63.1194C86.9393 63.8982 86.5939 64.6522 86.188 65.3737C85.5857 66.5164 85.0171 67.5956 84.9505 68.8056C84.8665 70.3289 85.6147 71.7907 86.2746 73.0802C86.2972 73.1244 86.3081 73.1737 86.3062 73.2233C86.3044 73.273 86.2898 73.3213 86.264 73.3637C86.2382 73.4061 86.2019 73.4411 86.1587 73.4654C86.1155 73.4898 86.0667 73.5026 86.0172 73.5026H86.0154Z" fill="white"/>
<path d="M90.6635 78.0306C90.5993 78.0306 90.537 78.0092 90.4862 77.9699C90.4355 77.9305 90.3992 77.8753 90.3832 77.813C90.3672 77.7508 90.3722 77.6849 90.3976 77.6259C90.423 77.5668 90.4672 77.5178 90.5234 77.4867C91.5965 76.8937 91.7166 75.2434 91.2125 73.9904C90.9625 73.4145 90.6699 72.8581 90.3372 72.3258C89.8925 71.6361 89.5309 70.896 89.2601 70.1211C88.9835 69.1762 88.9662 68.1742 89.2098 67.2203C89.4535 66.2664 89.9491 65.3959 90.6447 64.7002C90.7 64.6475 90.7738 64.6187 90.8501 64.6202C90.9264 64.6217 90.9991 64.6533 91.0523 64.7082C91.1054 64.763 91.1348 64.8367 91.134 64.9132C91.1333 64.9897 91.1023 65.0628 91.0481 65.1165C90.4279 65.7369 89.9859 66.5132 89.7687 67.3638C89.5514 68.2144 89.5669 69.1079 89.8134 69.9505C90.0709 70.6816 90.4139 71.3796 90.8352 72.0299C91.1836 72.587 91.4891 73.1697 91.7493 73.7731C92.3397 75.2402 92.2083 77.2181 90.8028 77.9944C90.7602 78.018 90.7123 78.0305 90.6635 78.0306Z" fill="white"/>
<path d="M76.652 103.318L34.0157 120.997C32.4785 121.627 30.7913 121.795 29.1602 121.481C27.5292 121.166 26.0249 120.382 24.8312 119.225C23.6375 118.068 22.8061 116.587 22.4385 114.964C22.071 113.341 22.1832 111.646 22.7615 110.086L35.478 75.2876C37.122 70.8526 41.7534 68.3023 46.1803 69.9498C48.306 70.7408 50.031 72.3455 50.9758 74.4108C51.9207 76.4761 52.008 78.8328 51.2185 80.9626L45.4182 97.433L70.4064 87.7811" fill="#A0B73E"/>
<path d="M76.5487 103.476C76.526 103.475 76.5039 103.469 76.485 103.456C76.4662 103.443 76.4515 103.425 76.4427 103.404L70.2391 87.9709L45.3347 97.6005C45.314 97.6085 45.2915 97.6103 45.2699 97.6058C45.2483 97.6012 45.2285 97.5904 45.2129 97.5747C45.1973 97.559 45.1866 97.5391 45.1821 97.5174C45.1776 97.4957 45.1795 97.4732 45.1876 97.4525L49.0386 87.5497C49.0496 87.5215 49.0713 87.4988 49.0989 87.4867C49.1266 87.4745 49.158 87.4739 49.1861 87.4849C49.2142 87.4959 49.2369 87.5176 49.249 87.5453C49.2611 87.5731 49.2618 87.6045 49.2508 87.6327L45.4936 97.2939L70.262 87.7168C70.2899 87.706 70.321 87.7067 70.3484 87.7186C70.3759 87.7305 70.3976 87.7528 70.4088 87.7806L76.6544 103.319C76.6653 103.347 76.6647 103.378 76.653 103.406C76.6412 103.434 76.619 103.456 76.5913 103.467C76.5777 103.473 76.5633 103.476 76.5487 103.476Z" fill="#0C0C0C"/>
<path d="M37.5132 100.665C37.4866 100.665 37.4606 100.656 37.44 100.639C37.4194 100.622 37.4054 100.598 37.4004 100.572C37.3955 100.546 37.3999 100.519 37.4129 100.495C37.4259 100.472 37.4466 100.454 37.4715 100.444L45.2717 97.3694C45.2857 97.3637 45.3007 97.3607 45.3158 97.3608C45.3309 97.3609 45.3459 97.364 45.3598 97.37C45.3737 97.3759 45.3863 97.3846 45.3969 97.3954C45.4074 97.4063 45.4157 97.4191 45.4213 97.4332C45.4268 97.4473 45.4295 97.4624 45.4292 97.4775C45.4289 97.4927 45.4255 97.5076 45.4194 97.5215C45.4133 97.5353 45.4045 97.5478 45.3935 97.5582C45.3825 97.5686 45.3696 97.5767 45.3554 97.5821L37.5549 100.657C37.5416 100.662 37.5275 100.665 37.5132 100.665Z" fill="#0C0C0C"/>
<path d="M39.3292 118.932C39.3027 118.932 39.2771 118.923 39.2566 118.907C39.2362 118.89 39.2222 118.866 39.217 118.84C39.2119 118.814 39.2159 118.788 39.2285 118.764C39.241 118.741 39.2613 118.723 39.2857 118.713L76.5059 103.256C76.5197 103.25 76.5346 103.248 76.5495 103.248C76.5645 103.248 76.5793 103.251 76.5931 103.256C76.6069 103.262 76.6194 103.27 76.63 103.281C76.6405 103.292 76.6489 103.304 76.6546 103.318C76.6603 103.332 76.6632 103.347 76.6632 103.362C76.6632 103.377 76.6602 103.392 76.6545 103.405C76.6488 103.419 76.6404 103.432 76.6298 103.442C76.6192 103.453 76.6066 103.461 76.5928 103.467L39.3726 118.924C39.3589 118.929 39.3441 118.932 39.3292 118.932Z" fill="#0C0C0C"/>
<path d="M228.29 211.956C228.213 211.956 228.139 211.925 228.085 211.871C227.677 211.462 227.012 203.963 225.221 181.636C224.488 172.499 223.796 163.87 223.291 158.626C223.254 158.252 223.11 158.208 223.062 158.194C222.37 157.985 220.267 159.646 219.093 161.101C219.045 161.161 218.975 161.199 218.898 161.207C218.822 161.215 218.745 161.193 218.686 161.144C218.626 161.096 218.588 161.026 218.58 160.949C218.572 160.873 218.594 160.796 218.642 160.736C219.419 159.774 221.95 157.252 223.228 157.638C223.486 157.716 223.807 157.94 223.867 158.57C224.373 163.819 225.065 172.451 225.798 181.589C226.887 195.157 228.12 210.528 228.525 211.496C228.556 211.539 228.574 211.591 228.578 211.644C228.582 211.697 228.572 211.75 228.547 211.798C228.523 211.845 228.486 211.885 228.441 211.913C228.395 211.941 228.343 211.956 228.29 211.956Z" fill="#494949"/>
<path d="M222.548 168.249C227.353 164.39 228.945 158.384 226.105 154.834C223.265 151.284 217.067 151.534 212.262 155.393C207.458 159.252 205.865 165.258 208.705 168.808C211.546 172.358 217.743 172.108 222.548 168.249Z" fill="#E3A924"/>
<path opacity="0.2" d="M222.548 168.249C227.353 164.39 228.945 158.384 226.105 154.834C223.265 151.284 217.067 151.534 212.262 155.393C207.458 159.252 205.865 165.258 208.705 168.808C211.546 172.358 217.743 172.108 222.548 168.249Z" fill="white"/>
<path d="M210.051 169.711C210.023 169.711 209.997 169.703 209.973 169.689C209.95 169.674 209.932 169.653 209.92 169.628C209.908 169.603 209.904 169.575 209.907 169.548C209.911 169.52 209.922 169.495 209.94 169.473L223.633 152.929C223.645 152.914 223.66 152.902 223.677 152.893C223.694 152.883 223.712 152.878 223.731 152.876C223.75 152.874 223.77 152.876 223.788 152.881C223.807 152.887 223.824 152.896 223.838 152.908C223.853 152.921 223.865 152.936 223.874 152.953C223.883 152.97 223.889 152.989 223.89 153.008C223.892 153.027 223.89 153.047 223.884 153.065C223.878 153.083 223.868 153.1 223.856 153.115L210.162 169.659C210.149 169.675 210.132 169.688 210.113 169.698C210.093 169.707 210.072 169.711 210.051 169.711Z" fill="white"/>
<path d="M231.278 208.409C231.232 208.409 231.186 208.398 231.145 208.377C231.104 208.356 231.069 208.325 231.042 208.287C231.015 208.249 230.998 208.206 230.991 208.16C230.985 208.114 230.989 208.067 231.004 208.024L236.148 193.203C236.299 192.768 236.557 192.377 236.899 192.068C237.24 191.758 237.653 191.539 238.1 191.431C238.548 191.323 239.015 191.329 239.459 191.448C239.904 191.568 240.311 191.798 240.644 192.116L243.364 194.719C243.419 194.772 243.451 194.845 243.453 194.922C243.455 194.999 243.426 195.073 243.373 195.129C243.32 195.185 243.247 195.217 243.17 195.219C243.093 195.22 243.019 195.191 242.963 195.138L240.244 192.536C239.981 192.285 239.66 192.103 239.309 192.009C238.958 191.915 238.589 191.91 238.236 191.995C237.883 192.081 237.557 192.253 237.288 192.498C237.018 192.742 236.815 193.05 236.695 193.394L231.551 208.214C231.532 208.271 231.495 208.32 231.446 208.355C231.397 208.39 231.338 208.409 231.278 208.409Z" fill="#494949"/>
<path d="M250.959 202.924C254.52 200.1 254.308 193.89 250.486 189.052C246.665 184.215 240.68 182.582 237.119 185.406C233.558 188.23 233.77 194.441 237.592 199.278C241.414 204.116 247.398 205.748 250.959 202.924Z" fill="#E3A924"/>
<path d="M225.953 211.011C225.887 211.011 225.824 210.989 225.773 210.948C225.722 210.908 225.686 210.851 225.671 210.788L217.04 174.629C216.981 174.382 216.855 174.157 216.676 173.977C216.498 173.798 216.273 173.671 216.027 173.611C215.782 173.551 215.524 173.56 215.283 173.637C215.042 173.715 214.827 173.857 214.662 174.049L212.001 177.129C211.976 177.158 211.946 177.182 211.912 177.199C211.878 177.216 211.841 177.226 211.803 177.229C211.765 177.231 211.727 177.227 211.691 177.215C211.654 177.203 211.621 177.184 211.592 177.159C211.564 177.134 211.54 177.103 211.523 177.069C211.506 177.035 211.496 176.998 211.493 176.96C211.49 176.922 211.495 176.884 211.507 176.848C211.519 176.812 211.538 176.778 211.563 176.749L214.224 173.669C214.459 173.397 214.765 173.195 215.107 173.086C215.449 172.976 215.815 172.964 216.164 173.049C216.513 173.134 216.832 173.315 217.086 173.57C217.339 173.825 217.518 174.145 217.602 174.495L226.233 210.654C226.251 210.729 226.238 210.808 226.198 210.873C226.158 210.939 226.094 210.986 226.019 211.004C225.997 211.009 225.975 211.011 225.953 211.011Z" fill="#494949"/>
<path d="M222.769 185.161C223.818 179.082 221.041 173.525 216.566 172.75C212.091 171.975 207.613 176.275 206.564 182.354C205.515 188.433 208.292 193.99 212.766 194.765C217.241 195.54 221.719 191.241 222.769 185.161Z" fill="#E3A924"/>
<path d="M228.29 211.956C228.278 211.956 228.266 211.955 228.254 211.953C228.178 211.944 228.109 211.905 228.061 211.844C228.014 211.784 227.993 211.707 228.002 211.63L233.514 166.793C233.574 166.304 233.774 165.843 234.089 165.466C234.404 165.088 234.822 164.81 235.291 164.664C235.76 164.518 236.262 164.512 236.735 164.645C237.208 164.778 237.632 165.046 237.957 165.415L244.257 172.564C244.308 172.621 244.334 172.697 244.329 172.774C244.325 172.851 244.29 172.922 244.232 172.973C244.174 173.024 244.099 173.05 244.022 173.045C243.946 173.041 243.874 173.005 243.823 172.948L237.523 165.799C237.272 165.513 236.944 165.307 236.578 165.204C236.212 165.101 235.824 165.106 235.462 165.219C235.099 165.331 234.776 165.547 234.533 165.839C234.289 166.131 234.135 166.487 234.089 166.865L228.576 211.701C228.567 211.771 228.534 211.836 228.481 211.882C228.428 211.929 228.361 211.955 228.29 211.956Z" fill="#494949"/>
<path d="M250.72 176.536C252.918 172.555 250.332 166.907 244.943 163.92C239.555 160.934 233.405 161.741 231.207 165.722C229.008 169.704 231.595 175.352 236.983 178.338C242.372 181.324 248.522 180.518 250.72 176.536Z" fill="#E3A924"/>
<path opacity="0.2" d="M250.959 202.924C254.52 200.1 254.308 193.89 250.486 189.052C246.665 184.215 240.68 182.582 237.119 185.406C233.558 188.23 233.77 194.441 237.592 199.278C241.414 204.116 247.398 205.748 250.959 202.924Z" fill="white"/>
<path opacity="0.5" d="M222.769 185.161C223.818 179.082 221.041 173.525 216.566 172.75C212.091 171.975 207.613 176.275 206.564 182.354C205.515 188.433 208.292 193.99 212.766 194.765C217.241 195.54 221.719 191.241 222.769 185.161Z" fill="white"/>
<path opacity="0.5" d="M250.72 176.536C252.918 172.555 250.332 166.907 244.943 163.92C239.555 160.934 233.405 161.741 231.207 165.722C229.008 169.704 231.595 175.352 236.983 178.338C242.372 181.324 248.522 180.518 250.72 176.536Z" fill="white"/>
<path d="M235.343 250H221.243L218.906 204.801H237.679L235.343 250Z" fill="#292A2E"/>
<path opacity="0.3" d="M235.343 250H221.243L218.906 204.801H237.679L235.343 250Z" fill="white"/>
<path d="M250.962 203.068C250.94 203.068 250.919 203.063 250.899 203.053C250.879 203.044 250.862 203.03 250.848 203.013L237.008 185.494C236.984 185.464 236.973 185.426 236.978 185.388C236.982 185.349 237.001 185.315 237.031 185.291C237.062 185.267 237.1 185.256 237.138 185.26C237.176 185.265 237.211 185.284 237.235 185.314L251.075 202.832C251.092 202.854 251.103 202.879 251.106 202.906C251.109 202.933 251.104 202.961 251.092 202.985C251.081 203.01 251.062 203.031 251.039 203.045C251.016 203.06 250.989 203.067 250.962 203.068Z" fill="white"/>
<path d="M249.797 177.94C249.766 177.94 249.736 177.929 249.712 177.911L232.001 164.955C231.985 164.944 231.972 164.93 231.963 164.914C231.953 164.897 231.946 164.879 231.943 164.86C231.94 164.842 231.941 164.822 231.945 164.804C231.95 164.785 231.958 164.768 231.969 164.752C231.98 164.737 231.995 164.724 232.011 164.714C232.027 164.704 232.045 164.698 232.064 164.695C232.083 164.692 232.102 164.692 232.12 164.697C232.139 164.701 232.156 164.71 232.172 164.721L249.882 177.678C249.906 177.696 249.924 177.721 249.933 177.75C249.943 177.779 249.942 177.81 249.933 177.839C249.924 177.868 249.905 177.893 249.881 177.911C249.857 177.929 249.827 177.938 249.797 177.939V177.94Z" fill="white"/>
<path d="M212.047 194.577C212.034 194.577 212.022 194.575 212.01 194.572C211.973 194.562 211.941 194.538 211.922 194.504C211.903 194.471 211.897 194.431 211.907 194.394L217.545 173.231C217.55 173.212 217.558 173.194 217.57 173.179C217.581 173.163 217.596 173.15 217.612 173.141C217.629 173.131 217.647 173.125 217.666 173.122C217.685 173.119 217.705 173.121 217.723 173.126C217.742 173.13 217.759 173.139 217.774 173.151C217.79 173.163 217.802 173.177 217.812 173.194C217.821 173.211 217.827 173.229 217.83 173.248C217.832 173.268 217.83 173.287 217.825 173.305L212.187 194.469C212.179 194.5 212.161 194.527 212.135 194.547C212.11 194.566 212.079 194.577 212.047 194.577Z" fill="white"/>
</g>
<defs>
<clipPath id="clip0_776_4643">
<rect width="253" height="250" fill="white" transform="translate(0.5)"/>
</clipPath>
</defs>
</svg>
