<svg width="427" height="382" viewBox="0 0 427 382" fill="none" xmlns="http://www.w3.org/2000/svg">
<g clip-path="url(#clip0_776_4973)">
<path d="M418.137 257.109C418.208 302.078 403.304 345.79 375.78 381.345H54.0373C26.513 345.79 11.6097 302.078 11.6799 257.109C11.6799 144.83 102.672 53.8169 214.913 53.8169C327.154 53.8169 418.137 144.833 418.137 257.109Z" fill="white"/>
<path opacity="0.1" d="M418.137 257.109C418.208 302.078 403.304 345.79 375.78 381.345H54.0373C26.513 345.79 11.6097 302.078 11.6799 257.109C11.6799 144.83 102.672 53.8169 214.913 53.8169C327.154 53.8169 418.137 144.833 418.137 257.109Z" fill="#A0B73E"/>
<path d="M315.318 382H229.836L224.707 313.753L312.256 316.837C312.256 316.837 313.315 308.88 313.368 323.963C313.403 334.427 315.588 355.171 315.318 382Z" fill="#262626"/>
<path d="M260.918 309.832C260.839 311.457 260.75 313.091 260.644 314.715C259.283 337.353 256.153 359.85 251.284 382H165.848C166.96 347.347 167.887 319.899 167.887 319.899L224.705 313.753L228.112 313.38L260.918 309.832Z" fill="#262626"/>
<path d="M281.524 78.568C281.524 78.568 282.493 100.89 287.314 109.093C301.202 132.708 304.774 158.993 290.005 172.337C275.235 185.682 183.058 183.726 176.808 152.095C171.546 125.465 184.228 122.909 187.806 101.126C189.425 91.2698 193.728 70.6221 193.728 70.6221" fill="#065366"/>
<path d="M202.652 148.619C202.811 148.598 204.577 177.912 238.62 175.356C262.188 173.59 270.591 148.577 271.131 148.577C268.59 148.037 264.311 147.251 263.183 146.649C259.472 144.654 254.88 142.579 253.684 135.37C252.994 131.214 254.164 109.957 253.804 105.753L217.627 113.83C218.133 122.71 221.671 143.292 209.271 146.938C207.208 147.538 204.986 148.091 202.652 148.619Z" fill="#E98862"/>
<path opacity="0.52" d="M217.121 138.524C217.688 136.697 218.053 134.814 218.209 132.908C218.607 128.558 218.528 124.177 217.973 119.844C225.326 118.852 232.253 115.816 237.967 111.081C238.638 113.563 242.333 124.406 241.31 126.765C239.377 131.223 230.291 138.524 217.121 138.524Z" fill="#0C0C0C"/>
<path d="M220.362 129.26C234.589 130.975 253.171 125.696 257.435 106.79L261.282 89.731C265.546 70.8252 259.075 53.2586 241.28 49.2409C223.486 45.2247 206.728 57.55 202.464 76.458L200.76 84.0102C199.125 91.2634 194.978 126.205 220.362 129.26Z" fill="#E98862"/>
<path d="M216.958 108.374C219.69 108.426 222.371 109.118 224.785 110.397C224.883 110.449 224.956 110.538 224.989 110.644C225.023 110.75 225.013 110.865 224.963 110.964C224.913 111.063 224.827 111.139 224.722 111.175C224.617 111.211 224.502 111.205 224.401 111.158C219.192 108.53 214.308 108.552 210.278 111.223C210.196 111.279 210.112 111.331 210.025 111.379C209.925 111.422 209.812 111.424 209.71 111.385C209.608 111.347 209.524 111.271 209.477 111.173C209.429 111.075 209.421 110.962 209.453 110.858C209.486 110.754 209.557 110.667 209.652 110.613C209.684 110.596 209.737 110.56 209.81 110.511C211.927 109.103 214.416 108.359 216.958 108.374Z" fill="#0C0C0C"/>
<path d="M216.264 102.586H216.228C215.497 102.475 214.772 102.323 214.057 102.132C212.989 101.839 211.586 101.338 211.724 100.379C211.882 99.2857 216.581 87.9261 217.116 86.6346C217.138 86.5771 217.171 86.5246 217.214 86.4802C217.257 86.4359 217.308 86.4005 217.364 86.3762C217.421 86.3519 217.482 86.3392 217.543 86.3389C217.605 86.3385 217.666 86.3505 217.723 86.3741C217.78 86.3977 217.831 86.4325 217.874 86.4764C217.918 86.5203 217.951 86.5724 217.974 86.6296C217.997 86.6868 218.008 86.748 218.007 86.8096C218.005 86.8712 217.992 86.9318 217.966 86.988C215.962 91.8252 212.742 99.7749 212.636 100.511C212.769 100.843 214.545 101.411 216.363 101.674C216.48 101.692 216.586 101.754 216.659 101.848C216.731 101.942 216.765 102.06 216.753 102.178C216.74 102.296 216.683 102.405 216.592 102.481C216.502 102.558 216.385 102.597 216.267 102.59L216.264 102.586Z" fill="#0C0C0C"/>
<path d="M275.402 96.2152L259.45 92.7106C247.461 87.3633 244.517 66.175 244.517 66.175C244.517 66.175 229.243 80.0624 193.73 70.6222C193.73 70.6222 202.649 20.9327 255.029 37.298C271.919 42.5752 283.559 60.1902 281.233 83.1145C279.6 99.1748 275.402 96.2152 275.402 96.2152Z" fill="#065366"/>
<path d="M255.028 112.299C260.436 113.519 266.125 108.719 267.346 103.312C268.566 97.9041 264.854 93.9289 259.444 92.709L255.84 95.7044L250.379 111.255L255.028 112.299Z" fill="#E98862"/>
<path d="M214.209 76.5361C212.657 75.455 210.842 74.8111 208.956 74.6719C208.028 74.598 207.093 74.6641 206.184 74.868C205.285 75.066 204.413 75.3767 203.591 75.7926C203.478 75.8463 203.39 75.942 203.347 76.0594C203.303 76.1767 203.307 76.3065 203.357 76.4211C203.408 76.5357 203.501 76.6261 203.617 76.673C203.733 76.72 203.863 76.7198 203.979 76.6725L204.013 76.6583C204.772 76.3179 205.57 76.0739 206.389 75.9321C207.199 75.7878 208.026 75.7669 208.843 75.8702C210.462 76.0628 212.002 76.6802 213.306 77.6598L213.347 77.6933C213.498 77.8111 213.69 77.864 213.88 77.8404C214.07 77.8167 214.243 77.7185 214.361 77.5673C214.479 77.4161 214.532 77.2243 214.508 77.0342C214.484 76.844 214.386 76.671 214.235 76.5532L214.209 76.5361Z" fill="#0C0C0C"/>
<path d="M228.146 79.7679C229.742 79.4351 231.398 79.5308 232.946 80.0453C233.729 80.2994 234.468 80.6702 235.14 81.1452C235.821 81.6218 236.44 82.1822 236.982 82.8132L237.007 82.8401C237.091 82.9317 237.209 82.9867 237.333 82.9935C237.458 83.0002 237.58 82.9581 237.675 82.8762C237.769 82.7942 237.828 82.6788 237.838 82.5543C237.849 82.4298 237.811 82.3061 237.732 82.2092C237.164 81.4835 236.508 80.8321 235.777 80.2705C235.042 79.6992 234.225 79.2419 233.353 78.9141C231.587 78.237 229.671 78.0474 227.806 78.3653C227.711 78.3796 227.619 78.413 227.537 78.4634C227.455 78.5138 227.383 78.5801 227.327 78.6586C227.271 78.7371 227.231 78.826 227.209 78.9202C227.188 79.0144 227.186 79.112 227.203 79.207C227.22 79.3021 227.256 79.3928 227.308 79.4738C227.361 79.5547 227.429 79.6243 227.509 79.6784C227.589 79.7325 227.679 79.77 227.774 79.7887C227.869 79.8074 227.966 79.8069 228.061 79.7873L228.09 79.7813L228.146 79.7679Z" fill="#0C0C0C"/>
<path d="M259.419 92.5054L259.594 92.0662C239.504 84.0509 245.175 64.2525 245.234 64.0527L244.782 63.917C244.723 64.1198 238.922 84.3276 259.419 92.5054Z" fill="#0C0C0C"/>
<path d="M205.559 84.5755C206.8 84.5755 207.806 83.5693 207.806 82.328C207.806 81.0868 206.8 80.0806 205.559 80.0806C204.318 80.0806 203.312 81.0868 203.312 82.328C203.312 83.5693 204.318 84.5755 205.559 84.5755Z" fill="#0C0C0C"/>
<path d="M227.77 88.3992C229.011 88.3992 230.017 87.393 230.017 86.1518C230.017 84.9105 229.011 83.9043 227.77 83.9043C226.529 83.9043 225.523 84.9105 225.523 86.1518C225.523 87.393 226.529 88.3992 227.77 88.3992Z" fill="#0C0C0C"/>
<path opacity="0.1" d="M234.684 102.076C234.93 100.359 233.232 98.6957 230.892 98.361C228.552 98.0262 226.456 99.1469 226.21 100.864C225.965 102.581 227.663 104.245 230.003 104.579C232.343 104.914 234.439 103.793 234.684 102.076Z" fill="#0C0C0C"/>
<path opacity="0.1" d="M205.369 97.1181C205.12 98.8332 203.024 99.9517 200.683 99.6206C200.279 99.5622 199.882 99.4623 199.498 99.3223C199.436 97.2695 199.476 95.2957 199.579 93.4732C200.234 93.3257 200.911 93.3017 201.576 93.4024C203.916 93.7312 205.613 95.3971 205.369 97.1181Z" fill="#0C0C0C"/>
<path d="M38.4104 146.898C38.7236 146.277 39.2218 145.769 39.836 145.444C40.4503 145.119 41.1503 144.993 41.8394 145.083C41.8334 145.041 41.8375 144.999 41.8516 144.96C41.8656 144.92 41.889 144.885 41.9199 144.856C41.9507 144.828 41.988 144.807 42.0285 144.796C42.0691 144.786 42.1116 144.785 42.1525 144.794L39.8275 143.127C39.132 142.651 38.6323 141.939 38.4207 141.123C38.2092 140.307 38.3 139.442 38.6766 138.687C39.0726 137.955 39.7265 137.395 40.5116 137.117C41.2966 136.839 42.1569 136.863 42.9255 137.183C42.9195 137.151 42.9419 137.119 42.9471 137.086L41.9915 136.4C41.338 135.949 40.8605 135.285 40.6397 134.522C40.419 133.759 40.4686 132.943 40.7802 132.212C40.985 131.758 41.2881 131.355 41.6676 131.032C42.047 130.709 42.4934 130.474 42.9744 130.345C43.4555 130.216 43.9592 130.195 44.4494 130.284C44.9395 130.372 45.4038 130.569 45.8088 130.859L48.013 132.44C48.0197 132.427 48.013 132.412 48.022 132.399C48.0309 132.386 48.0548 132.383 48.0674 132.369C47.5607 131.8 47.2625 131.075 47.2218 130.314C47.1812 129.553 47.4005 128.801 47.8438 128.181C48.8874 126.506 51.2862 126.848 52.7122 127.87L65.6871 136.836L63.3681 132.93C62.9022 132.179 62.7386 131.278 62.9102 130.411C63.0819 129.543 63.5761 128.773 64.2932 128.256C64.6728 128.002 65.1003 127.828 65.5494 127.744C65.9986 127.661 66.46 127.67 66.9056 127.771C67.3512 127.872 67.7716 128.062 68.1411 128.331C68.5106 128.6 68.8216 128.941 69.0549 129.334L81.719 150.66C83.2046 153.162 83.6565 156.145 82.9786 158.974C82.3007 161.804 80.5466 164.258 78.0888 165.815C75.2384 167.62 71.9141 168.533 68.5418 168.436C65.1695 168.339 61.903 167.237 59.1609 165.271L39.5659 151.223C38.914 150.738 38.4452 150.047 38.2354 149.262C38.0257 148.477 38.0874 147.644 38.4104 146.898Z" fill="#E98862"/>
<g opacity="0.25">
<path d="M60.8555 141.306C60.808 141.371 60.7367 141.416 60.6567 141.43C60.5768 141.444 60.4945 141.426 60.4276 141.38L48.099 132.833C48.064 132.811 48.0339 132.781 48.0106 132.747C47.9872 132.712 47.971 132.673 47.9629 132.632C47.9549 132.592 47.9551 132.549 47.9636 132.509C47.9721 132.468 47.9887 132.429 48.0124 132.395C48.0362 132.361 48.0665 132.332 48.1017 132.309C48.137 132.287 48.1763 132.272 48.2174 132.265C48.2585 132.259 48.3005 132.26 48.341 132.27C48.3815 132.28 48.4196 132.298 48.4531 132.322L60.7817 140.865C60.8491 140.912 60.8952 140.984 60.9099 141.065C60.9246 141.145 60.9066 141.229 60.8599 141.297L60.8555 141.306Z" fill="#0C0C0C"/>
</g>
<g opacity="0.25">
<path d="M57.2418 146.846C57.1944 146.912 57.123 146.956 57.0431 146.97C56.9631 146.984 56.8809 146.966 56.814 146.92L43.0556 137.385C42.988 137.338 42.9418 137.266 42.927 137.185C42.9121 137.104 42.93 137.021 42.9766 136.953C43.0253 136.887 43.097 136.843 43.1773 136.828C43.2576 136.814 43.3404 136.83 43.4089 136.875L57.168 146.408C57.2355 146.455 57.2816 146.527 57.2963 146.608C57.311 146.689 57.293 146.772 57.2463 146.84L57.2418 146.846Z" fill="#0C0C0C"/>
</g>
<g opacity="0.25">
<path d="M53.3565 152.872C53.3093 152.938 53.2381 152.982 53.1582 152.996C53.0783 153.01 52.9962 152.992 52.9294 152.946L41.9537 145.34C41.8904 145.292 41.8482 145.221 41.8358 145.142C41.8234 145.063 41.8418 144.982 41.8873 144.917C41.9327 144.851 42.0016 144.805 42.0798 144.789C42.1579 144.773 42.2393 144.787 42.3071 144.83L53.2827 152.436C53.3504 152.483 53.3967 152.554 53.4114 152.636C53.426 152.717 53.4079 152.8 53.361 152.868L53.3565 152.872Z" fill="#0C0C0C"/>
</g>
<path d="M87.302 142.965L118.82 215.777L162.308 156.237L199.997 190.222L135.638 273.6L135.217 274.197C132.641 277.726 129.209 280.541 125.244 282.377C121.28 284.212 116.914 285.008 112.557 284.689C108.2 284.37 103.996 282.947 100.341 280.553C96.6862 278.16 93.7006 274.875 91.6657 271.008L46.3438 165.755L87.302 142.965Z" fill="#A0B73E"/>
<path d="M122.468 223.395C122.549 223.395 122.628 223.375 122.699 223.335C122.77 223.296 122.829 223.239 122.871 223.17C122.913 223.101 122.937 223.022 122.94 222.941C122.943 222.86 122.925 222.78 122.888 222.708L119.243 215.562C119.183 215.454 119.085 215.374 118.967 215.337C118.85 215.301 118.723 215.312 118.613 215.368C118.504 215.424 118.42 215.52 118.381 215.637C118.341 215.753 118.348 215.88 118.401 215.991L122.047 223.138C122.086 223.216 122.147 223.281 122.221 223.326C122.295 223.371 122.381 223.395 122.468 223.395Z" fill="#0C0C0C"/>
<path d="M160.356 213.155C161.429 225.757 166.645 304.376 167.676 319.898H313.293C314.095 305.898 314.168 244.683 317.212 217.307C320.119 191.184 325.817 178.105 321.639 170.382C314.811 157.76 305.006 146.376 286.206 144.805C278.394 144.151 263.979 146.939 263.979 146.939C263.979 146.939 262.987 166.957 239.4 168.07C207.288 169.586 209.422 146.991 209.273 146.936C202.653 144.515 179.613 143.282 169.467 149.986C150.108 162.773 158.081 186.45 160.356 213.155Z" fill="#A0B73E"/>
<path d="M161.439 221.334L160.496 221.388L161.631 241.399L162.574 241.346L161.439 221.334Z" fill="#0C0C0C"/>
<path d="M426.546 155.733C426.178 155.145 425.635 154.685 424.995 154.418C424.354 154.151 423.646 154.09 422.968 154.242C422.971 154.2 422.962 154.158 422.945 154.12C422.927 154.082 422.9 154.049 422.867 154.024C422.834 153.998 422.795 153.981 422.753 153.974C422.712 153.968 422.67 153.971 422.63 153.984L424.792 152.109C425.44 151.571 425.872 150.816 426.008 149.984C426.143 149.152 425.973 148.299 425.529 147.582C425.067 146.889 424.364 146.393 423.557 146.188C422.75 145.984 421.895 146.087 421.159 146.476C421.159 146.443 421.138 146.414 421.129 146.381L422.017 145.611C422.626 145.101 423.041 144.396 423.19 143.616C423.34 142.835 423.215 142.027 422.837 141.328C422.591 140.895 422.252 140.522 421.845 140.235C421.437 139.949 420.971 139.756 420.48 139.672C419.99 139.587 419.486 139.613 419.006 139.746C418.526 139.88 418.082 140.119 417.706 140.445L415.656 142.222C415.648 142.209 415.656 142.193 415.644 142.182C415.632 142.171 415.61 142.169 415.596 142.157C416.048 141.543 416.277 140.794 416.247 140.032C416.217 139.27 415.929 138.542 415.431 137.965C414.238 136.393 411.879 136.956 410.555 138.104L398.459 148.227L400.41 144.126C400.806 143.335 400.886 142.422 400.636 141.573C400.385 140.725 399.821 140.003 399.059 139.554C398.657 139.335 398.216 139.201 397.761 139.16C397.306 139.118 396.847 139.169 396.413 139.311C395.978 139.452 395.577 139.681 395.234 139.982C394.891 140.284 394.612 140.652 394.416 141.065L383.77 163.467C382.521 166.096 382.346 169.107 383.281 171.863C384.216 174.618 386.189 176.9 388.779 178.224C391.784 179.759 395.178 180.362 398.528 179.955C401.877 179.547 405.028 178.149 407.578 175.939L425.796 160.143C426.4 159.6 426.802 158.869 426.939 158.069C427.075 157.268 426.937 156.445 426.546 155.733Z" fill="#E98862"/>
<g opacity="0.25">
<path d="M403.683 152.228C403.736 152.289 403.811 152.326 403.892 152.332C403.973 152.338 404.053 152.313 404.115 152.261L415.605 142.619C415.636 142.593 415.662 142.561 415.681 142.525C415.7 142.489 415.711 142.449 415.715 142.408C415.718 142.368 415.714 142.327 415.702 142.288C415.689 142.249 415.669 142.213 415.643 142.182C415.617 142.151 415.585 142.125 415.549 142.106C415.513 142.087 415.473 142.076 415.433 142.072C415.392 142.068 415.351 142.073 415.312 142.085C415.273 142.097 415.237 142.117 415.206 142.143L403.716 151.785C403.653 151.838 403.614 151.914 403.607 151.996C403.6 152.077 403.625 152.159 403.678 152.222L403.683 152.228Z" fill="#0C0C0C"/>
</g>
<g opacity="0.25">
<path d="M407.792 157.412C407.845 157.472 407.921 157.51 408.001 157.516C408.082 157.522 408.162 157.496 408.224 157.444L421.046 146.684C421.109 146.631 421.148 146.555 421.155 146.473C421.163 146.391 421.137 146.31 421.084 146.247C421.03 146.186 420.954 146.148 420.873 146.141C420.792 146.134 420.711 146.158 420.647 146.209L407.826 156.969C407.763 157.022 407.723 157.098 407.716 157.18C407.709 157.262 407.735 157.343 407.787 157.406L407.792 157.412Z" fill="#0C0C0C"/>
</g>
<g opacity="0.25">
<path d="M412.214 163.057C412.267 163.118 412.343 163.155 412.423 163.161C412.504 163.167 412.584 163.142 412.646 163.09L422.875 154.503C422.938 154.45 422.977 154.375 422.985 154.293C422.992 154.211 422.966 154.129 422.913 154.066C422.86 154.003 422.785 153.963 422.703 153.956C422.621 153.949 422.539 153.975 422.476 154.028L412.247 162.611C412.184 162.664 412.145 162.74 412.138 162.822C412.131 162.904 412.156 162.985 412.209 163.048L412.214 163.057Z" fill="#0C0C0C"/>
</g>
<path d="M378.772 154.794L354.811 216.262L319.826 167.122L282.145 201.109L336.108 283.54L336.53 284.136C339.106 287.666 342.538 290.481 346.503 292.317C350.467 294.152 354.833 294.948 359.19 294.629C363.547 294.31 367.751 292.887 371.406 290.493C375.061 288.1 378.047 284.815 380.082 280.948L418.792 176.641L378.772 154.794Z" fill="#A0B73E"/>
<path d="M351.164 223.881C351.083 223.881 351.004 223.86 350.933 223.821C350.862 223.781 350.803 223.724 350.761 223.655C350.719 223.586 350.695 223.507 350.692 223.426C350.689 223.346 350.706 223.265 350.743 223.193L354.389 216.047C354.447 215.937 354.546 215.855 354.664 215.817C354.783 215.779 354.911 215.79 355.022 215.847C355.133 215.903 355.217 216.001 355.256 216.119C355.295 216.237 355.286 216.366 355.23 216.478L351.584 223.623C351.545 223.701 351.485 223.766 351.411 223.812C351.336 223.857 351.251 223.881 351.164 223.881Z" fill="#0C0C0C"/>
<path d="M396.466 381.995H37.928C37.6983 381.989 37.4802 381.893 37.32 381.728C37.1599 381.563 37.0703 381.342 37.0703 381.112C37.0703 380.882 37.1599 380.662 37.32 380.497C37.4802 380.332 37.6983 380.236 37.928 380.229H396.466C396.695 380.236 396.914 380.332 397.074 380.497C397.234 380.662 397.323 380.882 397.323 381.112C397.323 381.342 397.234 381.563 397.074 381.728C396.914 381.893 396.695 381.989 396.466 381.995Z" fill="#292A2E"/>
<path d="M121.386 97.8862V7.63943C121.386 5.61385 120.582 3.67118 119.15 2.23859C117.719 0.806006 115.777 0.000790859 113.752 0L7.6369 0C5.61147 0 3.66899 0.804866 2.2368 2.23754C0.8046 3.67021 0 5.61333 0 7.63943L0 74.9306C0 76.9567 0.8046 78.8998 2.2368 80.3325C3.66899 81.7651 5.61147 82.57 7.6369 82.57H93.8619L117.911 99.6795C118.24 99.9138 118.627 100.053 119.03 100.082C119.433 100.11 119.836 100.027 120.195 99.8422C120.554 99.657 120.855 99.3765 121.065 99.0315C121.275 98.6864 121.386 98.2902 121.386 97.8862Z" fill="#E3A924"/>
<path d="M57.4277 71.6222C60.009 71.6222 62.1016 69.529 62.1016 66.9469C62.1016 64.3647 60.009 62.2715 57.4277 62.2715C54.8465 62.2715 52.7539 64.3647 52.7539 66.9469C52.7539 69.529 54.8465 71.6222 57.4277 71.6222Z" fill="white"/>
<path d="M57.2111 56.7996C56.4042 56.7994 55.6304 56.4786 55.0599 55.9078C54.4895 55.337 54.169 54.5629 54.169 53.7558V42.4513C54.169 41.7684 54.3987 41.1053 54.8211 40.5688C55.2435 40.0322 55.834 39.6534 56.4977 39.4932C56.6296 39.4604 70.2404 36.0147 70.2404 26.8526C70.2404 21.1034 65.5285 17.0842 58.7824 17.0842C51.4772 17.0842 47.7218 24.3918 47.566 24.7006C47.2009 25.4116 46.571 25.9504 45.8121 26.2007C45.0533 26.451 44.2265 26.3927 43.5102 26.0384C42.794 25.684 42.2459 25.062 41.9842 24.3068C41.7225 23.5516 41.7683 22.7237 42.1117 22.002C42.3353 21.5546 47.6532 10.998 58.7824 10.998C68.9471 10.998 76.3246 17.6636 76.3246 26.8488C76.3246 37.9184 65.2177 42.989 60.2539 44.7025V53.7558C60.2537 54.563 59.9331 55.3371 59.3625 55.9079C58.7919 56.4786 58.018 56.7994 57.2111 56.7996Z" fill="white"/>
</g>
<defs>
<clipPath id="clip0_776_4973">
<rect width="427" height="382" fill="white"/>
</clipPath>
</defs>
</svg>
