<svg width="282" height="250" viewBox="0 0 282 250" fill="none" xmlns="http://www.w3.org/2000/svg">
<g clip-path="url(#clip0_776_4777)">
<path d="M164.872 90.7402C164.872 90.7402 164.451 68.2397 184.773 68.2397C206.196 68.2397 202.229 53.0134 222.895 54.2562C236.864 55.0972 240.487 69.8657 248.52 72.0479C256.552 74.23 264.115 76.878 264.115 90.3143L164.872 90.7402Z" fill="white"/>
<path d="M208.782 203.059C208.782 203.059 208.472 186.46 223.463 186.46C239.269 186.46 236.342 175.226 251.588 176.144C261.894 176.764 264.566 187.66 270.493 189.27C276.421 190.88 281.999 192.833 281.999 202.747L208.782 203.059Z" fill="white"/>
<path d="M0.000586263 126.984C0.000586263 126.984 -0.372188 106.992 17.682 106.992C36.7157 106.992 33.1908 93.4644 51.551 94.5701C63.96 95.3173 67.1789 108.438 74.3168 110.377C81.4547 112.316 88.1723 114.668 88.1723 126.606L0.000586263 126.984Z" fill="white"/>
<path opacity="0.1" d="M164.872 90.7402C164.872 90.7402 164.451 68.2397 184.773 68.2397C206.196 68.2397 202.229 53.0134 222.895 54.2562C236.864 55.0972 240.487 69.8657 248.52 72.0479C256.552 74.23 264.115 76.878 264.115 90.3143L164.872 90.7402Z" fill="#A0B73E"/>
<path opacity="0.1" d="M208.782 203.059C208.782 203.059 208.472 186.46 223.463 186.46C239.269 186.46 236.342 175.226 251.588 176.144C261.894 176.764 264.566 187.66 270.493 189.27C276.421 190.88 281.999 192.833 281.999 202.747L208.782 203.059Z" fill="#A0B73E"/>
<path opacity="0.1" d="M0.000586263 126.984C0.000586263 126.984 -0.372188 106.992 17.682 106.992C36.7157 106.992 33.1908 93.4644 51.551 94.5701C63.96 95.3173 67.1789 108.438 74.3168 110.377C81.4547 112.316 88.1723 114.668 88.1723 126.606L0.000586263 126.984Z" fill="#A0B73E"/>
<path d="M211.146 42.2381C210.989 41.9862 210.886 41.7051 210.841 41.4118C210.797 41.1185 210.812 40.8192 210.887 40.5322C210.962 40.2451 211.094 39.9764 211.277 39.7423C211.459 39.5082 211.686 39.3137 211.946 39.1706C212.458 38.9111 213.05 38.856 213.601 39.0164C214.152 39.1768 214.622 39.5407 214.915 40.0346L216.472 42.5383L215.719 33.7388C215.558 32.6104 216.076 31.1246 217.351 31.0247C218.376 30.876 219.211 29.497 220.438 30.1035C220.449 30.1002 230.075 37.6916 230.226 38.737L230.819 52.666C231.463 57.1013 216.407 56.2123 216.407 56.2123L211.146 42.2381Z" fill="#E98862"/>
<g opacity="0.1">
<path d="M211.146 42.2381C210.989 41.9862 210.886 41.7051 210.841 41.4118C210.797 41.1185 210.812 40.8192 210.887 40.5322C210.962 40.2451 211.094 39.9764 211.277 39.7423C211.459 39.5082 211.686 39.3137 211.946 39.1706C212.458 38.9111 213.05 38.856 213.601 39.0164C214.152 39.1768 214.622 39.5407 214.915 40.0346L216.472 42.5383L215.719 33.7388C215.558 32.6104 216.076 31.1246 217.351 31.0247C218.376 30.876 219.211 29.497 220.438 30.1035C220.449 30.1002 230.075 37.6916 230.226 38.737L230.819 52.666C231.463 57.1013 216.407 56.2123 216.407 56.2123L211.146 42.2381Z" fill="#0C0C0C"/>
</g>
<path d="M108.251 110.566C108.251 110.566 107.387 123.549 104.469 128.257C96.0692 141.817 93.6357 157.07 102.047 165.04C110.459 173.01 164.111 173.121 168.175 154.791C171.597 139.36 164.254 137.7 162.467 124.971C161.659 119.211 159.435 107.132 159.435 107.132" fill="#0A0A0A"/>
<path d="M154.289 152.104C154.196 152.092 153.169 169.162 133.358 167.674C119.643 166.646 114.754 152.079 114.438 152.079C115.917 151.764 118.406 151.306 119.063 150.956C121.223 149.794 123.894 148.586 124.591 144.387C124.993 141.969 124.311 129.589 124.521 127.14L145.573 131.843C145.278 137.014 143.22 149 150.436 151.122C151.638 151.475 152.931 151.797 154.289 152.104Z" fill="#E98862"/>
<path opacity="0.5" d="M145.87 146.225C145.54 145.161 145.328 144.064 145.237 142.954C145.005 140.421 145.051 137.87 145.374 135.347C141.096 134.769 137.065 133.001 133.74 130.244C133.349 131.689 131.2 138.004 131.795 139.377C132.919 141.973 138.206 146.225 145.87 146.225Z" fill="#0C0C0C"/>
<path d="M143.147 140.906C134.847 141.712 124.108 138.387 121.884 127.323L119.877 117.339C117.652 106.275 121.653 96.1358 132.061 94.0386C142.468 91.9431 152.049 99.3443 154.274 110.409L155.163 114.828C156.016 119.074 157.955 139.472 143.147 140.906Z" fill="#E98862"/>
<path d="M149.05 127.675C146.353 129.047 143.277 129.481 140.306 128.908C140.203 128.888 140.097 128.899 139.999 128.937C139.902 128.976 139.818 129.042 139.757 129.127C139.695 129.212 139.659 129.313 139.653 129.417C139.647 129.522 139.671 129.626 139.722 129.718C140.607 131.28 142.708 133.949 146.311 132.861C148.639 132.158 149.518 129.762 149.844 128.279C149.866 128.177 149.859 128.07 149.823 127.972C149.786 127.873 149.723 127.787 149.64 127.724C149.556 127.66 149.456 127.622 149.352 127.613C149.248 127.605 149.143 127.626 149.05 127.675Z" fill="white"/>
<path d="M149.217 115.668C149.937 115.668 150.52 115.084 150.52 114.364C150.52 113.644 149.937 113.06 149.217 113.06C148.497 113.06 147.914 113.644 147.914 114.364C147.914 115.084 148.497 115.668 149.217 115.668Z" fill="#0C0C0C"/>
<path d="M136.698 117.863C137.417 117.863 138.001 117.279 138.001 116.559C138.001 115.838 137.417 115.254 136.698 115.254C135.978 115.254 135.395 115.838 135.395 116.559C135.395 117.279 135.978 117.863 136.698 117.863Z" fill="#0C0C0C"/>
<path opacity="0.1" d="M137.871 126.408C139.237 126.245 140.247 125.3 140.128 124.297C140.008 123.294 138.804 122.613 137.438 122.776C136.072 122.94 135.062 123.885 135.181 124.888C135.301 125.89 136.505 126.571 137.871 126.408Z" fill="#0C0C0C"/>
<path opacity="0.1" d="M152.302 122.398C152.423 123.4 153.628 124.08 154.995 123.918C155.231 123.89 155.463 123.837 155.688 123.761C155.752 122.567 155.756 121.418 155.721 120.354C155.341 120.26 154.948 120.237 154.56 120.286C153.194 120.448 152.184 121.392 152.302 122.398Z" fill="#0C0C0C"/>
<path opacity="0.5" d="M146.267 125.494L146.288 125.491C146.71 125.403 147.126 125.291 147.536 125.157C148.147 124.953 148.945 124.616 148.835 124.063C148.709 123.432 145.615 116.978 145.263 116.245C145.233 116.181 145.178 116.132 145.111 116.108C145.044 116.085 144.97 116.089 144.906 116.12C144.842 116.151 144.793 116.206 144.769 116.273C144.745 116.34 144.75 116.414 144.78 116.478C146.1 119.227 148.224 123.746 148.31 124.17C148.243 124.368 147.229 124.755 146.183 124.966C146.114 124.978 146.052 125.017 146.011 125.074C145.971 125.132 145.954 125.203 145.965 125.272C145.976 125.342 146.014 125.404 146.071 125.446C146.128 125.487 146.198 125.505 146.268 125.495L146.267 125.494Z" fill="#0C0C0C"/>
<path d="M111.573 120.923L120.903 119.099C127.951 116.148 129.95 103.853 129.95 103.853C129.95 103.853 138.648 112.145 159.436 107.131C159.436 107.131 154.92 78.0816 124.226 86.8992C114.328 89.7423 107.318 99.841 108.361 113.217C109.091 122.591 111.573 120.923 111.573 120.923Z" fill="#0A0A0A"/>
<path d="M123.205 130.563C120.043 131.2 116.798 128.33 116.16 125.163C115.523 121.997 117.737 119.735 120.899 119.098L122.956 120.891L125.923 130.014L123.205 130.563Z" fill="#E98862"/>
<path d="M147.506 111.097C148.297 110.537 149.222 110.197 150.188 110.111C150.672 110.065 151.161 110.092 151.637 110.192C152.118 110.29 152.585 110.449 153.026 110.663L153.04 110.669C153.089 110.691 153.145 110.693 153.195 110.674C153.245 110.655 153.286 110.618 153.309 110.569C153.331 110.521 153.334 110.465 153.317 110.415C153.299 110.364 153.263 110.322 153.215 110.298C152.747 110.051 152.25 109.863 151.735 109.741C151.217 109.614 150.682 109.567 150.15 109.6C149.072 109.66 148.029 110.008 147.131 110.607C147.063 110.653 147.017 110.724 147.002 110.805C146.986 110.885 147.003 110.968 147.049 111.035C147.095 111.103 147.166 111.149 147.246 111.165C147.326 111.18 147.409 111.163 147.477 111.117L147.484 111.112L147.506 111.097Z" fill="#0C0C0C"/>
<path d="M138.981 112.277C137.922 112.066 136.825 112.143 135.806 112.501C135.302 112.675 134.827 112.924 134.397 113.238C133.968 113.549 133.581 113.913 133.243 114.32C133.207 114.361 133.189 114.414 133.192 114.467C133.195 114.521 133.218 114.572 133.258 114.608C133.298 114.644 133.35 114.663 133.404 114.661C133.458 114.659 133.509 114.636 133.546 114.597L133.557 114.586C133.882 114.218 134.253 113.893 134.66 113.618C135.062 113.344 135.504 113.131 135.969 112.989C136.894 112.698 137.879 112.658 138.824 112.872L138.848 112.878C138.927 112.897 139.011 112.884 139.08 112.841C139.15 112.799 139.2 112.73 139.219 112.651C139.238 112.572 139.225 112.488 139.183 112.418C139.14 112.349 139.072 112.299 138.993 112.279L138.981 112.277Z" fill="#0C0C0C"/>
<path d="M120.906 118.945C127.178 116.608 129.259 112.273 129.9 109.047C130.315 106.895 130.276 104.68 129.786 102.544L129.592 102.598C130.074 104.706 130.112 106.891 129.701 109.015C129.069 112.188 127.017 116.454 120.836 118.757L120.906 118.945Z" fill="#0C0C0C"/>
<path d="M49.5048 71.7154L45.3865 58.5432C45.296 58.2537 45.1463 57.9864 44.9469 57.7581C44.7475 57.5297 44.5028 57.3455 44.2284 57.217C43.9539 57.0885 43.6558 57.0187 43.3529 57.0119C43.0501 57.0051 42.7491 57.0614 42.4692 57.1775C41.959 57.4077 41.5525 57.8195 41.3284 58.3328C41.1043 58.8461 41.0786 59.4244 41.2562 59.9556L42.1395 62.7801L35.2894 55.1738C34.5427 54.3147 33.0753 53.7388 32.17 54.6411C31.7982 54.9654 31.5472 55.4062 31.4579 55.8917C31.3687 56.3771 31.4464 56.8785 31.6784 57.3141C31.6685 57.319 31.6592 57.3251 31.6506 57.3322C31.6451 57.3386 31.64 57.3453 31.6354 57.3524L30.484 56.0277C30.2706 55.7825 30.0051 55.5879 29.7071 55.4584C29.409 55.3288 29.0858 55.2675 28.761 55.2788C28.4363 55.2902 28.1181 55.3739 27.8298 55.524C27.5415 55.6741 27.2903 55.8866 27.0944 56.1462C26.7942 56.5611 26.6454 57.0665 26.673 57.5781C26.7005 58.0896 26.9027 58.5761 27.2458 58.9562L27.7357 59.5204C27.7261 59.5422 27.7204 59.5655 27.7188 59.5893C27.2994 59.2853 26.7856 59.1405 26.2693 59.1809C25.7531 59.2213 25.268 59.4442 24.9008 59.8097C24.511 60.2214 24.2905 60.7652 24.2835 61.3324C24.2765 61.8997 24.4834 62.4487 24.863 62.87L26.0804 64.2699C26.0492 64.2624 26.0167 64.2623 25.9855 64.2697C25.9543 64.2772 25.9253 64.2919 25.9008 64.3127C25.8731 64.3389 25.8536 64.3726 25.8449 64.4098C25.3963 64.2431 24.9054 64.2284 24.4477 64.3681C23.99 64.5079 23.5908 64.7942 23.3115 65.1831C23.0264 65.5976 22.8895 66.0964 22.9229 66.5986C22.9563 67.1007 23.158 67.5769 23.4955 67.95L33.7661 79.7626C35.2032 81.4148 37.1003 82.5999 39.2144 83.1661C41.3285 83.7323 43.5633 83.6537 45.6325 82.9405C47.4167 82.3251 48.8909 81.0376 49.7419 79.3516C50.5929 77.6655 50.7536 75.7137 50.1899 73.9109L49.5048 71.7154Z" fill="#E98862"/>
<g opacity="0.2">
<path d="M38.4193 64.8768C38.3793 64.9114 38.3274 64.9289 38.2747 64.9255C38.222 64.9221 38.1727 64.8981 38.1375 64.8587L31.6337 57.6167C31.598 57.5769 31.5795 57.5246 31.5823 57.4712C31.5851 57.4178 31.609 57.3677 31.6488 57.332C31.6885 57.2962 31.7408 57.2777 31.7941 57.2806C31.8474 57.2834 31.8975 57.3073 31.9332 57.3471L38.4378 64.5891C38.4735 64.6288 38.492 64.6811 38.4892 64.7344C38.4864 64.7878 38.4626 64.8378 38.4229 64.8736L38.4193 64.8768Z" fill="#0C0C0C"/>
</g>
<g opacity="0.2">
<path d="M35.3105 67.8366C35.2705 67.8712 35.2186 67.8887 35.1658 67.8853C35.1131 67.8819 35.0639 67.8579 35.0287 67.8185L27.7704 59.7363C27.7347 59.6965 27.7162 59.6443 27.719 59.5909C27.7218 59.5376 27.7457 59.4875 27.7853 59.4518C27.8258 59.4177 27.8778 59.4003 27.9306 59.4031C27.9835 59.406 28.0333 59.4288 28.0699 59.4671L35.329 67.5489C35.3647 67.5886 35.3832 67.6409 35.3804 67.6942C35.3776 67.7476 35.3537 67.7976 35.3141 67.8334L35.3105 67.8366Z" fill="#0C0C0C"/>
</g>
<g opacity="0.2">
<path d="M31.9591 71.0624C31.9191 71.097 31.8671 71.1144 31.8144 71.1109C31.7616 71.1075 31.7124 71.0834 31.6773 71.0439L25.8876 64.5986C25.8519 64.5588 25.8334 64.5065 25.8362 64.4531C25.8391 64.3997 25.863 64.3497 25.9027 64.3139C25.9424 64.2782 25.9947 64.2597 26.048 64.2625C26.1013 64.2653 26.1514 64.2893 26.1871 64.329L31.978 70.7767C32.0136 70.8165 32.032 70.8688 32.0292 70.9221C32.0263 70.9755 32.0024 71.0255 31.9627 71.0612L31.9591 71.0624Z" fill="#0C0C0C"/>
</g>
<path d="M209.662 47.877L196.48 111.576L151.594 156.966L175.162 178.937L219.665 128.074L219.931 127.773C221.501 125.966 222.595 123.796 223.115 121.459L238.224 54.0458L209.662 47.877Z" fill="#A0B73E"/>
<path d="M132.685 163.428C118.962 162.78 118.384 151.119 118.384 151.119C118.384 151.119 111.584 151.558 107.064 152.171C99.6626 153.173 94.7807 155.685 90.8951 159.574C87.2809 163.193 88.3062 174.48 88.3062 174.48L91.9337 249.999H174.762L178.678 174.895C178.678 174.895 183.127 165.365 175.564 157.354C170.08 151.547 155.92 151.119 150.22 151.119C150.127 151.119 151.376 164.31 132.685 163.428Z" fill="#A0B73E"/>
<path d="M68.2096 124.212L53.3687 71.0806L25.3047 79.2264L42.4608 136.429C43.2454 139.021 44.7352 141.344 46.7634 143.137L47.0452 143.384L92.2487 183.159L112.67 158.23L68.2096 124.212Z" fill="#A0B73E"/>
<path d="M212.867 31.9507L212.188 32.4141C210.463 33.5922 208.523 34.4185 206.478 34.8459C204.434 35.2734 202.326 35.2935 200.274 34.9052C198.222 34.517 196.266 33.7278 194.519 32.583C192.771 31.4381 191.266 29.9599 190.09 28.2328L183.732 18.9001C183.648 18.777 183.589 18.6386 183.559 18.4927C183.529 18.3469 183.527 18.1965 183.555 18.0501C183.583 17.9037 183.639 17.7642 183.72 17.6395C183.802 17.5149 183.907 17.4076 184.03 17.3236L209.109 0.197697C209.357 0.028208 209.663 -0.0356301 209.958 0.0202118C210.254 0.0760536 210.515 0.247006 210.684 0.4955L217.045 9.82977C218.222 11.5568 219.047 13.499 219.474 15.5454C219.901 17.5918 219.921 19.7023 219.533 21.7565C219.145 23.8106 218.357 25.7682 217.213 27.5173C216.069 29.2664 214.592 30.7729 212.867 31.9507Z" fill="#E3A924"/>
<path d="M200.322 13.9794L204.132 16.1313C204.158 16.146 204.187 16.1542 204.217 16.1551C204.246 16.156 204.276 16.1497 204.303 16.1366L208.233 14.2148C208.264 14.1998 208.299 14.1938 208.333 14.1973C208.367 14.2008 208.399 14.2138 208.426 14.2347C208.453 14.2556 208.474 14.2837 208.486 14.3157C208.498 14.3478 208.501 14.3826 208.495 14.4162L207.628 18.708C207.622 18.7373 207.623 18.7676 207.631 18.7963C207.64 18.8251 207.655 18.8513 207.676 18.8728L210.716 22.0209C210.74 22.0456 210.756 22.0765 210.763 22.1101C210.771 22.1437 210.768 22.1787 210.757 22.2111C210.745 22.2434 210.725 22.2719 210.698 22.2933C210.671 22.3147 210.639 22.3281 210.605 22.332L206.259 22.8333C206.229 22.8367 206.201 22.8473 206.176 22.8642C206.151 22.881 206.131 22.9036 206.117 22.9301L204.064 26.7987C204.048 26.829 204.024 26.8541 203.994 26.8713C203.964 26.8885 203.93 26.8971 203.896 26.8961C203.862 26.895 203.828 26.8844 203.8 26.8654C203.771 26.8464 203.748 26.8198 203.734 26.7886L201.916 22.8063C201.903 22.7791 201.884 22.7553 201.861 22.737C201.837 22.7187 201.809 22.7064 201.78 22.7012L197.473 21.9431C197.439 21.9372 197.407 21.9219 197.382 21.899C197.356 21.8761 197.337 21.8464 197.328 21.8134C197.318 21.7804 197.318 21.7454 197.327 21.7122C197.336 21.6791 197.355 21.6492 197.38 21.626L200.6 18.6641C200.622 18.6438 200.639 18.6186 200.649 18.5905C200.659 18.5625 200.662 18.5324 200.658 18.5029L200.047 14.1672C200.042 14.1327 200.046 14.0974 200.06 14.0653C200.074 14.0333 200.096 14.0058 200.125 13.9861C200.154 13.9665 200.188 13.9554 200.223 13.9542C200.258 13.953 200.292 13.9618 200.322 13.9794Z" fill="#FAFAFA"/>
<path d="M213.903 27.3657L210.723 29.5362L210.079 29.9746L207.543 31.7075C207.543 31.7075 224.823 47.516 223.999 66.7048L231.579 61.5293L232.223 61.0909L240.446 55.4769C222.297 49.24 213.903 27.3657 213.903 27.3657Z" fill="#E3A924"/>
<path d="M242.68 49.3604L217.493 66.5567C216.815 67.0197 216.641 67.9453 217.103 68.6242L222.788 76.9678C223.25 77.6466 224.175 77.8216 224.853 77.3586L250.04 60.1623C250.718 59.6993 250.893 58.7736 250.43 58.0948L244.745 49.7512C244.283 49.0724 243.358 48.8974 242.68 49.3604Z" fill="#E3A924"/>
<path d="M194.61 35.5838C193.393 36.4179 191.975 36.9124 190.503 37.0165C189.031 37.1205 187.559 36.8304 186.236 36.1758C184.913 35.5213 183.789 34.5259 182.977 33.2922C182.166 32.0584 181.698 30.6306 181.621 29.1557C181.543 27.6807 181.86 26.2118 182.538 24.8998C183.215 23.5878 184.23 22.4802 185.477 21.6907C186.724 20.9012 188.158 20.4584 189.633 20.4077C191.107 20.3571 192.569 20.7004 193.867 21.4024C195.121 22.0799 196.179 23.0687 196.941 24.2739C197.703 25.479 198.142 26.8601 198.217 28.2842C198.291 29.7084 197.999 31.1278 197.367 32.4061C196.736 33.6845 195.786 34.7787 194.61 35.5838ZM186.868 24.26C185.896 24.9252 185.167 25.8905 184.793 27.0089C184.419 28.1273 184.42 29.3374 184.797 30.4549C185.174 31.5724 185.905 32.5358 186.88 33.1986C187.854 33.8613 189.019 34.1869 190.195 34.1258C191.372 34.0646 192.496 33.6201 193.397 32.86C194.298 32.0998 194.926 31.0657 195.185 29.9152C195.444 28.7647 195.321 27.5609 194.833 26.4872C194.345 25.4136 193.52 24.529 192.484 23.9682C191.611 23.4976 190.626 23.2759 189.635 23.3273C188.645 23.3788 187.688 23.7014 186.868 24.26Z" fill="#E3A924"/>
<path d="M222.731 16.3867C222.429 16.5922 222.115 16.7778 221.79 16.9424C219.823 17.9369 217.541 18.1085 215.448 17.4193C213.354 16.7302 211.62 15.2367 210.627 13.2676C209.633 11.2984 209.462 9.01482 210.15 6.91916C210.839 4.8235 212.331 3.08744 214.298 2.09289C216.18 1.1417 218.354 0.942681 220.378 1.53616C222.402 2.12964 224.124 3.47123 225.197 5.28899C226.269 7.10674 226.611 9.26468 226.153 11.3254C225.695 13.3861 224.472 15.1955 222.731 16.3867ZM214.992 5.05803C214.136 5.64488 213.467 6.4661 213.065 7.42348C212.663 8.38085 212.545 9.43384 212.726 10.4565C212.906 11.4792 213.377 12.4282 214.081 13.1901C214.786 13.952 215.696 14.4946 216.7 14.7528C217.705 15.011 218.763 14.9741 219.747 14.6463C220.732 14.3185 221.601 13.7138 222.251 12.9046C222.901 12.0953 223.305 11.1157 223.413 10.0829C223.522 9.05018 223.331 8.00798 222.863 7.081C222.543 6.44738 222.102 5.883 221.565 5.42007C221.027 4.95714 220.404 4.60473 219.73 4.38298C219.057 4.16122 218.346 4.07446 217.639 4.12764C216.932 4.18082 216.242 4.37291 215.609 4.69293C215.396 4.801 215.189 4.92296 214.992 5.05803Z" fill="#E3A924"/>
<path d="M220.993 42.112C220.764 41.7969 220.643 41.4154 220.651 41.0256C220.658 40.6358 220.792 40.2591 221.033 39.9528C221.006 39.9375 220.928 39.9198 220.957 39.8722L219.617 40.525C219.226 40.726 218.776 40.7787 218.35 40.6732C217.923 40.5677 217.549 40.3112 217.297 39.9512C217.059 39.5876 216.965 39.1487 217.033 38.7195C217.1 38.2904 217.324 37.9016 217.662 37.6284C217.645 37.6232 217.636 37.605 217.621 37.5945L217.07 37.8629C216.701 38.0508 216.279 38.1052 215.875 38.0171C215.47 37.929 215.109 37.7037 214.851 37.3794C214.694 37.1726 214.584 36.9335 214.53 36.6793C214.476 36.4251 214.48 36.1621 214.54 35.9092C214.6 35.6564 214.715 35.4201 214.877 35.2173C215.04 35.0145 215.245 34.8503 215.479 34.7366L216.749 34.1172C216.745 34.1112 216.737 34.1104 216.733 34.1031C216.729 34.0959 216.733 34.0842 216.731 34.0749C216.344 34.1654 215.939 34.1219 215.58 33.9515C215.222 33.7812 214.932 33.494 214.758 33.1372C214.249 32.2442 215.002 31.2266 215.823 30.8265L218.51 29.7666C218.924 29.6033 219.373 29.545 219.815 29.5971C220.258 29.6492 220.681 29.81 221.046 30.0652C224.211 32.2712 232.34 38.2301 229.717 39.5079L223.259 42.6536C222.875 42.8282 222.443 42.8698 222.033 42.7717C221.623 42.6737 221.257 42.4415 220.993 42.112Z" fill="#E98862"/>
<path d="M22.3166 250H258.271C258.378 250 258.48 249.958 258.556 249.882C258.631 249.807 258.674 249.704 258.674 249.597C258.674 249.49 258.631 249.388 258.556 249.312C258.48 249.237 258.378 249.194 258.271 249.194H22.3166C22.2099 249.194 22.1075 249.237 22.032 249.312C21.9565 249.388 21.9141 249.49 21.9141 249.597C21.9141 249.704 21.9565 249.807 22.032 249.882C22.1075 249.958 22.2099 250 22.3166 250Z" fill="#292A2E"/>
<path d="M12.5034 162.088L9.50391 163.261L13.7347 174.097L16.7343 172.923L12.5034 162.088Z" fill="#A0B73E"/>
<path d="M255.804 128.903L248.051 137.569L250.45 139.72L258.203 131.054L255.804 128.903Z" fill="#A0B73E"/>
<path d="M220.259 167.689L218.328 170.27L227.63 177.244L229.561 174.664L220.259 167.689Z" fill="#E3A924"/>
<path d="M80.4717 75.5643L72.0078 83.5371L74.2148 85.8849L82.6787 77.9121L80.4717 75.5643Z" fill="#A0B73E"/>
<path d="M174.218 62.0402L171.426 63.647L177.218 73.7331L180.01 72.1264L174.218 62.0402Z" fill="#A0B73E"/>
<path d="M60.3389 200.766L54.1367 210.604L56.8603 212.325L63.0624 202.486L60.3389 200.766Z" fill="#E3A924"/>
<path d="M216.397 224.407L211.203 234.814L214.084 236.255L219.278 225.848L216.397 224.407Z" fill="#E3A924"/>
<path d="M258.545 197.024L255.461 197.95L258.798 209.093L261.883 208.168L258.545 197.024Z" fill="#A0B73E"/>
<path d="M32.8954 227.706L31.1016 230.385L40.7591 236.865L42.553 234.186L32.8954 227.706Z" fill="#A0B73E"/>
<path d="M136.011 36.9758L133.219 38.5825L139.011 48.6684L141.803 47.0617L136.011 36.9758Z" fill="#E3A924"/>
</g>
<defs>
<clipPath id="clip0_776_4777">
<rect width="282" height="250" fill="white"/>
</clipPath>
</defs>
</svg>
