<svg width="258" height="250" viewBox="0 0 258 250" fill="none" xmlns="http://www.w3.org/2000/svg">
<g clip-path="url(#clip0_776_4353)">
<path d="M184.962 250C225.301 250 258.002 246.981 258.002 243.257C258.002 239.532 225.301 236.513 184.962 236.513C144.623 236.513 111.922 239.532 111.922 243.257C111.922 246.981 144.623 250 184.962 250Z" fill="white"/>
<path opacity="0.1" d="M184.962 250C225.301 250 258.002 246.981 258.002 243.257C258.002 239.532 225.301 236.513 184.962 236.513C144.623 236.513 111.922 239.532 111.922 243.257C111.922 246.981 144.623 250 184.962 250Z" fill="#292A2E"/>
<path d="M63.7115 142.976H40.4297V149.754H63.7115V142.976Z" fill="#EFF0F1"/>
<path opacity="0.05" d="M46.6053 142.976H43.5547V149.754H46.6053V142.976Z" fill="#292A2E"/>
<path d="M60.7354 144.449H48.0508V148.466H60.7354V144.449Z" fill="white"/>
<path d="M82.2812 143.86L60.6484 134.407L57.9371 140.618L79.5698 150.072L82.2812 143.86Z" fill="#EFF0F1"/>
<path opacity="0.05" d="M82.2812 143.86L60.6484 134.407L57.9371 140.618L79.5698 150.072L82.2812 143.86Z" fill="#292A2E"/>
<path d="M79.3776 142.591L76.543 141.352L73.8316 147.563L76.6662 148.802L79.3776 142.591Z" fill="white"/>
<path d="M74.6102 142.115L62.8242 136.965L61.2175 140.646L73.0035 145.796L74.6102 142.115Z" fill="white"/>
<path opacity="0.05" d="M82.3195 228.839H76.4688V232.748H82.3195V228.839Z" fill="#292A2E"/>
<path opacity="0.05" d="M22.5031 228.839H16.6523V232.748H22.5031V228.839Z" fill="#292A2E"/>
<path d="M87.6836 150.072H11.2891V228.707H87.6836V150.072Z" fill="#EFF0F1"/>
<path opacity="0.03" d="M87.6836 150.072H11.2891V228.707H87.6836V150.072Z" fill="#292A2E"/>
<path d="M101.84 150.072H25.4453V228.707H101.84V150.072Z" fill="#EFF0F1"/>
<path opacity="0.05" d="M96.4757 228.839H90.625V232.748H96.4757V228.839Z" fill="#292A2E"/>
<path opacity="0.05" d="M36.6593 228.839H30.8086V232.748H36.6593V228.839Z" fill="#292A2E"/>
<path opacity="0.7" d="M98.9717 153.755H28.3125V168.862H98.9717V153.755Z" fill="white"/>
<path opacity="0.7" d="M98.9717 172.56H28.3125V187.668H98.9717V172.56Z" fill="white"/>
<path opacity="0.7" d="M98.9717 191.365H28.3125V206.472H98.9717V191.365Z" fill="white"/>
<path opacity="0.05" d="M63.6439 163.422C64.8107 163.422 65.7565 162.476 65.7565 161.309C65.7565 160.141 64.8107 159.195 63.6439 159.195C62.4771 159.195 61.5312 160.141 61.5312 161.309C61.5312 162.476 62.4771 163.422 63.6439 163.422Z" fill="#292A2E"/>
<path opacity="0.05" d="M63.6439 182.227C64.8107 182.227 65.7565 181.281 65.7565 180.113C65.7565 178.946 64.8107 178 63.6439 178C62.4771 178 61.5312 178.946 61.5312 180.113C61.5312 181.281 62.4771 182.227 63.6439 182.227Z" fill="#292A2E"/>
<path opacity="0.05" d="M63.6439 201.033C64.8107 201.033 65.7565 200.086 65.7565 198.919C65.7565 197.752 64.8107 196.805 63.6439 196.805C62.4771 196.805 61.5312 197.752 61.5312 198.919C61.5312 200.086 62.4771 201.033 63.6439 201.033Z" fill="#292A2E"/>
<path opacity="0.7" d="M98.9717 210.594H28.3125V225.701H98.9717V210.594Z" fill="white"/>
<path opacity="0.05" d="M63.6439 220.261C64.8107 220.261 65.7565 219.315 65.7565 218.148C65.7565 216.98 64.8107 216.034 63.6439 216.034C62.4771 216.034 61.5312 216.98 61.5312 218.148C61.5312 219.315 62.4771 220.261 63.6439 220.261Z" fill="#292A2E"/>
<path d="M38.4094 72.0229H83.582L83.582 13.1925L38.4094 13.1925L38.4094 72.0229Z" fill="#EFF0F1"/>
<path d="M38.4108 13.1929H36.9453V72.0233H38.4108V13.1929Z" fill="#EFF0F1"/>
<path opacity="0.05" d="M38.4108 13.1929H36.9453V72.0233H38.4108V13.1929Z" fill="#292A2E"/>
<path opacity="0.05" d="M46.6367 61.3062H75.3516V23.909H46.6367V61.3062Z" fill="#292A2E"/>
<path opacity="0.03" d="M46.6364 61.3062H48.1328L48.1328 23.909H46.6364L46.6364 61.3062Z" fill="#292A2E"/>
<path d="M1.46643 123.794H38.4102L38.4102 86.4904H1.46643L1.46643 123.794Z" fill="#EFF0F1"/>
<path opacity="0.05" d="M8.1956 116.999H31.6797L31.6797 93.286H8.1956L8.1956 116.999Z" fill="#292A2E"/>
<path d="M1.46544 86.4907H0V123.795H1.46544V86.4907Z" fill="#EFF0F1"/>
<path opacity="0.05" d="M1.46544 86.4907H0V123.795H1.46544V86.4907Z" fill="#292A2E"/>
<path opacity="0.03" d="M8.19496 116.999H9.69141L9.69141 93.286H8.19496L8.19496 116.999Z" fill="#292A2E"/>
<path d="M226.744 13.0527H132.477V107.374H226.744V13.0527Z" fill="#EFF0F1"/>
<path d="M132.475 13.0527H131.395V107.374H132.475V13.0527Z" fill="#EFF0F1"/>
<path opacity="0.05" d="M132.475 13.0527H131.395V107.374H132.475V13.0527Z" fill="#292A2E"/>
<path opacity="0.05" d="M155.31 78.0472V53.3696H175.513V67.7068H206.808V93.0923H220.108V107.373H206.808H204.245H137.008V78.0472H155.31Z" fill="#292A2E"/>
<path opacity="0.34" d="M172.923 56.0488H158.211V58.7282H172.923V56.0488Z" fill="#FFFFFA"/>
<path opacity="0.34" d="M172.923 61.6011H158.211V64.2804H172.923V61.6011Z" fill="#FFFFFA"/>
<path opacity="0.34" d="M172.923 67.1538H158.211V69.8332H172.923V67.1538Z" fill="#FFFFFA"/>
<path opacity="0.34" d="M142.329 80.6479H139.617V83.3273H142.329V80.6479Z" fill="#FFFFFA"/>
<path opacity="0.34" d="M142.329 86.2002H139.617V88.8795H142.329V86.2002Z" fill="#FFFFFA"/>
<path opacity="0.34" d="M142.329 91.7524H139.617V94.4318H142.329V91.7524Z" fill="#FFFFFA"/>
<path opacity="0.34" d="M147.345 80.6479H144.633V83.3273H147.345V80.6479Z" fill="#FFFFFA"/>
<path opacity="0.34" d="M147.345 86.2002H144.633V88.8795H147.345V86.2002Z" fill="#FFFFFA"/>
<path opacity="0.34" d="M147.345 91.7524H144.633V94.4318H147.345V91.7524Z" fill="#FFFFFA"/>
<path opacity="0.34" d="M152.227 80.6479H149.516V83.3273H152.227V80.6479Z" fill="#FFFFFA"/>
<path opacity="0.34" d="M152.227 86.2002H149.516V88.8795H152.227V86.2002Z" fill="#FFFFFA"/>
<path opacity="0.34" d="M152.227 91.7524H149.516V94.4318H152.227V91.7524Z" fill="#FFFFFA"/>
<path d="M132.477 59.6837H151.445V13.0522H153.014V59.6837H204.249V13.0522H205.817V59.6837H226.744V61.2532H205.817V107.373H204.249V61.2532H153.014V107.373H151.445V61.2532H132.477V59.6837Z" fill="white"/>
<path d="M230.497 107.259H128.719V110.396H230.497V107.259Z" fill="#EFF0F1"/>
<path opacity="0.1" d="M230.497 107.259H128.719V110.396H230.497V107.259Z" fill="#292A2E"/>
<path opacity="0.1" d="M128.719 107.259H127.25V110.396H128.719V107.259Z" fill="#292A2E"/>
<path opacity="0.1" d="M128.719 107.259H127.25V110.396H128.719V107.259Z" fill="#292A2E"/>
<path d="M210.577 123.418C196.145 123.418 184.445 127.357 184.445 132.217V142.692H236.708V132.217C236.708 127.357 225.009 123.418 210.577 123.418Z" fill="#A0B73E"/>
<path opacity="0.49" d="M210.577 123.418C196.145 123.418 184.445 127.357 184.445 132.217V142.692H236.708V132.217C236.708 127.357 225.009 123.418 210.577 123.418Z" fill="white"/>
<path opacity="0.49" d="M229.59 132.218V142.692H184.445V132.218C184.445 127.764 194.271 124.084 207.018 123.502C219.766 124.084 229.59 127.764 229.59 132.218Z" fill="white"/>
<path d="M236.709 244.476H237.586L236.709 141.763L235.839 142.641L236.459 214.389L205.5 214.915L204.876 142.633L204.006 142.641L204.631 214.93L185.942 215.248L185.315 142.633L184.445 141.771L185.322 244.476L186.184 244.469L185.95 216.118L204.638 215.8L204.876 244.476L205.745 244.469L205.508 215.785L236.467 215.259L236.709 244.476Z" fill="#292A2E"/>
<path d="M157.888 229.098C157.888 229.098 156.334 237.158 148.791 237.607C141.248 238.057 142.884 244.069 142.884 244.069H171.707V229.66L157.888 229.098Z" fill="#A0B73E"/>
<path d="M174.332 204.855C174.332 204.855 176.494 212.774 169.924 216.508C163.355 220.242 167.475 224.915 167.475 224.915L193.337 212.184L186.981 199.255L174.332 204.855Z" fill="#A0B73E"/>
<path d="M171.597 210.089L152.109 136.518C150.631 128.39 152.856 124.867 156.286 121.445C162.31 115.432 187.274 102.635 187.274 102.635L217.224 102.553C225.165 102.553 232.972 110.388 232.972 118.334C232.972 126.279 224.899 133.018 216.957 133.018L180.077 136.701L190.075 204.065L171.597 210.089Z" fill="#262626"/>
<path d="M190.074 204.064L186.138 177.544L166.199 189.714L171.596 210.089L190.074 204.064Z" fill="#0C0C0C"/>
<path d="M194.591 117.523C194.591 117.523 182.001 120.33 169.532 132.806C161.972 140.37 162.592 154.059 163.727 180.386L176.111 162.084L189.694 137.572L194.591 117.523Z" fill="#0C0C0C"/>
<path d="M238.185 102.545L217.846 102.449L217.838 102.717H211.679C211.679 102.717 196.252 116.92 183.832 125.871C174.798 132.381 169.286 138.587 168.81 145.352C167.647 161.842 154.535 232.169 154.535 232.169L174.268 235.159L191.585 151.112C191.585 151.112 218.662 138.622 224.925 134.276C230.823 130.183 234.989 128.601 236.941 124.134C240.311 116.42 238.185 102.545 238.185 102.545Z" fill="#262626"/>
<path d="M215.367 107.671L182.371 108.108L200.88 119.169L216.281 111.212C216.652 111.012 216.946 110.694 217.114 110.308C217.283 109.922 217.318 109.49 217.212 109.082C217.107 108.674 216.868 108.313 216.533 108.058C216.199 107.802 215.788 107.666 215.367 107.671Z" fill="#292A2E"/>
<path opacity="0.2" d="M215.367 107.671L182.371 108.108L200.88 119.169L216.281 111.212C216.652 111.012 216.946 110.694 217.114 110.308C217.283 109.922 217.318 109.49 217.212 109.082C217.107 108.674 216.868 108.313 216.533 108.058C216.199 107.802 215.788 107.666 215.367 107.671Z" fill="white"/>
<path d="M182.557 48.4434L173.225 78.6997L154.531 103.188L165.451 115.73L187.69 90.8947C188.715 90.0845 189.516 89.0266 190.019 87.8206L190.365 86.9817L203.211 55.8834L182.557 48.4434Z" fill="#A0B73E"/>
<path d="M196.936 16.3269C196.936 16.3269 193.175 13.4848 192.244 6.94815C191.522 1.88672 196.189 5.16579 196.189 5.16579C196.189 5.16579 195.705 1.51609 198.362 1.87831C201.02 2.24052 202.507 6.07437 202.507 6.07437" fill="#0C0C0C"/>
<path d="M212.098 2.30566C212.098 2.30566 225.284 3.72001 220.517 21.5982L219.35 21.6765L216.982 21.8354" fill="#0C0C0C"/>
<path d="M199.145 40.2693C199.202 40.2618 199.846 50.9415 212.245 50.0114C220.831 49.3679 223.892 40.2542 224.088 40.2542C223.163 40.0573 222.019 39.7586 221.564 39.6563C220.573 39.4262 219.676 38.8997 218.992 38.1469C218.307 37.3941 217.868 36.4506 217.733 35.4419C217.482 33.9281 217.907 26.1827 217.776 24.6509L204.6 27.5938C204.784 30.8291 206.073 38.3289 201.556 39.6563C200.804 39.8755 199.994 40.0785 199.145 40.2693Z" fill="#E98862"/>
<path opacity="0.52" d="M204.414 36.5911C204.62 35.9255 204.753 35.2392 204.811 34.5446C204.955 32.9595 204.926 31.3634 204.724 29.7848C207.402 29.4236 209.926 28.3179 212.008 26.5933C212.253 27.4975 213.598 31.4485 213.225 32.3063C212.521 33.9304 209.212 36.5911 204.414 36.5911Z" fill="#0C0C0C"/>
<path d="M207.137 34.4769C212.336 34.0103 218.558 30.7237 218.648 23.6624L218.729 17.291C218.819 10.23 215.185 4.45866 208.54 4.37398C201.895 4.28959 196.856 9.95046 196.766 17.0118L196.73 19.8323C196.735 20.801 196.805 21.7683 196.941 22.7274C197.282 25.265 197.811 29.1229 199.532 31.7326C201.157 34.1965 203.815 34.7748 207.137 34.4769Z" fill="#E98862"/>
<path opacity="0.52" d="M204.724 28.0228C203.652 28.0715 202.582 27.8671 201.603 27.4263C201.563 27.4082 201.531 27.3752 201.515 27.3343C201.499 27.2934 201.5 27.2478 201.517 27.2074C201.535 27.1671 201.567 27.135 201.607 27.1182C201.648 27.1014 201.693 27.1011 201.734 27.1174C203.845 28.0179 205.761 27.8862 207.275 26.7364C207.306 26.7122 207.338 26.6896 207.37 26.6688C207.409 26.6509 207.452 26.6479 207.492 26.6605C207.532 26.6732 207.566 26.7004 207.587 26.7369C207.608 26.7734 207.615 26.8165 207.606 26.8576C207.596 26.8987 207.572 26.9348 207.537 26.9588C207.525 26.9663 207.506 26.9817 207.479 27.0026C206.683 27.6095 205.724 27.9648 204.724 28.0228Z" fill="#0C0C0C"/>
<path opacity="0.52" d="M204.77 29.6137C204.577 29.6256 204.382 29.621 204.189 29.5998C204.167 29.5974 204.146 29.5908 204.127 29.5803C204.107 29.5698 204.09 29.5555 204.076 29.5384C204.062 29.5213 204.052 29.5016 204.046 29.4805C204.04 29.4593 204.038 29.4372 204.04 29.4153C204.042 29.3934 204.049 29.3722 204.059 29.3528C204.07 29.3335 204.084 29.3164 204.101 29.3026C204.118 29.2887 204.138 29.2784 204.159 29.2722C204.18 29.2659 204.202 29.2639 204.224 29.2662C205.385 29.3895 205.94 28.8573 205.963 28.8344C205.995 28.8029 206.037 28.7852 206.082 28.7852C206.126 28.7851 206.169 28.8027 206.2 28.8341C206.232 28.8656 206.25 28.9082 206.25 28.9527C206.25 28.9972 206.232 29.0399 206.201 29.0714C205.801 29.412 205.295 29.6037 204.77 29.6137Z" fill="#0C0C0C"/>
<path d="M198.959 21.1902C199.411 21.1902 199.778 20.8235 199.778 20.3712C199.778 19.9189 199.411 19.5522 198.959 19.5522C198.507 19.5522 198.141 19.9189 198.141 20.3712C198.141 20.8235 198.507 21.1902 198.959 21.1902Z" fill="#0C0C0C"/>
<path d="M206.955 20.6882C207.407 20.6882 207.774 20.3216 207.774 19.8693C207.774 19.417 207.407 19.0503 206.955 19.0503C206.503 19.0503 206.137 19.417 206.137 19.8693C206.137 20.3216 206.503 20.6882 206.955 20.6882Z" fill="#0C0C0C"/>
<path d="M218.208 25.8102C220.228 25.836 221.892 23.6952 221.918 21.6747C221.945 19.6542 220.321 18.5192 218.302 18.4937L217.244 19.834L216.473 25.7881L218.208 25.8102Z" fill="#E98862"/>
<path d="M216.198 22.5623C216.198 22.5623 215.517 12.5708 212.488 11.9537C210.472 11.5427 205.581 14.4051 201.051 13.5406C199.07 13.1636 197.188 13.6531 196.997 14.5898C196.921 14.9607 195.687 9.63074 198.79 5.58693C201.261 2.36789 209.346 1.45728 213.025 2.51289C223.211 5.43671 218.716 18.932 218.716 18.932L218.262 22.3767L216.198 22.5623Z" fill="#0C0C0C"/>
<g opacity="0.52">
<path d="M203.504 25.6652C203.5 25.6655 203.495 25.6655 203.491 25.6652C202.841 25.6588 201.75 25.575 201.754 25.0881C201.759 24.6844 202.906 20.3393 203.037 19.8451C203.049 19.8026 203.076 19.7663 203.114 19.7441C203.152 19.722 203.198 19.7159 203.24 19.7272C203.283 19.7385 203.319 19.7662 203.341 19.8042C203.363 19.8423 203.369 19.8875 203.358 19.9301C202.848 21.8545 202.088 24.8172 202.085 25.0921C202.148 25.2081 202.821 25.3276 203.494 25.3346C203.537 25.3355 203.577 25.3527 203.607 25.3826C203.637 25.4126 203.655 25.453 203.656 25.4955C203.658 25.538 203.642 25.5794 203.614 25.6111C203.586 25.6427 203.546 25.6623 203.504 25.6658V25.6652Z" fill="#0C0C0C"/>
</g>
<path d="M201.283 15.9313C200.599 15.743 199.877 15.743 199.193 15.9313C198.857 16.0217 198.537 16.1621 198.242 16.3477C197.951 16.5295 197.685 16.7474 197.448 16.9962C197.405 17.0405 197.38 17.0999 197.379 17.1621C197.378 17.2242 197.401 17.2844 197.443 17.3299C197.486 17.3755 197.544 17.403 197.606 17.4068C197.668 17.4105 197.729 17.3902 197.776 17.35L197.791 17.3372C198.01 17.1344 198.253 16.9601 198.516 16.8184C198.773 16.6773 199.05 16.576 199.338 16.518C199.904 16.3992 200.492 16.4321 201.041 16.6134L201.064 16.6215C201.154 16.6505 201.252 16.6433 201.337 16.6013C201.421 16.5594 201.486 16.4861 201.518 16.3969C201.549 16.3078 201.545 16.2099 201.505 16.124C201.466 16.0381 201.394 15.9711 201.306 15.9371L201.283 15.9313Z" fill="#0C0C0C"/>
<path d="M206.124 16.3419C206.645 16.0889 207.223 15.9779 207.8 16.0203C208.092 16.0393 208.381 16.1027 208.654 16.2082C208.933 16.3139 209.197 16.4542 209.441 16.6258L209.456 16.6362C209.509 16.67 209.572 16.6822 209.633 16.6703C209.694 16.6585 209.748 16.6235 209.784 16.5727C209.82 16.5218 209.835 16.4591 209.826 16.3975C209.817 16.3359 209.784 16.2802 209.735 16.2421C209.468 16.0271 209.174 15.8467 208.862 15.7053C208.545 15.5606 208.209 15.4642 207.864 15.4194C207.161 15.3236 206.446 15.4194 205.793 15.6969C205.749 15.716 205.709 15.7434 205.676 15.7778C205.643 15.8121 205.617 15.8527 205.6 15.8971C205.582 15.9416 205.573 15.989 205.574 16.0368C205.575 16.0845 205.585 16.1316 205.604 16.1754C205.643 16.2639 205.715 16.3334 205.804 16.3688C205.849 16.3863 205.896 16.3949 205.944 16.394C205.992 16.3932 206.039 16.383 206.083 16.3639L206.103 16.3544L206.124 16.3419Z" fill="#0C0C0C"/>
<path d="M205.792 5.63225C206.251 3.43107 205.412 1.39335 203.918 1.08089C202.423 0.768434 200.839 2.29956 200.379 4.50074C199.919 6.70192 200.759 8.73962 202.253 9.05208C203.748 9.36454 205.332 7.83343 205.792 5.63225Z" fill="#0C0C0C"/>
<path d="M183.738 63.7427C184.129 68.334 186.898 96.98 187.275 102.636H238.163C238.456 97.5347 239.768 75.2303 240.877 65.2542C241.936 55.7357 243.419 51.4042 242.2 48.4464C240.05 43.2292 233.206 40.8996 228.572 40.2718C225.742 39.8884 221.486 39.6138 221.486 39.6138C221.486 39.6138 221.125 46.9082 212.532 47.3142C200.834 47.8652 201.616 39.6138 201.558 39.6138C199.662 39.6138 189.347 40.9927 186.768 42.6748C183.125 45.0505 182.048 48.2884 182.005 51.2629C181.957 54.6887 183.296 58.5345 183.738 63.7427Z" fill="#A0B73E"/>
<path d="M186.316 91.3468C186.279 91.347 186.244 91.3334 186.217 91.309C186.191 91.2845 186.174 91.2508 186.171 91.2146L184.243 69.1511C184.239 69.1128 184.251 69.0747 184.276 69.0452C184.301 69.0158 184.336 68.9973 184.374 68.9939C184.393 68.992 184.413 68.9938 184.431 68.9995C184.449 69.0051 184.466 69.0143 184.481 69.0266C184.495 69.0389 184.507 69.0541 184.516 69.0711C184.525 69.0882 184.53 69.1068 184.531 69.1259L186.459 91.1893C186.463 91.2276 186.451 91.2656 186.426 91.295C186.401 91.3244 186.366 91.3428 186.328 91.3462C186.324 91.3467 186.32 91.3469 186.316 91.3468Z" fill="#0C0C0C"/>
<path d="M190.008 104.163L196.995 98.4908L195.819 98.8234C195.438 98.9231 195.032 98.8742 194.685 98.6864C194.338 98.4986 194.076 98.1861 193.95 97.8119C193.892 97.6165 193.874 97.4113 193.898 97.2088C193.922 97.0064 193.987 96.8109 194.088 96.6343C194.19 96.4578 194.327 96.3038 194.49 96.1818C194.653 96.0598 194.84 95.9724 195.038 95.9248L209.717 92.3525L210.98 97.0309C211.373 98.4838 211.322 100.021 210.836 101.445C210.35 102.869 209.449 104.116 208.25 105.025L202.811 109.132C202.533 109.35 202.188 109.466 201.834 109.459C201.48 109.453 201.139 109.324 200.869 109.095C200.63 108.882 200.464 108.599 200.397 108.286C200.33 107.973 200.365 107.647 200.496 107.355C200.473 107.348 200.452 107.335 200.435 107.316C200.42 107.299 200.41 107.278 200.406 107.256C200.401 107.233 200.402 107.21 200.409 107.188L199.407 107.947C199.097 108.192 198.706 108.31 198.313 108.277C197.92 108.244 197.554 108.064 197.289 107.771C197.061 107.502 196.936 107.16 196.935 106.807C196.934 106.454 197.057 106.112 197.283 105.841C197.267 105.839 197.252 105.834 197.238 105.826L196.827 106.138C196.548 106.357 196.203 106.472 195.849 106.466C195.495 106.459 195.155 106.33 194.885 106.101C194.594 105.844 194.415 105.484 194.384 105.096C194.353 104.709 194.473 104.325 194.718 104.025C194.713 104.016 194.708 104.007 194.704 103.998L191.794 106.36C191.65 106.477 191.484 106.565 191.306 106.618C191.128 106.67 190.941 106.688 190.756 106.669C190.571 106.649 190.392 106.594 190.229 106.505C190.066 106.417 189.921 106.297 189.804 106.153C189.687 106.008 189.6 105.842 189.547 105.664C189.494 105.486 189.477 105.299 189.496 105.114C189.515 104.929 189.571 104.75 189.659 104.587C189.748 104.423 189.867 104.279 190.012 104.162L190.008 104.163Z" fill="#E98862"/>
<path opacity="0.2" d="M194.876 104.083C194.891 104.077 194.906 104.069 194.918 104.058L197.718 101.731C197.732 101.719 197.744 101.705 197.753 101.688C197.761 101.672 197.767 101.654 197.768 101.636C197.77 101.617 197.768 101.599 197.762 101.581C197.757 101.563 197.748 101.547 197.736 101.533C197.724 101.518 197.71 101.507 197.693 101.498C197.677 101.49 197.659 101.484 197.641 101.483C197.622 101.481 197.604 101.483 197.586 101.488C197.568 101.494 197.552 101.503 197.538 101.515L194.738 103.842C194.713 103.863 194.696 103.892 194.69 103.925C194.684 103.957 194.69 103.991 194.706 104.02C194.723 104.049 194.749 104.071 194.78 104.082C194.811 104.094 194.845 104.094 194.876 104.083Z" fill="#0A0A0A"/>
<path opacity="0.2" d="M197.345 105.84C197.36 105.835 197.374 105.827 197.386 105.816L199.601 104.005C199.63 103.981 199.648 103.947 199.652 103.91C199.656 103.872 199.645 103.835 199.621 103.806C199.597 103.777 199.563 103.759 199.526 103.755C199.489 103.751 199.452 103.763 199.423 103.786L197.208 105.598C197.182 105.619 197.165 105.649 197.159 105.681C197.153 105.714 197.158 105.748 197.175 105.777C197.191 105.806 197.217 105.828 197.248 105.84C197.279 105.851 197.314 105.851 197.345 105.84Z" fill="#0A0A0A"/>
<path opacity="0.2" d="M200.586 107.359C200.603 107.353 200.618 107.345 200.631 107.333L201.656 106.453C201.671 106.441 201.682 106.427 201.69 106.41C201.699 106.394 201.704 106.376 201.705 106.357C201.707 106.339 201.704 106.32 201.699 106.303C201.693 106.285 201.684 106.269 201.672 106.255C201.66 106.241 201.645 106.229 201.629 106.221C201.612 106.212 201.594 106.207 201.576 106.206C201.557 106.205 201.539 106.207 201.521 106.213C201.504 106.218 201.487 106.227 201.473 106.239L200.447 107.12C200.422 107.141 200.406 107.171 200.4 107.203C200.395 107.235 200.401 107.269 200.418 107.297C200.434 107.326 200.46 107.347 200.491 107.359C200.522 107.37 200.555 107.37 200.586 107.359Z" fill="#0A0A0A"/>
<path d="M251.764 90.2696L251.71 90.0315L242.422 48.9258L224.046 53.0821L231.295 85.1678L202.254 92.308L205.828 108.704L244.529 101.318C244.616 101.301 244.745 101.275 244.833 101.255C246.009 100.989 247.121 100.494 248.106 99.798C249.091 99.102 249.929 98.2187 250.572 97.1986C251.216 96.1785 251.652 95.0415 251.857 93.8526C252.061 92.6637 252.03 91.4462 251.764 90.2696Z" fill="#A0B73E"/>
<path d="M202.112 92.3389C202.105 92.3021 202.112 92.2638 202.132 92.232C202.152 92.2002 202.183 92.1774 202.22 92.1684L231.132 85.0633L226.431 64.2886C226.426 64.2697 226.424 64.2499 226.427 64.2304C226.429 64.2109 226.436 64.1922 226.446 64.1753C226.456 64.1584 226.469 64.1437 226.485 64.1322C226.501 64.1206 226.519 64.1124 226.538 64.1081C226.558 64.1037 226.577 64.1033 226.597 64.1069C226.616 64.1104 226.634 64.1179 226.651 64.1288C226.667 64.1397 226.681 64.1538 226.692 64.1702C226.703 64.1867 226.71 64.2051 226.713 64.2245L231.446 85.1381C231.455 85.1753 231.448 85.2145 231.428 85.2471C231.408 85.2797 231.376 85.303 231.339 85.3121L202.425 92.4172C202.425 92.4172 202.619 93.2629 202.673 93.5482C202.678 93.5854 202.667 93.6227 202.644 93.652C202.621 93.6813 202.587 93.7002 202.55 93.7045C202.512 93.7088 202.475 93.6982 202.446 93.675C202.416 93.6518 202.398 93.6178 202.393 93.5807C202.327 93.2678 202.112 92.3389 202.112 92.3389Z" fill="#0C0C0C"/>
<path d="M203.245 115.235L192.079 80.8916C191.883 80.288 191.501 79.7621 190.988 79.3892C190.475 79.0162 189.857 78.8154 189.222 78.8154H143.731C143.257 78.8154 142.789 78.9277 142.367 79.1431C141.944 79.3586 141.579 79.671 141.3 80.0549C141.021 80.4388 140.837 80.8833 140.763 81.352C140.689 81.8206 140.727 82.3002 140.874 82.7514L152.04 117.094C152.237 117.698 152.619 118.224 153.132 118.597C153.645 118.97 154.263 119.171 154.897 119.171H200.388C200.863 119.171 201.33 119.058 201.753 118.843C202.175 118.627 202.541 118.315 202.819 117.931C203.098 117.547 203.282 117.103 203.356 116.634C203.43 116.165 203.392 115.686 203.245 115.235Z" fill="#292A2E"/>
<path opacity="0.2" d="M203.245 115.235L192.079 80.8916C191.883 80.288 191.501 79.7621 190.988 79.3892C190.475 79.0162 189.857 78.8154 189.222 78.8154H143.731C143.257 78.8154 142.789 78.9277 142.367 79.1431C141.944 79.3586 141.579 79.671 141.3 80.0549C141.021 80.4388 140.837 80.8833 140.763 81.352C140.689 81.8206 140.727 82.3002 140.874 82.7514L152.04 117.094C152.237 117.698 152.619 118.224 153.132 118.597C153.645 118.97 154.263 119.171 154.897 119.171H200.388C200.863 119.171 201.33 119.058 201.753 118.843C202.175 118.627 202.541 118.315 202.819 117.931C203.098 117.547 203.282 117.103 203.356 116.634C203.43 116.165 203.392 115.686 203.245 115.235Z" fill="white"/>
<path d="M170.748 103.767C173.383 103.767 175.519 101.629 175.519 98.993C175.519 96.3565 173.383 94.2192 170.748 94.2192C168.113 94.2192 165.977 96.3565 165.977 98.993C165.977 101.629 168.113 103.767 170.748 103.767Z" fill="white"/>
<path d="M125.836 3.62891H35.5465C31.3636 3.62891 27.9727 7.02173 27.9727 11.207V120.878C27.9727 125.063 31.3636 128.456 35.5465 128.456H125.836C130.019 128.456 133.41 125.063 133.41 120.878V11.207C133.41 7.02173 130.019 3.62891 125.836 3.62891Z" fill="#292A2E"/>
<path d="M129.172 0.290039H38.8824C34.6995 0.290039 31.3086 3.68286 31.3086 7.86813V117.539C31.3086 121.724 34.6995 125.117 38.8824 125.117H129.172C133.355 125.117 136.746 121.724 136.746 117.539V7.86813C136.746 3.68286 133.355 0.290039 129.172 0.290039Z" fill="white"/>
<path d="M129.172 125.407H38.8832C36.7983 125.405 34.7994 124.575 33.3252 123.1C31.851 121.625 31.0218 119.625 31.0195 117.539V7.86809C31.0218 5.78205 31.8511 3.78211 33.3253 2.30705C34.7995 0.831999 36.7983 0.00230281 38.8832 0L129.172 0C131.257 0.00237956 133.256 0.83211 134.73 2.30716C136.204 3.7822 137.034 5.7821 137.036 7.86809V117.539C137.034 119.625 136.204 121.625 134.73 123.1C133.256 124.575 131.257 125.405 129.172 125.407ZM38.8832 0.580007C36.952 0.582157 35.1006 1.3507 33.735 2.71701C32.3695 4.08333 31.6014 5.93583 31.5992 7.86809V117.539C31.6014 119.471 32.3695 121.323 33.735 122.69C35.1006 124.056 36.952 124.824 38.8832 124.827H129.172C131.104 124.824 132.955 124.056 134.321 122.69C135.686 121.323 136.454 119.471 136.456 117.539V7.86809C136.454 5.93586 135.686 4.08335 134.321 2.71703C132.955 1.35071 131.104 0.582157 129.172 0.580007H38.8832Z" fill="#292A2E"/>
<path d="M30.0931 140.81C40.4783 140.81 48.8971 132.386 48.8971 121.995C48.8971 111.604 40.4783 103.181 30.0931 103.181C19.7079 103.181 11.2891 111.604 11.2891 121.995C11.2891 132.386 19.7079 140.81 30.0931 140.81Z" fill="#292A2E"/>
<path d="M26.1875 119.54C25.9399 119.54 25.7025 119.441 25.5274 119.266C25.3524 119.091 25.254 118.853 25.2539 118.606V114.084C25.2539 111.584 27.4239 109.55 30.0911 109.55C32.7582 109.55 34.9282 111.584 34.9282 114.084V118.295C34.9304 118.419 34.9079 118.543 34.8619 118.658C34.816 118.773 34.7476 118.878 34.6607 118.967C34.5738 119.055 34.4702 119.125 34.3558 119.173C34.2415 119.221 34.1188 119.246 33.9948 119.246C33.8708 119.246 33.7481 119.221 33.6337 119.173C33.5194 119.125 33.4158 119.055 33.3289 118.967C33.242 118.878 33.1736 118.773 33.1276 118.658C33.0817 118.543 33.0592 118.419 33.0614 118.295V114.084C33.0614 112.614 31.7281 111.418 30.0911 111.418C28.454 111.418 27.1208 112.614 27.1208 114.084V118.606C27.1206 118.854 27.0222 119.091 26.8472 119.266C26.6722 119.441 26.4349 119.54 26.1875 119.54Z" fill="white"/>
<path d="M36.0467 117.824H24.1365C23.442 117.824 22.8789 118.388 22.8789 119.083V130.307C22.8789 131.002 23.442 131.566 24.1365 131.566H36.0467C36.7412 131.566 37.3043 131.002 37.3043 130.307V119.083C37.3043 118.388 36.7412 117.824 36.0467 117.824Z" fill="white"/>
<path d="M28.9077 123.583C28.9076 123.806 28.97 124.024 29.0879 124.213C29.2058 124.402 29.3743 124.554 29.5743 124.651V126.474C29.5743 126.612 29.6289 126.743 29.726 126.84C29.823 126.938 29.9547 126.992 30.092 126.992C30.2293 126.992 30.3609 126.938 30.458 126.84C30.5551 126.743 30.6096 126.612 30.6096 126.474V124.651C30.8001 124.559 30.9624 124.417 31.0796 124.24C31.1968 124.064 31.2646 123.859 31.276 123.648C31.2874 123.436 31.242 123.226 31.1445 123.038C31.047 122.849 30.9009 122.691 30.7215 122.578C30.5421 122.466 30.3358 122.404 30.1242 122.398C29.9125 122.392 29.7032 122.443 29.5179 122.546C29.3327 122.648 29.1782 122.799 29.0707 122.981C28.9631 123.164 28.9063 123.372 28.9062 123.583H28.9077Z" fill="#292A2E"/>
<path d="M121.288 62.5752H46.7679C44.989 62.5752 43.5469 64.0181 43.5469 65.798V76.2509C43.5469 78.0308 44.989 79.4737 46.7679 79.4737H121.288C123.067 79.4737 124.509 78.0308 124.509 76.2509V65.798C124.509 64.0181 123.067 62.5752 121.288 62.5752Z" fill="white"/>
<path d="M121.289 79.7632H46.7687C45.8379 79.7621 44.9455 79.3917 44.2873 78.7331C43.6291 78.0746 43.2589 77.1817 43.2578 76.2504V65.7978C43.2589 64.8664 43.6291 63.9735 44.2873 63.3149C44.9455 62.6563 45.8378 62.2858 46.7687 62.2847H121.289C122.219 62.2857 123.112 62.6562 123.77 63.3148C124.428 63.9734 124.799 64.8664 124.8 65.7978V76.2504C124.799 77.1817 124.428 78.0747 123.77 78.7332C123.112 79.3918 122.219 79.7622 121.289 79.7632ZM46.7687 62.8647C45.9915 62.8655 45.2464 63.1748 44.6968 63.7247C44.1473 64.2746 43.8383 65.0202 43.8375 65.7978V76.2504C43.8383 77.0279 44.1474 77.7734 44.6969 78.3232C45.2465 78.8731 45.9915 79.1823 46.7687 79.1832H121.289C122.066 79.1823 122.811 78.8731 123.36 78.3233C123.91 77.7734 124.219 77.028 124.22 76.2504V65.7978C124.219 65.0201 123.91 64.2746 123.36 63.7247C122.811 63.1748 122.066 62.8655 121.289 62.8647H46.7687Z" fill="#292A2E"/>
<path d="M121.288 86.7246H46.7679C44.989 86.7246 43.5469 88.1675 43.5469 89.9474V100.4C43.5469 102.18 44.989 103.623 46.7679 103.623H121.288C123.067 103.623 124.509 102.18 124.509 100.4V89.9474C124.509 88.1675 123.067 86.7246 121.288 86.7246Z" fill="white"/>
<path d="M121.289 103.913H46.7687C45.8377 103.912 44.9452 103.541 44.287 102.882C43.6288 102.224 43.2587 101.331 43.2578 100.399V89.9474C43.2589 89.0161 43.6291 88.1232 44.2873 87.4646C44.9455 86.8061 45.8379 86.4356 46.7687 86.4346H121.289C122.219 86.4356 123.112 86.806 123.77 87.4645C124.428 88.1231 124.799 89.016 124.8 89.9474V100.399C124.799 101.331 124.429 102.224 123.77 102.883C123.112 103.541 122.22 103.912 121.289 103.913ZM46.7687 87.0146C45.9915 87.0154 45.2465 87.3247 44.6969 87.8745C44.1474 88.4243 43.8383 89.1698 43.8375 89.9474V100.399C43.8383 101.177 44.1474 101.922 44.6969 102.472C45.2465 103.022 45.9915 103.331 46.7687 103.332H121.289C122.066 103.331 122.811 103.022 123.36 102.472C123.91 101.922 124.219 101.177 124.22 100.399V89.9474C124.219 89.1698 123.91 88.4242 123.36 87.8744C122.811 87.3246 122.066 87.0153 121.289 87.0146H46.7687Z" fill="#292A2E"/>
<path d="M84.0283 50.0053C93.5838 50.0053 101.33 42.2547 101.33 32.6938C101.33 23.1329 93.5838 15.3823 84.0283 15.3823C74.4728 15.3823 66.7266 23.1329 66.7266 32.6938C66.7266 42.2547 74.4728 50.0053 84.0283 50.0053Z" fill="white"/>
<path d="M84.0291 50.2953C80.5498 50.2953 77.1487 49.263 74.2557 47.3289C71.3628 45.3948 69.1081 42.6458 67.7766 39.4296C66.4451 36.2133 66.0968 32.6743 66.7755 29.2599C67.4543 25.8455 69.1297 22.7093 71.59 20.2476C74.0502 17.786 77.1847 16.1097 80.5972 15.4305C84.0096 14.7513 87.5467 15.0999 90.7611 16.4321C93.9756 17.7643 96.723 20.0204 98.656 22.9149C100.589 25.8095 101.621 29.2125 101.621 32.6938C101.616 37.3604 99.7604 41.8344 96.4625 45.1341C93.1646 48.4339 88.6931 50.29 84.0291 50.2953ZM84.0291 15.6723C80.6645 15.6723 77.3754 16.6706 74.5778 18.5409C71.7802 20.4113 69.5997 23.0697 68.3121 26.1799C67.0246 29.2902 66.6877 32.7127 67.3441 36.0145C68.0005 39.3163 69.6207 42.3493 71.9999 44.7298C74.379 47.1103 77.4103 48.7314 80.7103 49.3882C84.0103 50.045 87.4308 49.7079 90.5393 48.4196C93.6478 47.1313 96.3047 44.9496 98.174 42.1504C100.043 39.3512 101.041 36.0603 101.041 32.6938C101.036 28.181 99.242 23.8544 96.0528 20.6634C92.8635 17.4723 88.5394 15.6774 84.0291 15.6723Z" fill="#292A2E"/>
<path opacity="0.5" d="M100.946 32.6939C100.951 36.7008 99.53 40.5786 96.9375 43.6326C95.3408 41.7701 93.3603 40.2751 91.1319 39.2504C88.9035 38.2256 86.48 37.6953 84.0275 37.6957C81.575 37.6961 79.1516 38.2274 76.9236 39.2529C74.6956 40.2785 72.7157 41.7741 71.1196 43.6372C69.3592 41.5584 68.1264 39.085 67.5259 36.4274C66.9253 33.7697 66.9749 31.0063 67.6702 28.3719C68.3656 25.7375 69.6863 23.31 71.52 21.2956C73.3537 19.2812 75.6464 17.7395 78.2031 16.8014C80.7598 15.8634 83.5051 15.5567 86.2056 15.9075C88.9062 16.2582 91.4822 17.256 93.7148 18.8162C95.9474 20.3763 97.7706 22.4526 99.0296 24.8687C100.288 27.2848 100.946 29.9692 100.946 32.6939Z" fill="#A0B73E"/>
<path d="M96.939 43.6327C95.3511 45.5088 93.3739 47.0164 91.1448 48.0505C88.9157 49.0847 86.4882 49.6206 84.0311 49.621C81.574 49.6215 79.1464 49.0864 76.9169 48.0531C74.6874 47.0197 72.7096 45.5129 71.1211 43.6373C72.7171 41.7742 74.6971 40.2786 76.9251 39.253C79.1531 38.2275 81.5765 37.6962 84.029 37.6958C86.4815 37.6954 88.905 38.2257 91.1334 39.2505C93.3618 40.2752 95.3423 41.7702 96.939 43.6327Z" fill="white"/>
<path d="M84.0296 34.5376C87.8063 34.5376 90.8678 31.4743 90.8678 27.6956C90.8678 23.9168 87.8063 20.8535 84.0296 20.8535C80.253 20.8535 77.1914 23.9168 77.1914 27.6956C77.1914 31.4743 80.253 34.5376 84.0296 34.5376Z" fill="white"/>
<g opacity="0.4">
<path d="M49.8223 97.2319C50.9582 97.2319 51.879 96.3106 51.879 95.1741C51.879 94.0376 50.9582 93.1162 49.8223 93.1162C48.6864 93.1162 47.7656 94.0376 47.7656 95.1741C47.7656 96.3106 48.6864 97.2319 49.8223 97.2319Z" fill="#292A2E"/>
<path d="M56.2559 97.2319C57.3918 97.2319 58.3126 96.3106 58.3126 95.1741C58.3126 94.0376 57.3918 93.1162 56.2559 93.1162C55.12 93.1162 54.1992 94.0376 54.1992 95.1741C54.1992 96.3106 55.12 97.2319 56.2559 97.2319Z" fill="#292A2E"/>
<path d="M62.6895 97.2319C63.8254 97.2319 64.7462 96.3106 64.7462 95.1741C64.7462 94.0376 63.8254 93.1162 62.6895 93.1162C61.5536 93.1162 60.6328 94.0376 60.6328 95.1741C60.6328 96.3106 61.5536 97.2319 62.6895 97.2319Z" fill="#292A2E"/>
<path d="M69.1231 97.2319C70.259 97.2319 71.1798 96.3106 71.1798 95.1741C71.1798 94.0376 70.259 93.1162 69.1231 93.1162C67.9872 93.1162 67.0664 94.0376 67.0664 95.1741C67.0664 96.3106 67.9872 97.2319 69.1231 97.2319Z" fill="#292A2E"/>
<path d="M75.5567 97.2319C76.6926 97.2319 77.6134 96.3106 77.6134 95.1741C77.6134 94.0376 76.6926 93.1162 75.5567 93.1162C74.4208 93.1162 73.5 94.0376 73.5 95.1741C73.5 96.3106 74.4208 97.2319 75.5567 97.2319Z" fill="#292A2E"/>
<path d="M81.9903 97.2319C83.1262 97.2319 84.047 96.3106 84.047 95.1741C84.047 94.0376 83.1262 93.1162 81.9903 93.1162C80.8544 93.1162 79.9336 94.0376 79.9336 95.1741C79.9336 96.3106 80.8544 97.2319 81.9903 97.2319Z" fill="#292A2E"/>
<path d="M88.4239 97.2319C89.5598 97.2319 90.4806 96.3106 90.4806 95.1741C90.4806 94.0376 89.5598 93.1162 88.4239 93.1162C87.288 93.1162 86.3672 94.0376 86.3672 95.1741C86.3672 96.3106 87.288 97.2319 88.4239 97.2319Z" fill="#292A2E"/>
</g>
<g opacity="0.3">
<path d="M51.8601 70.8999V71.5959H49.2188V70.8999H51.8601Z" fill="black"/>
<path d="M55.1413 70.8999V71.5959H52.5V70.8999H55.1413Z" fill="black"/>
<path d="M58.4265 70.8999V71.5959H55.7852V70.8999H58.4265Z" fill="black"/>
<path d="M61.7077 70.8999V71.5959H59.0664V70.8999H61.7077Z" fill="black"/>
<path d="M64.9893 70.8999V71.5959H62.3477V70.8999H64.9893Z" fill="black"/>
<path d="M70.9122 74.827C70.3247 75.129 69.6701 75.2766 69.01 75.2559C67.2561 75.2559 65.7695 73.9718 65.7695 71.9174C65.7695 69.7133 67.299 67.8086 69.6728 67.8086C71.5336 67.8086 72.7848 69.1136 72.7848 70.9009C72.7848 72.5061 71.8863 73.4474 70.8812 73.4474C70.4537 73.4474 70.058 73.1574 70.0899 72.5061H70.047C69.9087 72.7882 69.6942 73.0259 69.4279 73.1922C69.1615 73.3586 68.8539 73.447 68.5398 73.4474C67.9196 73.4474 67.3848 72.9446 67.3848 72.0995C67.3836 71.7661 67.4484 71.4358 67.5753 71.1276C67.7023 70.8193 67.889 70.5393 68.1246 70.3036C68.3602 70.0678 68.64 69.8811 68.9481 69.754C69.2562 69.627 69.5863 69.5622 69.9195 69.5634C70.3124 69.5577 70.7022 69.6342 71.0638 69.7882L70.7 71.7248C70.5397 72.5368 70.6681 72.9138 71.0209 72.9234C71.5664 72.9338 72.1759 72.2062 72.1759 70.9653C72.1759 69.4138 71.2455 68.301 69.5879 68.301C67.8448 68.301 66.3796 69.6811 66.3796 71.8533C66.3796 73.6403 67.5454 74.7423 69.1282 74.7423C69.6893 74.7553 70.2447 74.6266 70.7429 74.3679L70.9122 74.827ZM70.3241 70.2046C70.1505 70.1536 69.9703 70.1284 69.7893 70.1298C68.8482 70.1298 68.0891 71.0178 68.0891 72.0557C68.0891 72.5264 68.3245 72.8677 68.7949 72.8677C69.4152 72.8677 69.9818 72.076 70.0992 71.4125L70.3241 70.2046Z" fill="black"/>
<path d="M76.153 70.8999V71.5959H73.5117V70.8999H76.153Z" fill="black"/>
<path d="M79.4346 70.8999V71.5959H76.793V70.8999H79.4346Z" fill="black"/>
<path d="M82.7155 70.8999V71.5959H80.0742V70.8999H82.7155Z" fill="black"/>
</g>
</g>
<defs>
<clipPath id="clip0_776_4353">
<rect width="258" height="250" fill="white"/>
</clipPath>
</defs>
</svg>
